<svg id="svg" version="1.1" width="509" height="500" xmlns="http://www.w3.org/2000/svg" xmlns:xlink="http://www.w3.org/1999/xlink" style="display: block;"><g id="svgg"><path id="path0" d="M340.642 114.735 C 340.642 138.723,340.742 148.536,340.864 136.542 C 340.986 124.548,340.986 104.921,340.864 92.927 C 340.742 80.933,340.642 90.747,340.642 114.735 " stroke="none" fill="#000000" fill-rule="evenodd"></path><path id="path1" d="" stroke="none" fill="#404040" fill-rule="evenodd"></path><path id="path2" d="" stroke="none" fill="#555555" fill-rule="evenodd"></path><path id="path3" d="M213.752 57.218 C 213.752 57.640,214.312 58.200,214.997 58.463 C 215.762 58.756,216.122 58.581,215.930 58.006 C 215.539 56.832,213.752 56.185,213.752 57.218 M339.096 92.730 C 339.096 105.182,339.361 115.206,339.686 115.006 C 340.448 114.536,340.436 72.197,339.674 70.998 C 339.356 70.498,339.096 80.278,339.096 92.730 M339.764 128.094 C 339.764 131.768,339.899 133.271,340.065 131.434 C 340.230 129.597,340.230 126.591,340.065 124.754 C 339.899 122.917,339.764 124.420,339.764 128.094 M339.703 147.741 C 339.703 149.686,339.856 150.481,340.044 149.509 C 340.231 148.536,340.231 146.945,340.044 145.972 C 339.856 145.000,339.703 145.796,339.703 147.741 M51.866 181.343 C 51.866 181.672,52.582 182.387,53.456 182.933 C 54.930 183.854,54.973 183.810,54.053 182.336 C 53.064 180.752,51.866 180.209,51.866 181.343 " stroke="none" fill="#747474" fill-rule="evenodd"></path><path id="path4" d="M196.704 48.280 C 196.188 48.868,195.304 49.513,194.739 49.714 C 194.175 49.915,193.962 50.347,194.265 50.674 C 194.569 51.000,195.393 50.692,196.097 49.988 C 196.800 49.284,197.701 48.909,198.099 49.155 C 198.496 49.401,198.821 49.050,198.821 48.376 C 198.821 46.884,197.964 46.845,196.704 48.280 M202.750 48.237 C 202.750 48.834,204.077 50.332,205.697 51.566 C 207.318 52.800,209.673 54.790,210.929 55.989 C 212.186 57.187,213.369 58.013,213.557 57.825 C 213.993 57.389,209.056 52.574,206.366 50.811 C 205.242 50.075,204.322 48.950,204.322 48.312 C 204.322 47.674,203.969 47.151,203.536 47.151 C 203.104 47.151,202.750 47.640,202.750 48.237 M214.563 58.852 C 214.611 59.779,218.581 62.231,219.111 61.659 C 219.405 61.341,219.202 60.923,218.659 60.729 C 218.116 60.535,217.847 60.094,218.061 59.748 C 218.274 59.402,217.569 58.951,216.494 58.745 C 215.418 58.539,214.549 58.587,214.563 58.852 M220.039 62.778 C 220.039 63.160,220.900 64.038,221.953 64.727 C 223.005 65.417,224.795 66.910,225.930 68.044 C 227.065 69.179,228.220 69.881,228.497 69.604 C 229.081 69.020,225.210 65.226,224.031 65.226 C 223.595 65.226,222.859 64.519,222.397 63.654 C 221.545 62.062,220.039 61.502,220.039 62.778 M229.470 70.390 C 229.470 71.108,232.393 73.593,239.564 78.971 C 240.145 79.407,241.488 80.560,242.547 81.532 C 243.606 82.505,244.668 83.301,244.907 83.301 C 245.146 83.301,246.378 84.410,247.645 85.766 C 248.912 87.122,250.123 88.057,250.336 87.843 C 250.986 87.193,249.796 84.872,248.812 84.872 C 248.306 84.872,247.381 84.165,246.758 83.301 C 246.135 82.436,245.152 81.729,244.574 81.729 C 243.995 81.729,243.741 81.375,244.008 80.943 C 244.275 80.511,243.939 80.157,243.261 80.157 C 242.583 80.157,241.422 79.450,240.682 78.585 C 239.942 77.721,239.014 77.014,238.621 77.014 C 238.227 77.014,237.245 76.252,236.438 75.322 C 235.631 74.391,234.971 73.898,234.971 74.226 C 234.971 74.554,233.945 73.724,232.691 72.382 C 230.517 70.055,229.470 69.407,229.470 70.390 M294.106 71.117 C 292.854 72.539,292.689 102.585,293.929 103.352 C 294.372 103.626,294.684 103.558,294.622 103.202 C 293.807 98.512,294.874 71.513,295.874 71.513 C 296.523 71.513,297.053 71.159,297.053 70.727 C 297.053 69.582,295.247 69.821,294.106 71.117 M336.004 70.645 C 335.765 71.031,336.094 71.549,336.735 71.796 C 337.738 72.181,337.930 77.214,338.106 107.765 C 338.268 135.981,338.520 143.357,339.327 143.626 C 340.080 143.877,340.199 143.389,339.785 141.741 C 339.478 140.518,339.267 139.157,339.315 138.717 C 339.651 135.671,339.804 114.933,339.489 115.128 C 339.273 115.262,339.198 105.946,339.323 94.425 C 339.448 82.904,339.353 72.682,339.112 71.709 C 338.674 69.945,336.827 69.312,336.004 70.645 M161.493 77.174 L 159.136 79.648 161.690 77.885 C 163.094 76.915,164.244 75.791,164.244 75.389 C 164.244 74.341,164.109 74.429,161.493 77.174 M251.473 88.802 C 251.473 89.234,251.760 89.587,252.111 89.587 C 252.462 89.587,253.435 90.206,254.273 90.963 C 255.111 91.719,257.211 93.392,258.940 94.680 C 260.668 95.968,263.244 98.179,264.663 99.592 C 266.082 101.005,267.500 102.161,267.814 102.161 C 268.128 102.161,269.377 103.081,270.590 104.205 C 271.802 105.330,272.990 106.054,273.229 105.814 C 273.772 105.271,271.514 102.947,270.443 102.947 C 270.009 102.947,269.428 102.235,269.152 101.364 C 268.875 100.493,268.368 99.954,268.025 100.167 C 267.426 100.537,263.397 97.442,259.622 93.713 C 258.637 92.741,257.550 91.939,257.207 91.931 C 256.863 91.924,255.749 91.040,254.731 89.967 C 252.801 87.933,251.473 87.458,251.473 88.802 M293.622 106.736 C 293.266 108.172,293.185 109.557,293.442 109.814 C 294.330 110.702,294.805 109.376,294.538 106.755 L 294.270 104.126 293.622 106.736 M274.263 106.544 C 274.263 107.175,280.809 113.116,281.532 113.142 C 281.857 113.154,282.122 112.633,282.122 111.984 C 282.122 111.336,281.765 110.806,281.329 110.806 C 280.893 110.806,279.426 109.745,278.069 108.448 C 275.761 106.242,274.263 105.493,274.263 106.544 M282.908 113.868 C 282.908 114.314,283.652 115.078,284.561 115.565 C 285.471 116.051,287.295 117.481,288.615 118.743 C 289.934 120.004,291.206 120.843,291.442 120.608 C 291.932 120.118,289.195 117.486,285.462 114.855 C 284.057 113.866,282.908 113.421,282.908 113.868 M338.886 146.955 C 338.886 148.468,339.047 149.086,339.245 148.330 C 339.443 147.574,339.443 146.336,339.245 145.580 C 339.047 144.823,338.886 145.442,338.886 146.955 M71.513 150.007 C 71.513 150.388,70.806 150.886,69.941 151.112 C 69.077 151.338,68.369 151.934,68.369 152.436 C 68.369 152.959,69.376 152.632,70.727 151.670 C 73.205 149.905,73.600 149.312,72.299 149.312 C 71.866 149.312,71.513 149.625,71.513 150.007 M338.703 158.585 C 338.703 159.412,340.410 161.100,341.246 161.100 C 341.607 161.100,341.524 160.393,341.061 159.528 C 340.230 157.976,338.703 157.366,338.703 158.585 M343.007 163.158 C 343.707 163.858,344.475 164.235,344.713 163.997 C 345.413 163.297,344.216 161.886,342.923 161.886 C 341.897 161.886,341.908 162.060,343.007 163.158 M345.776 164.974 C 345.776 165.406,346.483 166.139,347.348 166.601 C 348.359 167.142,348.919 167.162,348.919 166.656 C 348.919 166.224,348.212 165.492,347.348 165.029 C 346.337 164.488,345.776 164.469,345.776 164.974 M349.767 167.247 C 349.673 168.828,351.894 170.686,353.439 170.319 C 354.539 170.057,354.399 169.821,352.735 169.133 C 351.591 168.661,350.470 167.810,350.243 167.241 C 349.903 166.391,349.818 166.392,349.767 167.247 M322.986 168.496 C 322.986 169.183,323.367 169.745,323.833 169.745 C 324.298 169.745,325.740 170.806,327.036 172.102 C 329.331 174.396,330.845 175.090,330.845 173.847 C 330.845 173.511,330.088 172.715,329.164 172.079 C 328.239 171.443,326.471 170.096,325.234 169.085 C 323.427 167.608,322.986 167.492,322.986 168.496 M74.663 169.724 C 73.868 170.226,73.748 170.723,74.290 171.264 C 74.831 171.805,75.401 171.563,76.058 170.511 C 77.100 168.842,76.549 168.532,74.663 169.724 M71.630 172.577 C 70.198 174.196,71.120 174.965,72.654 173.431 C 73.323 172.762,73.870 172.012,73.870 171.765 C 73.870 170.940,72.703 171.363,71.630 172.577 M47.808 174.851 C 47.557 175.102,48.905 176.906,50.805 178.860 C 52.704 180.815,54.019 182.800,53.727 183.273 C 53.427 183.758,53.555 183.911,54.020 183.623 C 54.474 183.343,55.048 183.642,55.296 184.287 C 55.974 186.055,57.524 185.715,60.540 183.136 C 62.037 181.857,63.482 180.796,63.752 180.778 C 64.815 180.709,70.192 175.234,69.690 174.732 C 69.396 174.438,69.155 174.610,69.155 175.115 C 69.155 175.619,68.806 176.031,68.378 176.031 C 67.604 176.031,65.457 177.599,62.810 180.098 C 60.076 182.678,55.050 184.231,54.989 182.515 C 54.952 181.488,48.286 174.373,47.808 174.851 M331.850 175.639 C 331.945 176.503,332.731 177.418,333.595 177.673 C 334.460 177.927,335.070 178.572,334.951 179.106 C 334.832 179.641,335.053 179.881,335.442 179.641 C 335.830 179.401,337.001 179.993,338.044 180.958 C 342.405 184.991,346.562 186.359,346.562 183.760 C 346.562 183.348,346.970 183.264,347.469 183.572 C 348.033 183.921,348.163 183.788,347.812 183.220 C 347.496 182.709,347.789 182.100,348.477 181.836 C 349.152 181.576,349.705 181.045,349.705 180.655 C 349.705 180.265,350.769 178.833,352.070 177.472 C 353.370 176.111,354.236 174.799,353.993 174.556 C 353.554 174.117,346.624 181.474,346.583 182.423 C 346.545 183.307,343.272 183.811,342.349 183.076 C 341.857 182.684,340.510 181.557,339.356 180.572 C 334.677 176.580,333.941 176.031,333.259 176.031 C 332.868 176.031,332.351 175.589,332.112 175.049 C 331.872 174.509,331.754 174.774,331.850 175.639 " stroke="none" fill="#898989" fill-rule="evenodd"></path><path id="path5" d="M198.821 48.330 C 198.821 48.978,198.499 49.420,198.104 49.312 C 197.199 49.064,194.530 50.823,191.415 53.722 C 190.086 54.959,188.202 56.276,187.230 56.650 C 186.257 57.023,185.462 57.868,185.462 58.527 C 185.462 59.201,184.774 59.725,183.890 59.725 C 183.017 59.725,182.318 60.249,182.318 60.904 C 182.318 61.552,181.873 62.083,181.328 62.083 C 180.784 62.083,178.435 63.851,176.109 66.012 C 173.783 68.173,171.579 69.941,171.212 69.941 C 170.844 69.941,170.102 70.648,169.562 71.513 C 169.022 72.377,168.135 73.084,167.591 73.084 C 167.047 73.084,166.601 73.438,166.601 73.870 C 166.601 74.303,166.285 74.656,165.898 74.656 C 165.512 74.656,164.032 75.743,162.610 77.072 C 161.187 78.401,158.674 80.176,157.025 81.017 C 155.377 81.858,154.028 83.070,154.028 83.709 C 154.028 84.349,153.320 84.872,152.456 84.872 C 151.408 84.872,150.884 85.396,150.884 86.444 C 150.884 87.308,150.391 88.016,149.788 88.016 C 149.186 88.016,147.577 89.058,146.213 90.332 C 144.850 91.606,143.654 92.578,143.557 92.493 C 143.334 92.298,141.346 93.968,137.930 97.221 C 136.471 98.610,134.371 99.973,133.263 100.252 C 132.155 100.530,131.443 101.071,131.680 101.456 C 131.918 101.840,131.219 102.561,130.128 103.059 C 129.037 103.556,128.332 104.267,128.562 104.639 C 128.792 105.011,128.339 105.560,127.555 105.859 C 126.771 106.158,125.246 107.220,124.165 108.220 C 123.084 109.219,121.582 110.234,120.825 110.474 C 120.069 110.715,119.450 111.418,119.450 112.037 C 119.450 112.656,118.998 113.163,118.446 113.163 C 117.894 113.163,116.337 114.173,114.985 115.408 C 113.633 116.642,111.963 117.869,111.274 118.134 C 110.584 118.398,110.018 119.068,110.016 119.622 C 110.013 120.176,108.070 121.866,105.697 123.379 C 103.325 124.892,101.382 126.416,101.379 126.765 C 101.377 127.115,101.022 127.183,100.589 126.916 C 100.157 126.648,99.804 126.804,99.804 127.262 C 99.804 127.720,99.214 128.094,98.494 128.094 C 97.773 128.094,97.403 128.313,97.671 128.581 C 98.177 129.088,96.384 131.238,95.454 131.238 C 94.645 131.238,90.158 135.160,90.902 135.217 C 91.260 135.244,90.756 135.586,89.784 135.977 C 88.811 136.368,88.016 137.230,88.016 137.892 C 88.016 138.554,87.607 139.096,87.108 139.096 C 86.608 139.096,85.025 139.992,83.591 141.086 C 82.156 142.181,80.722 143.153,80.405 143.247 C 80.088 143.341,78.577 144.662,77.046 146.182 C 73.382 149.820,67.960 154.028,66.934 154.028 C 66.485 154.028,65.893 154.735,65.619 155.599 C 65.344 156.464,64.736 157.171,64.268 157.171 C 62.923 157.171,56.633 162.171,56.606 163.261 C 56.592 163.802,55.874 164.244,55.010 164.244 C 54.145 164.244,53.438 164.592,53.438 165.018 C 53.438 165.444,52.024 166.729,50.295 167.873 C 46.076 170.665,46.218 172.447,51.081 177.681 C 53.242 180.007,55.010 182.179,55.010 182.507 C 55.010 184.243,60.076 182.678,62.810 180.098 C 64.986 178.044,67.560 176.031,68.012 176.031 C 68.644 176.031,74.065 170.463,73.745 170.143 C 73.589 169.987,72.169 170.983,70.589 172.356 C 59.103 182.334,56.802 183.526,54.767 180.550 C 54.101 179.578,52.646 177.754,51.533 176.499 C 48.809 173.426,48.977 172.098,52.456 169.196 C 54.077 167.844,56.111 166.088,56.977 165.294 C 57.844 164.500,60.673 162.262,63.264 160.321 C 65.856 158.380,68.507 156.248,69.155 155.584 C 69.804 154.919,71.925 153.157,73.870 151.668 C 75.815 150.179,77.583 148.762,77.800 148.520 C 78.016 148.278,79.959 146.678,82.119 144.964 C 84.278 143.249,87.107 140.876,88.405 139.689 C 89.704 138.503,91.078 137.530,91.460 137.528 C 91.841 137.526,92.725 136.893,93.425 136.122 C 94.124 135.350,96.464 133.317,98.625 131.603 C 100.786 129.889,102.731 128.308,102.947 128.090 C 103.163 127.871,104.578 126.771,106.090 125.644 C 107.603 124.517,109.938 122.574,111.278 121.326 C 112.619 120.078,114.892 118.173,116.330 117.092 C 117.768 116.012,121.269 113.254,124.109 110.965 C 130.743 105.617,130.768 105.597,136.391 100.970 C 139.009 98.816,142.341 96.169,143.796 95.088 C 145.251 94.008,147.176 92.401,148.073 91.518 C 148.971 90.635,152.888 87.472,156.778 84.488 C 160.668 81.504,164.381 78.497,165.029 77.805 C 165.678 77.113,167.446 75.687,168.959 74.636 C 170.472 73.585,172.452 72.011,173.360 71.137 C 175.413 69.161,178.322 66.805,183.890 62.607 C 186.267 60.816,188.743 58.792,189.391 58.111 C 192.380 54.973,199.129 50.295,200.660 50.302 C 202.267 50.310,204.060 51.541,212.239 58.259 C 214.152 59.829,218.723 63.523,222.397 66.466 C 226.071 69.410,229.253 72.024,229.470 72.275 C 229.686 72.526,231.454 73.952,233.399 75.442 C 235.344 76.932,237.112 78.338,237.328 78.565 C 237.544 78.792,239.489 80.381,241.650 82.095 C 243.811 83.809,245.756 85.406,245.972 85.644 C 246.534 86.261,250.740 89.641,253.815 91.945 C 255.258 93.026,256.824 94.263,257.295 94.695 C 258.012 95.352,265.726 101.591,271.385 106.090 C 272.200 106.739,273.270 107.635,273.762 108.083 C 274.254 108.530,277.308 111.005,280.550 113.584 C 283.792 116.162,287.505 119.242,288.802 120.429 C 291.284 122.700,292.338 123.111,292.338 121.807 C 292.338 121.375,292.053 121.022,291.706 121.022 C 291.157 121.022,288.795 119.113,283.497 114.389 C 282.741 113.715,281.857 113.161,281.532 113.159 C 281.208 113.156,279.265 111.565,277.213 109.622 C 275.162 107.680,273.128 106.090,272.694 106.090 C 272.261 106.090,271.903 105.825,271.900 105.501 C 271.897 105.177,270.571 104.030,268.953 102.952 C 267.336 101.874,265.128 100.091,264.047 98.989 C 262.967 97.888,260.675 95.941,258.955 94.662 C 255.060 91.768,253.164 90.260,251.835 88.998 C 251.266 88.458,250.563 88.016,250.273 88.016 C 249.984 88.016,248.755 86.955,247.544 85.658 C 246.333 84.361,245.146 83.301,244.907 83.301 C 244.668 83.301,243.606 82.505,242.547 81.532 C 241.488 80.560,240.145 79.407,239.564 78.971 C 234.603 75.251,231.232 72.514,230.163 71.339 C 229.464 70.570,228.680 69.941,228.422 69.941 C 228.000 69.941,224.590 67.077,220.818 63.556 C 220.066 62.854,219.101 62.146,218.675 61.984 C 217.709 61.617,212.497 57.513,210.292 55.383 C 209.386 54.508,207.318 52.786,205.697 51.557 C 204.077 50.328,202.750 48.834,202.750 48.237 C 202.750 47.603,201.933 47.151,200.786 47.151 C 199.563 47.151,198.821 47.597,198.821 48.330 M297.053 70.727 C 297.053 71.229,303.979 71.513,316.260 71.513 C 328.217 71.513,335.650 71.216,335.953 70.727 C 336.272 70.211,329.674 69.941,316.746 69.941 C 304.141 69.941,297.053 70.224,297.053 70.727 M294.847 85.462 C 294.999 99.497,295.288 97.841,295.669 80.745 C 295.782 75.666,295.609 71.510,295.285 71.511 C 294.961 71.512,294.764 77.790,294.847 85.462 M336.520 115.410 C 336.682 139.645,336.975 159.589,337.170 159.729 C 338.030 160.348,349.448 169.443,350.688 170.497 C 352.593 172.116,352.409 173.825,350.039 176.499 C 348.925 177.754,347.470 179.578,346.805 180.550 C 345.076 183.077,343.751 182.779,338.783 178.741 C 336.362 176.773,333.845 174.740,333.190 174.222 C 332.535 173.704,330.134 171.733,327.854 169.842 C 325.574 167.950,323.529 166.582,323.309 166.803 C 323.089 167.023,323.999 168.040,325.331 169.063 C 326.664 170.086,328.968 172.073,330.452 173.477 C 331.936 174.882,333.335 176.031,333.560 176.031 C 333.957 176.031,334.905 176.775,339.356 180.572 C 340.510 181.557,341.857 182.684,342.349 183.076 C 343.278 183.816,346.562 183.302,346.562 182.416 C 346.562 182.138,348.330 180.007,350.491 177.681 C 354.398 173.476,355.519 170.530,353.214 170.530 C 352.550 170.530,351.123 169.735,350.044 168.762 C 345.605 164.765,344.971 164.244,344.541 164.244 C 343.674 164.244,341.927 162.068,342.408 161.587 C 342.676 161.319,342.348 161.100,341.681 161.100 C 339.777 161.100,338.142 158.789,339.467 157.970 C 340.348 157.426,340.351 156.317,339.489 151.277 C 338.668 146.477,338.656 145.112,339.431 144.633 C 340.165 144.180,340.098 143.912,339.162 143.552 C 338.052 143.126,337.917 139.255,337.917 107.733 C 337.917 83.338,337.655 72.229,337.071 71.868 C 336.469 71.496,336.310 84.068,336.520 115.410 M292.985 116.896 C 292.810 121.628,293.037 124.096,293.713 124.811 C 294.503 125.645,294.695 124.296,294.695 117.934 C 294.695 108.222,293.336 107.397,292.985 116.896 M77.391 263.261 C 77.391 304.971,77.487 322.033,77.603 301.179 C 77.719 280.324,77.719 246.198,77.603 225.344 C 77.487 204.489,77.391 221.552,77.391 263.261 M160.675 208.304 C 159.839 209.656,160.610 209.832,163.673 208.986 C 168.149 207.750,239.066 208.354,239.491 209.632 C 239.672 210.175,240.128 210.428,240.504 210.196 C 240.881 209.963,240.990 209.254,240.746 208.619 C 240.186 207.160,161.573 206.850,160.675 208.304 M161.112 327.505 L 161.100 329.273 200.786 329.273 L 240.472 329.273 240.459 327.505 C 240.450 326.084,240.301 325.968,239.702 326.916 C 239.057 327.937,233.861 328.094,200.786 328.094 C 167.711 328.094,162.515 327.937,161.869 326.916 C 161.271 325.968,161.122 326.084,161.112 327.505 M323.165 341.599 C 321.989 343.691,321.912 345.776,323.011 345.776 C 324.108 345.776,324.742 343.927,324.406 341.707 L 324.130 339.882 323.165 341.599 M77.014 343.418 C 77.014 344.990,77.407 345.776,78.193 345.776 C 79.493 345.776,79.573 345.429,78.876 342.829 C 78.193 340.281,77.014 340.654,77.014 343.418 " stroke="none" fill="#9e9e9e" fill-rule="evenodd"></path><path id="path6" d="M194.766 53.584 C 192.458 55.393,190.039 57.430,189.391 58.111 C 188.743 58.792,186.267 60.816,183.890 62.607 C 178.322 66.805,175.413 69.161,173.360 71.137 C 172.452 72.011,170.472 73.590,168.959 74.647 C 165.760 76.882,164.244 78.272,164.244 78.968 C 164.244 79.438,172.429 73.380,174.612 71.294 C 175.177 70.755,177.937 68.498,180.747 66.278 C 183.556 64.059,188.861 59.735,192.534 56.670 C 200.669 49.883,200.908 49.873,208.251 56.015 C 211.493 58.726,216.798 63.044,220.039 65.610 C 223.281 68.177,226.395 70.726,226.960 71.276 C 229.334 73.587,237.328 79.412,237.323 78.828 C 237.320 78.478,236.149 77.397,234.721 76.425 C 233.294 75.453,231.439 74.027,230.601 73.257 C 229.763 72.486,226.071 69.439,222.397 66.485 C 218.723 63.531,214.152 59.829,212.239 58.259 C 200.715 48.795,200.835 48.827,194.766 53.584 M295.894 72.495 C 295.287 74.334,295.078 102.803,295.674 102.435 C 296.000 102.233,296.267 95.565,296.267 87.615 C 296.267 74.680,296.412 73.078,297.642 72.362 C 298.946 71.602,298.944 71.559,297.618 71.537 C 296.848 71.524,296.072 71.955,295.894 72.495 M334.626 72.190 C 335.430 72.700,335.682 77.500,335.773 93.986 L 335.890 115.128 336.314 94.695 C 336.781 72.235,336.736 71.507,334.879 71.525 C 333.893 71.534,333.834 71.688,334.626 72.190 M156.385 84.687 C 152.711 87.563,148.971 90.638,148.073 91.520 C 147.176 92.402,145.251 94.008,143.796 95.088 C 142.341 96.169,139.009 98.816,136.391 100.970 C 130.768 105.597,130.743 105.617,124.109 110.965 C 121.269 113.254,117.773 116.012,116.342 117.092 C 112.217 120.206,110.526 121.789,110.911 122.175 C 111.278 122.542,130.697 107.125,146.545 93.886 C 149.148 91.712,153.399 88.307,155.992 86.320 C 160.170 83.118,164.261 79.296,163.383 79.414 C 163.208 79.438,160.059 81.810,156.385 84.687 M238.182 79.854 C 238.360 80.335,244.165 85.258,251.081 90.794 C 257.996 96.330,263.831 101.063,264.047 101.314 C 265.112 102.547,291.399 123.379,291.891 123.379 C 292.203 123.379,291.282 122.412,289.844 121.231 C 288.406 120.049,287.053 118.898,286.837 118.673 C 286.621 118.449,283.792 116.157,280.550 113.580 C 277.308 111.004,274.254 108.530,273.762 108.083 C 273.270 107.635,272.200 106.739,271.385 106.090 C 265.726 101.591,258.012 95.352,257.295 94.695 C 256.824 94.263,255.258 93.026,253.815 91.945 C 250.740 89.641,246.534 86.261,245.972 85.644 C 244.535 84.063,237.918 79.145,238.182 79.854 M294.866 108.883 C 294.877 111.547,294.977 111.725,295.573 110.147 C 295.979 109.074,295.974 107.784,295.560 107.045 C 295.048 106.129,294.856 106.636,294.866 108.883 M294.724 119.843 C 294.640 123.301,294.393 125.688,294.175 125.147 C 293.957 124.607,293.411 124.165,292.962 124.165 C 292.466 124.165,292.527 124.625,293.117 125.335 C 295.155 127.792,296.596 122.496,295.475 116.668 C 294.967 114.029,294.853 114.512,294.724 119.843 M335.673 138.703 C 335.932 158.375,336.004 159.194,337.619 160.707 C 338.542 161.572,341.993 164.532,345.287 167.286 C 352.252 173.107,352.033 172.458,348.566 176.998 C 344.717 182.039,344.235 182.045,337.950 177.128 C 334.907 174.747,332.417 173.172,332.417 173.629 C 332.417 174.086,332.688 174.460,333.020 174.460 C 333.352 174.460,335.739 176.219,338.325 178.369 C 343.583 182.742,345.048 183.118,346.805 180.550 C 347.470 179.578,348.925 177.754,350.039 176.499 C 352.409 173.825,352.593 172.116,350.688 170.497 C 349.103 169.150,337.623 160.033,337.328 159.887 C 337.220 159.834,336.915 150.625,336.651 139.423 C 336.387 128.222,335.999 118.880,335.788 118.664 C 335.578 118.448,335.526 127.466,335.673 138.703 M107.571 124.386 C 106.440 125.345,104.838 126.660,104.012 127.308 C 97.885 132.112,94.516 134.917,93.425 136.122 C 92.725 136.893,91.841 137.526,91.460 137.528 C 91.078 137.530,89.704 138.503,88.405 139.689 C 87.107 140.876,84.278 143.249,82.119 144.964 C 79.959 146.678,78.016 148.278,77.800 148.520 C 77.583 148.762,75.815 150.179,73.870 151.668 C 71.925 153.157,69.804 154.919,69.155 155.584 C 68.507 156.248,65.856 158.380,63.264 160.321 C 60.673 162.262,57.844 164.500,56.977 165.294 C 56.111 166.088,54.077 167.844,52.456 169.196 C 48.977 172.098,48.809 173.426,51.533 176.499 C 52.646 177.754,54.101 179.578,54.767 180.550 C 56.496 183.077,57.821 182.779,62.789 178.741 C 65.210 176.773,67.721 174.739,68.369 174.221 C 69.018 173.702,71.194 171.938,73.205 170.300 C 75.734 168.240,76.987 167.635,77.268 168.337 C 77.527 168.982,77.698 168.850,77.738 167.976 C 77.836 165.800,77.161 166.198,67.309 174.127 C 56.793 182.590,57.020 182.559,52.375 176.148 L 49.947 172.796 53.068 169.841 C 54.784 168.216,58.876 164.788,62.161 162.225 C 65.446 159.661,71.599 154.735,75.835 151.277 C 92.743 137.473,95.740 135.053,102.302 129.907 C 106.054 126.965,109.314 124.116,109.547 123.576 C 110.102 122.288,109.992 122.333,107.571 124.386 M322.200 166.255 C 322.200 166.928,322.562 167.256,323.005 166.983 C 323.447 166.709,325.657 167.960,327.916 169.762 L 332.024 173.038 327.701 169.043 C 323.080 164.770,322.200 164.324,322.200 166.255 M322.492 185.007 C 322.612 190.514,324.558 192.441,324.558 187.053 C 324.558 185.241,324.233 183.998,323.826 184.250 C 323.423 184.499,322.935 183.724,322.742 182.528 C 322.549 181.332,322.436 182.448,322.492 185.007 M77.407 262.868 C 77.407 305.874,77.644 341.061,77.934 341.061 C 78.223 341.061,78.694 342.122,78.978 343.418 L 79.496 345.776 200.848 345.776 C 317.402 345.776,322.200 345.720,322.200 344.355 C 322.200 343.573,322.720 342.247,323.354 341.408 C 325.117 339.077,325.145 193.320,323.383 193.320 C 322.350 193.320,322.184 202.342,322.008 267.991 L 321.807 342.663 200.786 342.655 L 79.764 342.648 79.564 263.662 C 79.406 201.266,79.158 184.676,78.385 184.676 C 77.611 184.676,77.407 200.998,77.407 262.868 M160.005 207.923 C 159.020 210.492,159.472 328.902,160.472 329.902 C 161.831 331.261,239.741 331.261,241.100 329.902 C 242.100 328.902,242.552 210.492,241.566 207.923 C 240.838 206.026,160.733 206.026,160.005 207.923 M240.719 208.549 C 240.948 209.144,240.798 209.968,240.386 210.380 C 239.921 210.845,239.721 233.520,239.858 270.201 L 240.079 329.273 200.491 329.273 L 160.904 329.273 161.395 326.817 C 161.665 325.467,161.886 298.616,161.886 267.150 C 161.886 222.084,162.095 209.867,162.868 209.602 C 163.409 209.418,163.055 209.398,162.083 209.560 C 160.374 209.843,159.760 209.068,160.838 207.990 C 161.981 206.847,240.276 207.395,240.719 208.549 M182.962 208.840 C 193.040 208.965,209.307 208.965,219.111 208.840 C 228.914 208.715,220.668 208.614,200.786 208.614 C 180.904 208.614,172.883 208.716,182.962 208.840 M182.569 328.290 C 192.864 328.414,209.485 328.414,219.504 328.290 C 229.523 328.166,221.100 328.064,200.786 328.064 C 180.472 328.064,172.274 328.166,182.569 328.290 " stroke="none" fill="#bfbfbf" fill-rule="evenodd"></path><path id="path7" d="M192.534 56.641 C 188.861 59.690,185.324 62.761,184.676 63.465 C 183.219 65.046,190.487 59.376,193.694 56.429 C 199.642 50.964,202.049 51.018,208.251 56.755 C 209.332 57.754,211.984 59.931,214.145 61.592 C 219.281 65.539,214.828 61.417,207.379 55.327 C 200.808 49.956,200.562 49.978,192.534 56.641 M221.969 67.757 C 223.717 69.364,225.440 70.691,225.797 70.703 C 226.154 70.716,225.270 69.776,223.832 68.614 C 219.424 65.050,218.631 64.686,221.969 67.757 M176.031 70.051 C 174.519 71.394,170.629 74.575,167.387 77.119 C 164.145 79.662,159.725 83.184,157.564 84.945 C 143.143 96.693,139.096 100.070,139.096 100.356 C 139.096 100.781,148.217 93.760,149.945 92.006 C 150.678 91.262,153.575 88.910,156.385 86.780 C 159.194 84.650,162.029 82.377,162.684 81.729 C 163.339 81.081,166.886 78.205,170.566 75.338 C 176.462 70.746,179.965 67.558,179.075 67.596 C 178.914 67.603,177.544 68.708,176.031 70.051 M231.502 75.802 C 234.490 78.161,237.237 80.106,237.606 80.124 C 237.975 80.142,235.759 78.212,232.682 75.835 C 229.606 73.458,226.859 71.513,226.579 71.513 C 226.299 71.513,228.514 73.443,231.502 75.802 M307.510 72.100 C 312.613 72.237,320.747 72.237,325.585 72.099 C 330.423 71.961,326.248 71.849,316.306 71.850 C 306.365 71.850,302.407 71.963,307.510 72.100 M296.616 73.310 C 296.402 73.866,296.326 80.320,296.446 87.652 L 296.665 100.982 297.055 86.640 C 297.439 72.562,297.396 71.276,296.616 73.310 M238.938 81.867 C 242.073 84.548,249.902 90.425,249.902 90.098 C 249.902 89.650,240.543 82.279,238.900 81.433 C 237.925 80.932,237.932 81.007,238.938 81.867 M251.728 91.742 C 253.305 93.539,262.475 100.894,262.475 100.361 C 262.475 100.178,259.735 97.796,256.385 95.068 C 253.035 92.339,250.940 90.843,251.728 91.742 M132.417 105.391 C 126.435 110.223,125.473 111.564,131.090 107.241 C 135.430 103.902,137.395 102.096,136.589 102.189 C 136.455 102.205,134.578 103.645,132.417 105.391 M265.024 102.620 C 265.297 103.062,267.733 105.162,270.438 107.287 C 273.142 109.411,275.131 110.788,274.858 110.346 C 274.585 109.904,272.149 107.804,269.444 105.680 C 266.740 103.555,264.751 102.178,265.024 102.620 M294.963 103.383 C 294.705 104.055,294.822 105.340,295.222 106.237 C 295.842 107.626,295.962 107.445,296.031 105.015 C 296.117 101.978,295.729 101.386,294.963 103.383 M120.312 115.126 C 113.434 120.936,112.552 122.059,118.409 117.547 C 122.784 114.178,126.490 110.750,125.662 110.840 C 125.487 110.859,123.079 112.788,120.312 115.126 M276.876 112.174 C 278.452 113.971,287.623 121.326,287.623 120.793 C 287.623 120.610,284.882 118.228,281.532 115.500 C 278.183 112.771,276.087 111.275,276.876 112.174 M295.176 114.342 C 295.517 116.071,295.768 119.077,295.733 121.022 C 295.678 124.142,295.747 124.292,296.322 122.293 C 296.937 120.152,296.013 112.642,295.013 111.651 C 294.761 111.402,294.834 112.613,295.176 114.342 M110.694 122.790 C 109.643 123.762,106.408 126.445,103.507 128.751 C 100.606 131.058,98.232 133.123,98.232 133.342 C 98.232 133.869,108.217 126.064,111.151 123.243 C 113.880 120.619,113.476 120.218,110.694 122.790 M291.090 123.956 C 293.701 126.747,295.481 127.591,295.481 126.037 C 295.481 125.821,295.152 125.848,294.749 126.096 C 294.347 126.345,293.547 125.924,292.973 125.160 C 292.399 124.397,291.049 123.074,289.973 122.220 C 288.896 121.367,289.399 122.148,291.090 123.956 M94.258 136.212 C 92.724 137.582,90.073 139.874,88.367 141.304 C 86.661 142.734,87.518 142.204,90.271 140.125 C 97.410 134.735,97.762 134.435,97.386 134.059 C 97.200 133.873,95.792 134.842,94.258 136.212 M82.072 146.365 L 79.764 148.919 82.318 146.611 C 84.699 144.460,85.234 143.811,84.626 143.811 C 84.491 143.811,83.342 144.961,82.072 146.365 M75.835 151.363 L 72.692 154.176 76.031 151.678 C 78.906 149.528,79.943 148.493,79.175 148.538 C 79.067 148.545,77.564 149.816,75.835 151.363 M335.774 154.813 C 335.774 156.758,335.927 157.554,336.115 156.582 C 336.302 155.609,336.302 154.018,336.115 153.045 C 335.927 152.073,335.774 152.868,335.774 154.813 M69.499 156.582 L 67.191 159.136 69.745 156.827 C 71.149 155.558,72.299 154.409,72.299 154.273 C 72.299 153.666,71.650 154.201,69.499 156.582 M59.315 164.430 C 54.353 168.467,50.295 172.303,50.295 172.954 C 50.295 173.283,51.267 172.605,52.456 171.447 C 53.644 170.289,56.562 167.673,58.939 165.633 C 63.819 161.446,64.104 160.532,59.315 164.430 M342.633 165.508 C 345.010 167.617,347.927 170.289,349.116 171.447 C 350.305 172.605,351.277 173.289,351.277 172.967 C 351.277 172.373,342.767 164.750,339.882 162.759 C 339.018 162.162,340.255 163.400,342.633 165.508 M321.415 164.655 C 321.415 165.348,321.792 165.675,322.259 165.386 C 322.723 165.100,324.046 165.698,325.200 166.715 L 327.297 168.566 325.740 166.725 C 323.488 164.063,321.415 163.071,321.415 164.655 M71.598 169.790 C 70.564 170.651,69.885 171.522,70.089 171.726 C 70.292 171.929,71.288 171.213,72.302 170.134 C 74.507 167.787,74.190 167.632,71.598 169.790 M331.526 171.885 C 333.479 173.711,335.271 175.010,335.508 174.773 C 335.746 174.536,335.341 174.007,334.610 173.598 C 333.878 173.188,332.809 172.419,332.234 171.888 C 331.659 171.358,330.466 170.393,329.582 169.745 C 328.699 169.096,329.573 170.060,331.526 171.885 M53.065 177.051 C 56.496 181.729,57.429 181.913,61.602 178.727 C 63.595 177.205,65.226 175.775,65.226 175.549 C 65.226 175.323,64.129 175.958,62.788 176.960 C 56.949 181.323,57.681 181.278,54.120 177.504 C 50.982 174.179,50.948 174.164,53.065 177.051 M347.739 177.142 C 344.854 180.925,343.990 181.011,339.936 177.915 C 337.961 176.407,336.346 175.350,336.346 175.567 C 336.346 176.963,343.730 181.421,344.956 180.765 C 346.308 180.041,350.931 174.460,350.178 174.460 C 349.962 174.460,348.865 175.667,347.739 177.142 M159.556 207.414 C 158.227 209.898,158.497 328.491,159.837 330.255 C 161.356 332.257,239.599 332.391,241.594 330.396 C 243.105 328.885,243.512 210.209,242.016 207.414 C 241.227 205.941,239.940 205.894,200.786 205.894 C 161.632 205.894,160.344 205.941,159.556 207.414 M241.566 207.923 C 242.552 210.492,242.100 328.902,241.100 329.902 C 239.741 331.261,161.831 331.261,160.472 329.902 C 159.472 328.902,159.020 210.492,160.005 207.923 C 160.733 206.026,240.838 206.026,241.566 207.923 M182.569 209.626 C 192.864 209.750,209.485 209.750,219.504 209.626 C 229.523 209.502,221.100 209.400,200.786 209.400 C 180.472 209.400,172.274 209.502,182.569 209.626 M79.570 342.051 C 79.832 342.837,321.737 342.844,321.999 342.058 C 322.110 341.726,267.564 341.454,200.786 341.454 C 134.008 341.454,79.461 341.723,79.570 342.051 " stroke="none" fill="#d8d8d8" fill-rule="evenodd"></path><path id="path8" d="M196.508 54.282 C 194.675 55.610,193.361 56.884,193.589 57.112 C 193.817 57.340,194.999 56.603,196.216 55.474 C 199.996 51.966,202.112 52.126,206.214 56.228 C 206.944 56.958,207.733 57.362,207.969 57.126 C 208.508 56.587,202.062 51.866,200.786 51.866 C 200.267 51.866,198.342 52.953,196.508 54.282 M191.634 57.940 C 191.481 58.309,187.941 61.317,183.767 64.625 C 179.593 67.933,175.905 71.082,175.570 71.624 C 174.815 72.845,178.653 70.118,182.263 66.867 C 183.746 65.532,185.160 64.425,185.407 64.407 C 186.392 64.333,192.831 58.188,192.388 57.745 C 192.126 57.483,191.787 57.571,191.634 57.940 M209.049 57.861 C 209.043 58.349,211.063 60.294,213.538 62.183 C 218.890 66.269,220.153 67.290,223.371 70.133 C 224.714 71.318,225.987 72.114,226.200 71.901 C 226.414 71.687,226.441 71.392,226.261 71.243 C 226.081 71.095,222.397 68.196,218.075 64.802 C 213.752 61.407,209.956 58.257,209.639 57.802 C 209.245 57.238,209.058 57.256,209.049 57.861 M227.112 72.626 C 227.112 73.454,229.479 75.694,229.905 75.269 C 230.103 75.071,229.556 74.266,228.689 73.482 C 227.821 72.697,227.112 72.312,227.112 72.626 M297.591 72.809 C 297.295 73.104,297.078 79.388,297.108 86.771 C 297.143 95.330,297.418 99.627,297.864 98.625 C 298.250 97.760,298.526 91.749,298.479 85.265 L 298.394 73.477 316.186 73.477 L 333.979 73.477 334.196 116.306 C 334.440 164.256,333.849 160.224,341.454 165.792 C 346.902 169.780,344.839 167.342,338.482 162.279 L 335.522 159.921 335.345 116.306 L 335.167 72.692 316.648 72.481 C 306.462 72.366,297.887 72.513,297.591 72.809 M168.173 77.109 C 162.189 82.028,158.770 85.161,159.064 85.456 C 159.248 85.639,160.063 85.141,160.876 84.348 C 163.643 81.653,168.424 77.800,169.001 77.800 C 169.318 77.800,169.780 77.269,170.029 76.621 C 170.597 75.141,170.554 75.152,168.173 77.109 M231.745 76.861 C 232.253 77.810,233.013 78.585,233.433 78.585 C 234.144 78.585,237.221 81.028,240.611 84.283 C 241.399 85.039,242.308 85.656,242.633 85.654 C 243.340 85.650,238.983 81.594,234.243 77.843 C 231.516 75.686,231.010 75.487,231.745 76.861 M154.808 88.055 C 153.298 89.307,152.417 90.339,152.849 90.348 C 153.927 90.372,158.446 86.682,157.952 86.182 C 157.733 85.960,156.318 86.803,154.808 88.055 M244.046 86.652 C 244.428 87.647,249.116 90.852,249.116 90.118 C 249.116 89.929,247.884 88.834,246.379 87.686 C 244.873 86.538,243.823 86.072,244.046 86.652 M150.367 91.374 C 150.003 91.990,147.220 94.403,144.183 96.738 C 136.050 102.989,130.394 107.866,130.803 108.275 C 131.001 108.473,131.655 108.151,132.257 107.559 C 133.254 106.578,137.787 102.749,141.437 99.804 C 142.241 99.155,143.863 97.917,145.043 97.053 C 149.157 94.039,152.026 91.254,151.529 90.756 C 151.254 90.481,150.731 90.759,150.367 91.374 M249.902 90.926 C 249.902 91.727,251.755 93.416,256.597 97.029 C 260.926 100.259,261.551 100.770,263.291 102.497 C 264.130 103.330,265.019 103.809,265.266 103.562 C 265.513 103.315,263.483 101.399,260.755 99.305 C 258.028 97.210,254.470 94.303,252.849 92.843 C 251.228 91.384,249.902 90.521,249.902 90.926 M296.317 102.161 C 296.070 104.573,296.065 112.849,296.307 118.664 C 296.405 121.041,296.069 124.019,295.560 125.280 L 294.633 127.575 291.324 124.446 C 289.505 122.725,285.400 119.217,282.203 116.651 C 279.006 114.084,275.382 111.163,274.148 110.159 C 272.915 109.155,271.906 108.671,271.906 109.082 C 271.906 109.494,273.810 111.268,276.137 113.026 C 278.465 114.783,281.736 117.476,283.406 119.010 C 285.077 120.545,286.841 121.802,287.326 121.804 C 287.811 121.806,289.675 123.399,291.468 125.344 C 296.940 131.280,297.983 128.735,297.103 111.591 C 296.781 105.324,296.428 101.081,296.317 102.161 M268.139 106.402 C 269.308 107.527,270.501 108.448,270.789 108.448 C 271.680 108.448,269.375 106.050,267.648 105.180 C 266.387 104.545,266.499 104.824,268.139 106.402 M123.569 113.301 C 120.432 115.955,118.073 118.335,118.329 118.591 C 118.584 118.846,119.206 118.506,119.711 117.835 C 120.216 117.164,122.662 115.089,125.147 113.223 C 127.633 111.357,129.666 109.520,129.666 109.139 C 129.666 108.128,129.759 108.065,123.569 113.301 M114.735 120.347 C 113.654 121.198,111.886 122.693,110.806 123.670 C 109.725 124.647,106.365 127.368,103.340 129.716 C 100.314 132.064,96.778 134.926,95.481 136.076 C 94.185 137.227,92.240 138.895,91.159 139.785 C 90.079 140.674,89.569 141.413,90.028 141.428 C 90.486 141.442,91.900 140.465,93.171 139.257 C 95.079 137.442,100.683 132.830,104.118 130.248 C 104.554 129.919,106.857 127.895,109.234 125.750 C 111.611 123.605,113.955 121.840,114.442 121.829 C 115.417 121.805,117.500 119.595,117.008 119.106 C 116.838 118.937,115.815 119.496,114.735 120.347 M82.056 146.815 C 78.571 149.702,72.223 154.892,67.948 158.350 C 63.674 161.807,58.926 165.808,57.397 167.240 L 54.617 169.844 58.262 167.157 C 62.758 163.842,64.187 162.664,65.849 160.904 C 66.563 160.147,67.419 159.528,67.751 159.528 C 68.084 159.528,69.370 158.468,70.609 157.171 C 71.848 155.874,73.187 154.813,73.584 154.813 C 73.982 154.813,74.891 154.194,75.605 153.438 C 76.319 152.682,77.374 151.709,77.949 151.277 C 84.478 146.371,89.124 142.300,88.690 141.866 C 88.526 141.702,85.541 143.929,82.056 146.815 M320.641 163.654 C 320.647 164.627,321.012 165.953,321.450 166.601 C 322.042 167.476,322.119 167.222,321.746 165.619 C 321.108 162.873,321.388 162.906,325.120 166.012 C 326.808 167.417,329.543 169.627,331.198 170.923 C 332.853 172.220,334.600 173.640,335.080 174.078 C 338.046 176.786,342.788 180.105,342.180 179.047 C 341.780 178.353,339.686 176.446,337.525 174.810 C 331.064 169.920,327.600 167.136,324.625 164.444 C 321.288 161.424,320.625 161.292,320.641 163.654 M75.213 165.956 C 74.112 166.959,70.660 169.725,67.543 172.102 C 64.425 174.479,61.009 177.198,59.951 178.144 C 58.184 179.724,55.796 179.864,55.796 178.387 C 55.796 178.047,54.918 176.935,53.845 175.917 C 51.610 173.798,51.351 172.468,53.045 171.818 C 53.694 171.569,54.224 170.946,54.224 170.433 C 54.224 169.877,53.589 170.075,52.652 170.923 C 50.582 172.797,50.646 173.226,53.531 176.815 C 56.774 180.851,57.564 181.040,60.730 178.541 C 62.205 177.377,64.583 175.540,66.015 174.460 C 67.447 173.379,69.005 172.141,69.477 171.709 C 69.950 171.277,72.015 169.574,74.068 167.924 L 77.800 164.924 77.907 167.138 C 78.003 169.125,78.050 169.161,78.366 167.493 C 78.919 164.576,77.492 163.880,75.213 165.956 M347.348 170.433 C 347.348 170.946,347.878 171.569,348.527 171.818 C 350.094 172.419,350.017 173.821,348.330 175.387 C 345.330 178.171,343.280 180.750,344.412 180.316 C 345.749 179.803,350.491 174.139,350.491 173.056 C 350.491 172.665,349.784 171.706,348.919 170.923 C 347.982 170.075,347.348 169.877,347.348 170.433 M77.014 182.711 C 77.014 183.360,77.543 183.890,78.189 183.890 C 79.222 183.890,79.388 193.369,79.564 262.672 L 79.764 341.454 200.786 341.454 L 321.807 341.454 322.003 267.191 C 322.176 201.587,322.339 192.824,323.402 192.038 C 324.452 191.261,324.458 191.092,323.443 190.703 C 322.682 190.411,322.173 188.819,321.968 186.091 C 321.677 182.226,321.654 182.294,321.647 187.033 C 321.643 189.843,321.589 225.560,321.527 266.405 L 321.415 340.668 200.786 340.668 L 80.157 340.668 80.157 262.620 C 80.157 210.323,79.889 184.071,79.344 183.052 C 78.377 181.247,77.014 181.047,77.014 182.711 M159.528 205.877 C 158.497 206.529,158.348 214.282,158.333 267.751 L 158.316 328.880 158.726 268.369 C 158.951 235.088,159.422 207.417,159.771 206.876 C 160.266 206.111,169.346 205.894,200.786 205.894 C 232.226 205.894,241.305 206.111,241.800 206.876 C 242.150 207.417,242.617 235.088,242.839 268.369 L 243.241 328.880 243.428 269.010 C 243.545 231.536,243.328 208.386,242.849 207.124 L 242.082 205.108 201.395 205.120 C 177.133 205.127,160.231 205.433,159.528 205.877 M162.405 210.405 C 162.202 210.733,179.328 210.907,200.463 210.791 L 238.890 210.580 239.099 268.944 L 239.308 327.308 239.300 268.762 L 239.293 210.216 201.033 210.012 C 179.991 209.900,162.608 210.077,162.405 210.405 M162.259 269.155 C 162.259 300.275,162.356 312.891,162.475 297.192 C 162.594 281.492,162.594 256.030,162.475 240.610 C 162.356 225.190,162.259 238.035,162.259 269.155 M158.768 330.171 C 158.725 332.376,160.293 332.461,200.786 332.461 C 240.794 332.461,242.829 332.357,242.829 330.312 C 242.829 329.337,242.640 329.350,241.594 330.396 C 239.599 332.391,161.356 332.257,159.837 330.255 C 158.901 329.023,158.790 329.014,158.768 330.171 " stroke="none" fill="#ededed" fill-rule="evenodd"></path><path id="path9" d="M197.552 54.406 C 196.305 55.371,195.167 56.432,195.023 56.764 C 194.879 57.096,194.260 57.367,193.648 57.367 C 193.035 57.367,192.534 57.658,192.534 58.014 C 192.534 58.370,190.678 60.135,188.409 61.935 C 186.139 63.736,183.769 65.655,183.141 66.200 C 181.490 67.632,177.467 70.815,174.440 73.084 C 172.999 74.165,171.018 75.756,170.038 76.621 C 169.057 77.485,167.237 78.979,165.994 79.940 C 164.750 80.901,162.768 82.581,161.590 83.673 C 160.411 84.765,159.326 85.658,159.178 85.658 C 159.030 85.658,157.773 86.719,156.385 88.016 C 154.997 89.312,153.575 90.373,153.226 90.373 C 152.877 90.373,151.393 91.523,149.930 92.927 C 148.466 94.332,146.285 96.189,145.083 97.053 C 143.881 97.917,142.241 99.155,141.437 99.804 C 137.920 102.641,133.271 106.562,132.350 107.466 C 131.800 108.006,130.971 108.448,130.508 108.448 C 130.045 108.448,129.666 108.759,129.666 109.139 C 129.666 109.520,127.633 111.352,125.147 113.210 C 122.662 115.069,120.346 117.056,120.000 117.627 C 119.655 118.197,118.944 118.664,118.421 118.664 C 117.898 118.664,117.029 119.371,116.489 120.236 C 115.949 121.100,115.068 121.817,114.532 121.829 C 113.995 121.840,111.611 123.605,109.234 125.750 C 106.857 127.895,104.554 129.919,104.118 130.248 C 100.683 132.830,95.079 137.442,93.171 139.257 C 91.900 140.465,90.527 141.454,90.120 141.454 C 89.712 141.454,88.807 142.085,88.108 142.857 C 87.035 144.041,81.760 148.413,77.949 151.277 C 77.374 151.709,76.319 152.682,75.605 153.438 C 74.891 154.194,73.982 154.813,73.584 154.813 C 73.187 154.813,71.848 155.874,70.609 157.171 C 69.370 158.468,68.084 159.528,67.751 159.528 C 67.419 159.528,66.563 160.147,65.849 160.904 C 64.296 162.549,63.010 163.627,58.481 167.085 C 51.336 172.538,50.986 173.206,53.845 175.917 C 54.918 176.935,55.796 178.047,55.796 178.387 C 55.796 179.864,58.184 179.724,59.951 178.144 C 61.009 177.198,64.425 174.479,67.543 172.102 C 70.660 169.725,74.091 166.979,75.167 165.999 C 76.242 165.019,77.452 164.421,77.854 164.670 C 78.831 165.274,78.790 168.739,77.800 169.352 C 76.236 170.318,76.859 180.591,78.585 182.318 C 80.136 183.869,80.157 184.938,80.157 262.279 L 80.157 340.668 200.786 340.668 L 321.415 340.668 321.501 266.405 C 321.589 189.996,321.649 185.049,322.594 175.561 C 323.033 171.163,322.884 169.468,321.889 167.545 C 318.963 161.886,320.414 160.662,325.091 164.844 C 326.897 166.459,330.937 169.725,334.070 172.102 C 337.202 174.479,340.544 177.225,341.496 178.204 C 343.101 179.854,345.776 179.968,345.776 178.387 C 345.776 178.047,346.654 176.935,347.727 175.917 C 350.682 173.115,349.678 171.658,340.134 164.897 C 334.107 160.628,334.541 164.209,334.244 116.306 L 333.979 73.477 316.241 73.477 L 298.503 73.477 298.133 86.444 C 297.929 93.576,297.677 104.892,297.572 111.591 C 297.286 129.970,296.781 131.107,291.468 125.344 C 289.675 123.399,287.811 121.806,287.326 121.804 C 286.841 121.802,285.077 120.545,283.406 119.010 C 281.736 117.476,278.465 114.783,276.137 113.026 C 273.810 111.268,271.906 109.520,271.906 109.139 C 271.906 108.759,271.502 108.448,271.008 108.448 C 270.515 108.448,269.097 107.387,267.858 106.090 C 266.619 104.794,265.333 103.733,265.001 103.733 C 264.668 103.733,263.812 103.114,263.098 102.358 C 261.653 100.827,261.094 100.371,256.582 97.049 C 254.853 95.776,252.544 93.842,251.451 92.750 C 250.358 91.659,248.413 90.092,247.129 89.267 C 245.844 88.443,244.511 87.294,244.165 86.713 C 243.820 86.133,243.201 85.658,242.790 85.658 C 242.379 85.658,241.399 85.039,240.611 84.283 C 237.221 81.028,234.144 78.585,233.433 78.585 C 233.013 78.585,232.290 77.878,231.827 77.014 C 231.364 76.149,230.629 75.442,230.192 75.442 C 229.755 75.442,228.571 74.646,227.560 73.674 C 226.549 72.701,224.394 70.845,222.771 69.548 C 221.148 68.251,219.428 66.837,218.948 66.405 C 218.467 65.972,216.041 64.073,213.556 62.183 C 211.071 60.294,209.037 58.437,209.037 58.058 C 209.037 57.678,208.507 57.367,207.859 57.367 C 207.210 57.367,206.677 57.102,206.674 56.778 C 206.648 53.865,200.363 52.231,197.552 54.406 M292.076 111.329 C 291.234 112.172,291.473 121.022,292.338 121.022 C 292.781 121.022,293.124 118.795,293.124 115.914 C 293.124 110.769,293.033 110.372,292.076 111.329 M242.849 207.124 C 243.687 209.330,243.958 325.004,243.134 329.125 C 242.444 332.573,243.866 332.461,200.786 332.461 C 156.669 332.461,158.990 332.693,158.350 328.221 C 157.211 320.256,158.305 206.650,159.528 205.877 C 160.231 205.433,177.133 205.127,201.395 205.120 L 242.082 205.108 242.849 207.124 M162.662 211.198 C 162.653 211.694,162.660 325.374,162.669 327.112 C 162.671 327.436,179.823 327.701,200.786 327.701 L 238.900 327.701 238.900 269.155 L 238.900 210.609 200.786 210.609 C 179.823 210.609,162.667 210.874,162.662 211.198 " stroke="none" fill="#ffffff" fill-rule="evenodd"></path></g></svg>