<svg id="svg" version="1.1" width="507" height="500" xmlns="http://www.w3.org/2000/svg" xmlns:xlink="http://www.w3.org/1999/xlink" style="display: block;"><g id="svgg"><path id="path0" d="M149.112 72.189 C 149.112 72.840,149.634 73.373,150.271 73.373 C 150.977 73.373,151.252 72.910,150.976 72.189 C 150.726 71.538,150.204 71.006,149.817 71.006 C 149.429 71.006,149.112 71.538,149.112 72.189 M127.548 114.135 C 126.589 115.094,127.003 115.934,128.205 115.473 C 128.856 115.223,129.389 114.702,129.389 114.314 C 129.389 113.487,128.302 113.381,127.548 114.135 M274.739 130.178 C 274.739 131.696,274.902 132.318,275.100 131.558 C 275.299 130.799,275.299 129.556,275.100 128.797 C 274.902 128.037,274.739 128.659,274.739 130.178 M265.089 162.123 C 265.089 162.835,265.802 163.309,266.864 163.302 C 269.073 163.286,271.168 162.029,270.348 161.210 C 270.012 160.873,269.412 161.120,269.015 161.759 C 268.419 162.716,268.012 162.745,266.691 161.926 C 265.350 161.095,265.089 161.127,265.089 162.123 M227.613 221.226 C 227.613 223.138,227.880 224.537,228.205 224.336 C 228.531 224.135,228.797 222.571,228.797 220.861 C 228.797 219.151,228.531 217.751,228.205 217.751 C 227.880 217.751,227.613 219.315,227.613 221.226 M235.108 234.199 C 235.108 235.356,240.744 240.725,241.645 240.425 C 243.330 239.863,242.958 238.635,240.631 237.081 C 239.332 236.213,238.268 235.059,238.267 234.517 C 238.265 233.974,237.554 233.531,236.686 233.531 C 235.819 233.531,235.108 233.831,235.108 234.199 M243.393 234.101 C 244.260 234.315,245.414 234.850,245.957 235.290 C 246.669 235.869,246.943 235.736,246.943 234.811 C 246.943 233.874,246.256 233.555,244.379 233.622 C 242.695 233.682,242.357 233.847,243.393 234.101 M153.057 236.376 C 153.057 237.279,153.455 237.477,154.438 237.064 C 159.178 235.071,160.358 235.771,157.791 239.053 C 155.857 241.526,155.824 242.163,157.654 241.685 C 159.093 241.308,161.736 237.610,161.736 235.973 C 161.736 235.451,160.016 235.108,157.396 235.108 C 153.937 235.108,153.057 235.366,153.057 236.376 M247.899 236.489 C 248.108 237.506,248.798 237.802,250.515 237.613 C 253.258 237.310,253.590 237.078,252.892 235.950 C 251.958 234.438,247.576 234.911,247.899 236.489 M149.112 238.321 C 149.112 238.786,148.580 239.699,147.929 240.349 C 145.783 242.496,146.342 249.178,148.718 249.775 C 150.615 250.251,150.690 250.509,150.690 256.554 C 150.690 262.119,150.848 262.805,152.071 262.556 C 155.706 261.816,152.345 247.798,148.521 247.745 C 146.533 247.718,147.439 242.972,149.901 240.510 C 152.699 237.712,152.761 237.475,150.690 237.475 C 149.822 237.475,149.112 237.856,149.112 238.321 M255.273 238.634 C 256.116 239.271,257.119 239.803,257.503 239.817 C 257.887 239.831,259.024 240.730,260.030 241.815 C 262.097 244.045,262.722 244.257,262.722 242.728 C 262.722 242.145,261.479 240.999,259.961 240.182 C 258.442 239.364,257.199 238.420,257.199 238.085 C 257.199 237.750,256.421 237.475,255.471 237.475 C 253.781 237.475,253.777 237.502,255.273 238.634 M244.800 242.737 C 245.008 244.307,245.604 245.045,246.808 245.223 C 249.139 245.566,248.961 243.749,246.488 241.948 L 244.505 240.504 244.800 242.737 M154.249 244.379 C 153.926 245.355,153.348 246.154,152.965 246.154 C 152.582 246.154,152.268 246.878,152.268 247.762 C 152.268 249.356,152.283 249.357,153.911 247.840 C 154.980 246.845,155.429 245.662,155.195 244.457 L 154.835 242.604 154.249 244.379 M249.310 245.759 C 249.310 246.496,250.055 246.943,251.282 246.943 C 252.367 246.943,253.254 247.313,253.254 247.765 C 253.254 249.098,255.781 251.237,259.305 252.889 C 261.869 254.091,262.679 254.953,262.979 256.801 C 263.191 258.105,263.744 260.592,264.208 262.327 C 264.672 264.063,265.060 267.702,265.070 270.414 C 265.088 275.241,265.134 275.345,267.219 275.345 C 268.876 275.345,269.139 275.135,268.402 274.398 C 267.853 273.849,267.456 271.218,267.456 268.133 C 267.456 265.208,267.101 262.596,266.667 262.327 C 266.233 262.059,265.878 260.618,265.878 259.125 C 265.878 257.632,265.523 256.410,265.089 256.410 C 264.655 256.410,264.300 255.950,264.300 255.387 C 264.300 254.824,262.436 252.687,260.158 250.639 C 254.075 245.170,249.310 243.026,249.310 245.759 M266.667 253.984 C 266.667 254.792,267.199 255.657,267.850 255.907 C 268.641 256.210,269.034 255.873,269.034 254.892 C 269.034 254.084,268.501 253.219,267.850 252.969 C 267.059 252.666,266.667 253.002,266.667 253.984 M256.410 284.024 C 256.410 284.458,255.966 284.824,255.424 284.839 C 254.081 284.875,251.323 287.265,250.677 288.955 C 250.386 289.714,249.782 290.335,249.334 290.335 C 248.887 290.335,248.521 291.755,248.521 293.491 C 248.521 295.227,248.166 296.647,247.732 296.647 C 247.298 296.647,246.943 297.535,246.943 298.619 C 246.943 299.704,247.298 300.592,247.732 300.592 C 248.166 300.592,248.521 301.809,248.521 303.297 C 248.521 304.784,249.053 306.534,249.704 307.185 C 250.355 307.836,250.888 308.597,250.888 308.876 C 250.888 309.706,253.073 311.637,254.012 311.637 C 254.490 311.637,255.086 312.170,255.336 312.821 C 255.613 313.541,256.760 313.986,258.270 313.958 C 260.505 313.916,260.602 313.818,259.255 312.971 C 250.296 307.338,247.572 301.782,250.093 294.284 C 252.698 286.537,257.150 283.982,266.812 284.688 C 280.046 285.654,282.414 307.366,269.767 311.775 C 268.496 312.218,267.456 312.901,267.456 313.292 C 267.456 314.463,271.130 314.097,272.189 312.821 C 272.730 312.170,273.515 311.637,273.935 311.637 C 274.941 311.637,277.652 308.358,277.686 307.101 C 277.700 306.558,278.067 306.114,278.501 306.114 C 278.972 306.114,279.290 303.090,279.290 298.619 C 279.290 294.149,278.972 291.124,278.501 291.124 C 278.067 291.124,277.712 290.700,277.712 290.181 C 277.712 288.885,273.710 284.813,272.436 284.813 C 271.867 284.813,271.400 284.458,271.400 284.024 C 271.400 283.553,268.376 283.235,263.905 283.235 C 259.435 283.235,256.410 283.553,256.410 284.024 M259.586 290.901 C 253.829 293.855,253.375 302.301,258.777 305.959 C 265.454 310.479,274.291 304.230,272.156 296.498 C 270.601 290.864,264.741 288.255,259.586 290.901 M123.077 305.447 C 123.077 307.600,124.882 319.191,125.372 320.181 C 129.200 327.921,132.470 332.150,134.625 332.150 C 135.712 332.150,135.449 331.586,133.429 329.586 C 128.801 325.002,126.056 319.041,125.623 312.634 C 125.390 309.185,124.810 306.571,124.157 306.029 C 123.563 305.536,123.077 305.274,123.077 305.447 M186.837 311.367 C 186.540 314.473,185.958 317.669,185.544 318.468 C 185.129 319.267,184.130 321.299,183.322 322.983 C 182.515 324.667,180.680 327.268,179.245 328.764 C 177.809 330.259,176.775 331.899,176.947 332.408 C 177.317 333.506,183.826 326.763,183.826 325.281 C 183.826 324.720,184.108 324.260,184.452 324.260 C 185.887 324.260,187.870 315.882,187.625 310.848 L 187.377 305.720 186.837 311.367 M262.130 315.337 C 262.890 315.535,264.132 315.535,264.892 315.337 C 265.651 315.138,265.030 314.976,263.511 314.976 C 261.992 314.976,261.371 315.138,262.130 315.337 " stroke="none" fill="#000000" fill-rule="evenodd"></path><path id="path1" d="" stroke="none" fill="#800000" fill-rule="evenodd"></path><path id="path2" d="M198.423 46.845 C 197.468 47.543,196.781 49.301,196.497 51.776 L 196.055 55.621 192.371 55.859 C 190.344 55.990,188.346 56.523,187.931 57.043 C 184.942 60.785,187.105 64.683,192.576 65.413 C 195.965 65.866,196.067 65.963,196.494 69.162 C 197.549 77.066,204.979 77.476,205.875 69.680 C 206.298 65.999,206.399 65.871,209.073 65.656 C 213.995 65.262,215.385 64.069,215.385 60.237 C 215.385 56.540,215.031 56.294,209.073 55.834 C 206.393 55.628,206.299 55.508,205.870 51.776 C 205.252 46.395,201.991 44.236,198.423 46.845 " stroke="none" fill="#e74424" fill-rule="evenodd"></path><path id="path3" d="M198.225 45.751 C 196.028 47.090,195.661 47.761,195.661 50.435 C 195.661 53.987,195.178 54.455,191.118 54.832 C 182.947 55.591,183.818 65.750,192.110 66.414 C 194.977 66.644,195.286 66.884,195.483 69.034 C 195.904 73.648,196.457 74.762,198.807 75.735 C 203.283 77.590,206.942 74.656,207.656 68.639 C 207.848 67.016,208.411 66.597,210.835 66.272 C 214.739 65.749,216.963 63.735,216.963 60.721 C 216.963 57.539,213.655 54.132,211.049 54.630 C 208.281 55.159,207.167 54.092,207.053 50.800 C 206.867 45.444,202.667 43.042,198.225 45.751 M203.944 46.845 C 204.899 47.543,205.586 49.301,205.870 51.776 C 206.299 55.508,206.393 55.628,209.073 55.834 C 215.031 56.294,215.385 56.540,215.385 60.237 C 215.385 64.069,213.995 65.262,209.073 65.656 C 206.399 65.871,206.298 65.999,205.875 69.680 C 204.979 77.476,197.549 77.066,196.494 69.162 C 196.067 65.963,195.965 65.866,192.576 65.413 C 187.105 64.683,184.942 60.785,187.931 57.043 C 188.346 56.523,190.344 55.990,192.371 55.859 L 196.055 55.621 196.497 51.776 C 197.115 46.395,200.376 44.236,203.944 46.845 " stroke="none" fill="#ff8080" fill-rule="evenodd"></path><path id="path4" d="M150.934 71.992 C 151.314 73.051,151.006 73.373,149.612 73.373 C 148.492 73.373,146.718 74.571,144.995 76.490 C 143.456 78.204,141.978 79.387,141.710 79.120 C 141.442 78.852,141.223 79.317,141.223 80.153 C 141.223 80.989,140.335 82.630,139.250 83.800 C 138.166 84.970,137.278 86.615,137.278 87.455 C 137.278 88.295,136.746 89.187,136.095 89.437 C 135.444 89.687,134.911 90.613,134.911 91.494 C 134.911 92.375,134.556 93.097,134.122 93.097 C 133.688 93.097,133.333 93.941,133.333 94.972 C 133.333 96.004,132.801 97.290,132.150 97.830 C 131.499 98.371,130.966 100.012,130.966 101.477 C 130.966 102.943,130.611 104.142,130.178 104.142 C 129.732 104.142,129.389 106.396,129.389 109.327 C 129.389 112.883,129.017 114.883,128.205 115.695 C 126.474 117.426,126.452 151.213,128.180 153.498 C 128.817 154.340,129.350 156.211,129.363 157.654 C 129.381 159.482,130.089 160.980,131.695 162.585 C 134.582 165.473,134.482 165.492,135.569 161.864 C 136.814 157.706,139.285 155.414,140.021 157.733 C 141.890 163.620,144.204 158.251,145.148 145.841 C 146.297 130.740,147.157 128.379,153.948 121.696 C 159.790 115.947,163.060 116.603,159.409 122.792 C 158.473 124.378,158.008 125.977,158.376 126.344 C 158.924 126.892,176.189 116.906,177.515 115.274 C 180.498 111.603,186.193 109.734,186.193 112.426 C 186.193 113.511,185.838 114.398,185.404 114.398 C 184.970 114.398,184.615 114.876,184.615 115.460 C 184.615 116.043,183.905 117.163,183.037 117.949 C 171.902 128.027,212.384 112.782,225.042 102.131 C 226.306 101.067,227.783 100.197,228.325 100.197 C 229.666 100.197,244.576 121.493,244.576 123.410 C 244.576 123.577,245.851 125.967,247.409 128.721 C 252.072 136.963,254.070 142.697,254.589 149.320 C 255.292 158.312,259.520 160.008,259.578 151.321 C 259.629 143.665,264.591 150.181,265.435 159.014 C 265.814 162.971,270.611 162.895,270.611 158.932 C 270.611 157.963,271.144 156.966,271.795 156.717 C 272.609 156.404,272.978 155.132,272.978 152.636 C 272.978 150.641,273.403 148.233,273.923 147.285 C 275.103 145.131,275.010 127.949,273.812 126.750 C 273.353 126.292,272.978 123.706,272.978 121.003 C 272.978 117.687,272.593 115.704,271.795 114.906 C 271.144 114.255,270.611 112.653,270.611 111.346 C 270.611 110.038,270.256 108.749,269.822 108.481 C 269.389 108.213,269.034 106.975,269.034 105.730 C 269.034 104.485,268.501 102.933,267.850 102.282 C 267.199 101.631,266.667 100.384,266.667 99.511 C 266.667 98.638,266.312 97.704,265.878 97.436 C 265.444 97.168,265.089 96.248,265.089 95.392 C 265.089 94.536,264.556 93.632,263.905 93.382 C 263.254 93.132,262.722 92.462,262.722 91.893 C 262.722 90.549,260.137 86.008,259.369 86.001 C 259.043 85.998,258.777 85.464,258.777 84.813 C 258.777 84.162,258.422 83.629,257.988 83.629 C 257.554 83.629,257.199 83.097,257.199 82.446 C 257.199 81.795,256.667 81.262,256.016 81.262 C 255.365 81.262,254.832 80.664,254.832 79.933 C 254.832 77.865,251.793 75.068,250.044 75.525 C 249.206 75.744,248.521 76.531,248.521 77.274 C 248.521 79.815,243.721 85.874,239.628 88.500 L 235.539 91.124 201.596 91.124 C 160.254 91.124,159.713 90.963,153.745 76.817 C 151.755 72.098,149.718 68.603,150.934 71.992 M234.320 234.384 C 234.320 235.694,238.175 239.559,241.590 241.673 C 244.229 243.306,244.576 243.318,244.576 241.778 C 244.576 240.240,248.456 242.790,248.496 244.354 C 248.510 244.883,249.056 245.110,249.711 244.859 C 252.221 243.896,264.300 252.661,264.300 255.445 C 264.300 255.976,264.655 256.410,265.089 256.410 C 265.523 256.410,265.878 257.632,265.878 259.125 C 265.878 260.618,266.233 262.059,266.667 262.327 C 267.101 262.596,267.456 265.208,267.456 268.133 C 267.456 271.218,267.853 273.849,268.402 274.398 C 269.139 275.135,268.876 275.345,267.219 275.345 C 265.134 275.345,265.088 275.241,265.070 270.414 C 265.060 267.702,264.672 264.063,264.208 262.327 C 263.744 260.592,263.187 258.107,262.971 256.805 C 262.680 255.052,261.829 254.068,259.691 253.014 L 256.805 251.590 258.958 253.408 C 261.456 255.518,263.281 261.610,264.034 270.357 C 264.482 275.560,264.682 276.059,266.497 276.515 C 269.801 277.344,270.073 276.136,268.601 267.164 C 267.496 260.432,267.423 258.584,268.221 257.622 C 269.030 256.647,268.979 256.340,267.939 255.941 C 267.197 255.656,266.667 254.552,266.667 253.291 C 266.667 246.766,256.330 236.663,250.789 237.771 C 248.881 238.153,248.332 237.918,247.751 236.476 C 247.362 235.507,247.020 235.024,246.993 235.402 C 246.965 235.781,246.499 235.722,245.957 235.272 C 245.414 234.822,243.462 234.229,241.617 233.954 C 237.526 233.344,237.093 234.717,240.631 237.081 C 242.929 238.616,243.332 239.862,241.705 240.405 C 240.786 240.711,237.677 237.989,235.681 235.130 C 234.786 233.848,234.320 233.592,234.320 234.384 M160.725 238.199 C 159.953 239.876,158.622 241.432,157.767 241.655 C 155.806 242.168,155.821 241.820,157.877 238.932 C 159.983 235.975,159.326 235.314,155.601 236.643 C 150.021 238.634,144.248 247.686,148.521 247.745 C 152.345 247.798,155.706 261.816,152.071 262.556 C 150.848 262.805,150.690 262.120,150.690 256.560 C 150.690 250.867,150.538 250.243,149.050 249.854 C 147.738 249.511,147.528 249.690,147.999 250.748 C 148.323 251.476,148.798 254.452,149.053 257.362 C 149.608 263.677,150.535 264.983,153.506 263.630 C 155.528 262.708,155.561 262.576,154.936 257.773 C 154.585 255.071,154.284 251.706,154.269 250.296 C 154.240 247.695,153.516 246.921,152.791 248.718 C 152.572 249.260,152.365 248.905,152.331 247.929 C 152.296 246.953,152.582 246.154,152.965 246.154 C 153.348 246.154,153.913 245.355,154.219 244.379 L 154.776 242.604 155.297 244.350 C 155.849 246.200,163.314 238.530,163.314 236.112 C 163.314 234.203,162.124 235.162,160.725 238.199 M255.514 283.072 C 247.318 287.340,243.631 298.076,247.652 305.959 C 254.850 320.068,273.507 319.703,280.015 305.325 C 286.737 290.476,270.178 275.435,255.514 283.072 M271.400 284.024 C 271.400 284.458,271.867 284.813,272.436 284.813 C 273.710 284.813,277.712 288.885,277.712 290.181 C 277.712 290.700,278.067 291.124,278.501 291.124 C 278.972 291.124,279.290 294.149,279.290 298.619 C 279.290 303.090,278.972 306.114,278.501 306.114 C 278.067 306.114,277.700 306.558,277.686 307.101 C 277.652 308.358,274.941 311.637,273.935 311.637 C 273.515 311.637,272.730 312.170,272.189 312.821 C 271.130 314.097,267.456 314.463,267.456 313.292 C 267.456 312.901,268.496 312.218,269.767 311.775 C 282.414 307.366,280.046 285.654,266.812 284.688 C 247.384 283.269,242.296 302.308,259.255 312.971 C 260.602 313.818,260.505 313.916,258.270 313.958 C 256.760 313.986,255.613 313.541,255.336 312.821 C 255.086 312.170,254.490 311.637,254.012 311.637 C 253.073 311.637,250.888 309.706,250.888 308.876 C 250.888 308.597,250.355 307.836,249.704 307.185 C 249.053 306.534,248.521 304.784,248.521 303.297 C 248.521 301.809,248.166 300.592,247.732 300.592 C 247.298 300.592,246.943 299.704,246.943 298.619 C 246.943 297.535,247.298 296.647,247.732 296.647 C 248.166 296.647,248.521 295.227,248.521 293.491 C 248.521 291.755,248.887 290.335,249.334 290.335 C 249.782 290.335,250.386 289.714,250.677 288.955 C 251.323 287.265,254.081 284.875,255.424 284.839 C 255.966 284.824,256.410 284.458,256.410 284.024 C 256.410 283.553,259.435 283.235,263.905 283.235 C 268.376 283.235,271.400 283.553,271.400 284.024 M269.626 292.116 C 272.191 294.501,273.160 298.637,271.870 301.685 C 267.177 312.768,251.474 306.580,255.712 295.318 C 257.810 289.739,265.235 288.030,269.626 292.116 M122.288 307.585 C 122.288 318.409,131.610 336.650,135.814 334.052 C 137.089 333.264,136.487 330.685,134.693 329.249 C 130.243 325.686,126.233 317.039,126.233 311.005 C 126.233 307.101,125.127 304.536,123.444 304.536 C 122.628 304.536,122.288 305.434,122.288 307.585 M186.747 305.035 C 186.442 305.339,186.193 306.983,186.193 308.689 C 186.193 315.499,183.010 323.403,178.138 328.688 C 175.499 331.551,175.119 332.348,175.927 333.322 C 178.162 336.014,185.074 327.614,187.766 318.933 C 190.463 310.238,189.853 301.928,186.747 305.035 M125.623 312.634 C 126.056 319.041,128.801 325.002,133.429 329.586 C 135.449 331.586,135.712 332.150,134.625 332.150 C 132.470 332.150,129.200 327.921,125.372 320.181 C 124.882 319.191,123.077 307.600,123.077 305.447 C 123.077 305.274,123.563 305.536,124.157 306.029 C 124.810 306.571,125.390 309.185,125.623 312.634 M186.476 320.118 C 185.707 322.396,184.796 324.260,184.452 324.260 C 184.108 324.260,183.826 324.720,183.826 325.281 C 183.826 326.763,177.317 333.506,176.947 332.408 C 176.775 331.899,177.809 330.259,179.245 328.764 C 180.680 327.268,182.515 324.667,183.322 322.983 C 184.130 321.299,185.129 319.267,185.544 318.468 C 185.958 317.669,186.540 314.473,186.837 311.367 L 187.377 305.720 187.625 310.848 C 187.791 314.258,187.406 317.364,186.476 320.118 M264.892 315.337 C 264.132 315.535,262.890 315.535,262.130 315.337 C 261.371 315.138,261.992 314.976,263.511 314.976 C 265.030 314.976,265.651 315.138,264.892 315.337 " stroke="none" fill="#664b3a" fill-rule="evenodd"></path><path id="path5" d="M151.479 71.251 C 151.479 72.833,156.578 82.731,158.456 84.795 C 164.342 91.263,163.399 91.124,201.596 91.124 L 235.539 91.124 239.628 88.500 C 243.784 85.834,248.521 79.805,248.521 77.182 C 248.521 76.389,249.053 75.740,249.704 75.740 C 250.355 75.740,250.888 75.355,250.888 74.885 C 250.888 73.082,248.892 74.820,246.973 78.292 C 240.396 90.197,237.122 91.010,197.633 90.553 C 162.026 90.140,157.364 88.383,154.248 74.194 C 153.878 72.510,151.479 69.960,151.479 71.251 M225.042 102.131 C 212.384 112.782,171.902 128.027,183.037 117.949 C 183.905 117.163,184.615 116.043,184.615 115.460 C 184.615 114.876,184.970 114.398,185.404 114.398 C 185.838 114.398,186.193 113.511,186.193 112.426 C 186.193 109.734,180.498 111.603,177.515 115.274 C 176.189 116.906,158.924 126.892,158.376 126.344 C 158.008 125.977,158.473 124.378,159.409 122.792 C 163.060 116.603,159.790 115.947,153.948 121.696 C 147.157 128.379,146.297 130.740,145.148 145.841 C 144.205 158.236,141.890 163.620,140.026 157.749 C 139.363 155.661,137.525 157.010,135.972 160.724 C 134.222 164.913,134.786 165.520,136.998 161.828 C 138.713 158.966,139.195 158.592,139.791 159.659 C 142.593 164.665,146.002 158.708,146.458 148.009 C 147.076 133.510,148.933 127.992,155.110 122.298 C 159.088 118.632,160.672 119.031,157.853 122.990 C 151.986 131.229,160.598 128.691,176.249 117.568 C 184.351 111.810,187.930 111.846,181.780 117.624 C 178.234 120.955,180.128 123.777,185.140 122.628 C 195.531 120.247,212.551 112.305,223.308 104.819 C 229.066 100.812,228.326 100.414,235.624 111.440 C 247.282 129.051,251.878 139.102,253.544 150.625 C 254.636 158.177,255.974 159.934,258.731 157.438 C 259.645 156.611,260.355 154.988,260.355 153.724 C 260.355 149.375,262.559 151.980,263.964 157.988 C 264.243 159.181,264.829 160.158,265.266 160.158 C 265.720 160.158,265.837 159.396,265.538 158.383 C 265.251 157.406,264.545 154.895,263.969 152.803 C 262.304 146.745,259.615 145.837,259.578 151.321 C 259.520 160.008,255.292 158.312,254.589 149.320 C 254.070 142.697,252.072 136.963,247.409 128.721 C 245.851 125.967,244.576 123.577,244.576 123.410 C 244.576 121.493,229.666 100.197,228.325 100.197 C 227.783 100.197,226.306 101.067,225.042 102.131 M227.418 221.302 C 227.427 223.037,227.588 223.655,227.777 222.673 C 227.966 221.692,227.958 220.272,227.761 219.517 C 227.564 218.763,227.409 219.566,227.418 221.302 M232.742 234.612 C 232.742 236.209,238.470 241.484,241.528 242.703 C 244.135 243.743,244.149 243.737,242.338 242.393 C 237.904 239.105,234.320 235.630,234.320 234.622 C 234.320 234.022,233.964 233.531,233.531 233.531 C 233.097 233.531,232.742 234.017,232.742 234.612 M161.955 238.484 C 160.991 239.882,158.896 242.544,157.299 244.400 C 153.208 249.154,155.809 247.621,160.423 242.558 C 162.522 240.255,164.119 237.825,163.973 237.157 C 163.786 236.300,163.192 236.691,161.955 238.484 M154.169 251.282 C 154.384 253.018,154.798 256.289,155.090 258.552 C 155.597 262.489,155.527 262.709,153.463 263.649 C 150.476 265.010,149.116 263.015,149.100 257.246 C 149.094 254.834,148.790 252.390,148.426 251.816 C 147.794 250.819,148.090 262.011,148.751 264.103 C 148.942 264.705,150.487 265.089,152.722 265.089 C 155.651 265.089,156.291 265.325,155.928 266.272 C 155.611 267.098,155.986 267.456,157.168 267.456 C 158.100 267.456,160.130 267.855,161.680 268.343 C 170.187 271.021,174.023 272.490,174.513 273.258 C 174.815 273.730,175.292 273.886,175.573 273.605 C 176.647 272.532,169.292 268.238,164.786 267.307 C 162.240 266.781,160.158 266.067,160.158 265.720 C 160.158 265.373,159.270 265.089,158.185 265.089 C 156.278 265.089,156.213 264.915,156.201 259.763 C 156.195 256.834,155.647 253.018,154.984 251.282 L 153.778 248.126 154.169 251.282 M260.269 256.852 C 261.070 258.995,262.178 264.300,262.734 268.639 C 263.820 277.128,264.144 277.682,268.047 277.700 L 270.611 277.712 270.611 273.539 C 270.611 271.243,270.060 267.250,269.387 264.665 C 268.714 262.079,268.339 259.291,268.554 258.468 C 268.838 257.382,268.708 257.209,268.079 257.838 C 267.450 258.467,267.590 261.006,268.592 267.108 C 270.073 276.136,269.804 277.345,266.497 276.515 C 264.682 276.059,264.482 275.560,264.034 270.357 C 263.440 263.459,261.471 255.630,259.942 254.090 C 259.106 253.248,259.191 253.962,260.269 256.852 M141.672 268.647 C 138.185 270.416,134.911 273.050,134.911 274.087 C 134.911 274.299,136.900 273.426,139.331 272.147 C 141.761 270.869,144.513 269.817,145.445 269.810 C 147.722 269.794,149.440 268.624,148.772 267.544 C 147.932 266.183,145.908 266.498,141.672 268.647 M260.473 279.938 C 248.253 281.108,240.608 297.928,247.624 308.209 C 258.565 324.241,282.446 317.686,282.446 298.650 C 282.446 286.914,272.861 278.751,260.473 279.938 M269.336 281.832 C 278.752 284.628,284.079 296.347,280.015 305.325 C 274.678 317.115,260.210 320.070,251.400 311.169 C 238.225 297.857,251.298 276.475,269.336 281.832 M121.676 303.929 C 117.983 308.379,126.622 330.925,133.412 334.559 C 135.901 335.891,135.104 334.439,131.789 331.601 C 125.359 326.097,118.711 304.536,123.444 304.536 C 125.127 304.536,126.233 307.101,126.233 311.005 C 126.233 314.921,128.438 321.498,130.920 324.984 C 133.322 328.358,137.204 332.119,137.608 331.465 C 137.796 331.162,136.895 330.074,135.606 329.048 C 131.010 325.389,128.142 318.944,127.049 309.817 C 126.695 306.863,126.278 304.333,126.122 304.195 C 125.043 303.239,122.381 303.080,121.676 303.929 M186.785 303.811 C 185.867 304.345,185.401 305.593,185.395 307.534 C 185.373 314.246,182.048 322.801,177.575 327.654 C 173.606 331.960,173.329 333.449,177.187 329.741 C 182.290 324.836,185.839 316.479,186.383 308.087 C 186.549 305.525,186.885 304.931,188.166 304.931 C 193.361 304.931,186.945 325.449,179.561 332.451 C 177.785 334.135,177.094 335.118,178.026 334.636 C 183.840 331.626,189.025 321.841,190.212 311.637 C 191.168 303.424,190.412 301.698,186.785 303.811 " stroke="none" fill="#9d8a7b" fill-rule="evenodd"></path><path id="path6" d="M136.248 333.210 C 134.897 335.272,135.734 337.984,138.196 339.521 C 140.269 340.814,145.957 337.959,145.957 335.625 C 145.957 331.577,138.529 329.729,136.248 333.210 M167.407 332.970 C 165.436 334.806,165.411 334.906,166.439 336.827 C 168.598 340.861,175.254 340.502,176.310 336.295 C 177.399 331.956,171.044 329.582,167.407 332.970 " stroke="none" fill="#e59f1f" fill-rule="evenodd"></path><path id="path7" d="M150.493 30.290 C 149.734 30.866,149.112 31.742,149.112 32.237 C 149.112 32.731,148.580 33.136,147.929 33.136 C 147.278 33.136,146.746 33.669,146.746 34.320 C 146.746 34.970,146.391 35.503,145.957 35.503 C 145.523 35.503,145.168 36.923,145.168 38.659 C 145.168 40.688,144.831 41.744,144.226 41.617 C 142.714 41.301,142.454 48.043,143.955 48.619 C 144.817 48.950,145.168 50.200,145.168 52.944 C 145.168 55.068,145.523 56.805,145.957 56.805 C 146.391 56.805,146.746 58.058,146.746 59.591 C 146.746 61.340,147.186 62.546,147.929 62.831 C 148.735 63.140,149.112 64.403,149.112 66.792 C 149.112 69.963,149.335 70.377,151.430 71.107 C 153.042 71.669,153.899 72.607,154.246 74.188 C 157.364 88.384,162.022 90.140,197.633 90.553 C 236.936 91.008,241.132 89.967,246.950 78.318 C 247.906 76.403,249.183 74.647,249.788 74.415 C 250.393 74.183,250.888 73.487,250.888 72.869 C 250.888 72.251,251.420 71.541,252.071 71.291 C 252.838 70.997,253.254 69.773,253.254 67.812 C 253.254 66.149,253.609 64.568,254.043 64.300 C 254.477 64.032,254.832 62.743,254.832 61.436 C 254.832 60.128,255.365 58.526,256.016 57.875 C 256.667 57.225,257.199 55.496,257.199 54.034 C 257.199 52.571,257.554 51.156,257.988 50.888 C 258.422 50.619,258.777 47.936,258.777 44.924 C 258.777 41.799,258.438 39.448,257.988 39.448 C 257.554 39.448,257.199 38.763,257.199 37.926 C 257.199 37.089,255.644 34.782,253.744 32.798 L 250.288 29.191 201.081 29.216 C 161.414 29.237,151.606 29.445,150.493 30.290 M204.812 46.021 C 206.369 47.360,206.979 48.661,207.053 50.800 C 207.167 54.092,208.281 55.159,211.049 54.630 C 213.655 54.132,216.963 57.539,216.963 60.721 C 216.963 63.735,214.739 65.749,210.835 66.272 C 208.411 66.597,207.848 67.016,207.656 68.639 C 206.942 74.656,203.283 77.590,198.807 75.735 C 196.457 74.762,195.904 73.648,195.483 69.034 C 195.286 66.884,194.977 66.644,192.110 66.414 C 183.818 65.750,182.947 55.591,191.118 54.832 C 195.178 54.455,195.661 53.987,195.661 50.435 C 195.661 45.230,200.935 42.686,204.812 46.021 M225.230 103.946 C 223.503 105.190,221.558 106.458,220.907 106.763 C 220.256 107.069,217.949 108.385,215.779 109.688 C 210.225 113.024,198.227 118.765,194.477 119.881 C 192.742 120.397,190.587 121.176,189.688 121.611 C 184.143 124.298,176.817 121.354,180.908 118.082 C 183.278 116.187,184.951 112.821,183.523 112.821 C 182.822 112.821,182.249 113.120,182.249 113.485 C 182.249 113.851,181.006 114.819,179.487 115.637 C 177.968 116.455,176.726 117.398,176.726 117.734 C 176.726 118.069,176.435 118.343,176.079 118.343 C 175.723 118.343,172.532 120.251,168.988 122.583 C 157.005 130.466,152.638 130.579,157.981 122.868 C 160.829 118.759,158.918 118.645,154.865 122.682 C 148.577 128.945,147.954 130.839,146.777 147.264 C 145.928 159.102,143.472 163.669,139.884 160.081 C 139.255 159.452,138.455 160.043,136.964 162.236 C 134.915 165.252,134.220 168.836,135.685 168.836 C 136.111 168.836,136.682 169.813,136.954 171.006 C 137.700 174.273,139.864 179.093,140.586 179.093 C 140.936 179.093,141.223 179.638,141.223 180.304 C 141.223 180.970,141.786 182.375,142.474 183.425 C 143.163 184.475,143.497 185.706,143.217 186.159 C 142.937 186.612,143.223 186.982,143.852 186.982 C 144.482 186.982,145.199 187.788,145.446 188.773 C 145.693 189.758,146.544 191.267,147.336 192.126 C 148.128 192.985,149.250 194.842,149.829 196.252 C 150.408 197.663,151.311 198.817,151.836 198.817 C 152.361 198.817,153.223 199.624,153.751 200.611 C 154.279 201.598,155.758 203.107,157.038 203.964 C 158.317 204.821,159.365 205.966,159.367 206.509 C 159.368 207.051,159.749 207.495,160.214 207.495 C 161.306 207.495,163.314 209.502,163.314 210.595 C 163.314 211.059,163.757 211.351,164.300 211.243 C 164.842 211.134,165.197 211.489,165.089 212.032 C 164.977 212.590,165.672 213.018,166.689 213.018 C 171.176 213.018,173.586 223.997,169.921 227.746 C 169.108 228.579,167.736 230.221,166.874 231.395 C 166.012 232.570,164.842 233.531,164.274 233.531 C 163.541 233.531,163.376 234.273,163.704 236.095 C 164.125 238.429,163.738 239.083,159.385 243.393 C 155.110 247.624,154.655 248.377,155.093 250.493 C 155.362 251.795,155.752 255.632,155.959 259.020 L 156.336 265.180 152.527 264.937 L 148.718 264.694 148.254 257.922 C 147.999 254.198,147.534 250.736,147.221 250.230 C 146.376 248.863,142.801 249.076,142.801 250.493 C 142.801 251.144,142.112 251.677,141.269 251.677 C 140.427 251.677,139.519 252.032,139.250 252.465 C 138.982 252.899,137.541 253.254,136.048 253.254 C 134.297 253.254,133.403 253.605,133.531 254.241 C 133.642 254.795,132.778 255.336,131.558 255.476 C 130.365 255.614,129.389 256.058,129.389 256.463 C 129.389 256.868,128.501 257.199,127.416 257.199 C 126.277 257.199,125.527 257.608,125.641 258.167 C 125.750 258.699,124.982 259.264,123.935 259.422 C 122.888 259.580,121.547 260.195,120.954 260.788 C 120.361 261.381,119.399 261.683,118.817 261.460 C 118.234 261.236,117.546 261.606,117.286 262.282 C 117.027 262.958,116.094 263.511,115.212 263.511 C 114.331 263.511,113.609 263.866,113.609 264.300 C 113.609 264.734,112.925 265.089,112.088 265.089 C 111.251 265.089,110.034 265.621,109.383 266.272 C 108.732 266.923,107.811 267.456,107.337 267.456 C 106.338 267.456,99.930 271.508,99.540 272.387 C 99.395 272.712,98.651 272.978,97.885 272.978 C 96.263 272.978,93.097 275.517,93.097 276.818 C 93.097 277.310,92.209 277.712,91.124 277.712 C 89.897 277.712,89.152 278.159,89.152 278.895 C 89.152 279.546,88.717 279.990,88.184 279.882 C 87.652 279.773,87.095 280.483,86.946 281.460 C 86.797 282.436,86.345 283.235,85.941 283.235 C 85.537 283.235,85.207 283.767,85.207 284.418 C 85.207 285.069,84.675 285.602,84.024 285.602 C 83.287 285.602,82.840 286.347,82.840 287.574 C 82.840 288.659,82.485 289.546,82.051 289.546 C 80.967 289.546,80.967 354.754,82.051 355.424 C 82.485 355.692,82.840 356.402,82.840 357.002 C 82.840 358.695,89.741 365.286,91.514 365.286 C 92.395 365.286,93.097 365.811,93.097 366.469 C 93.097 367.198,93.837 367.653,95.022 367.653 C 96.082 367.653,97.168 368.008,97.436 368.442 C 98.111 369.534,300.592 369.534,300.592 368.442 C 300.592 368.008,301.490 367.653,302.589 367.653 C 303.687 367.653,304.790 367.120,305.040 366.469 C 305.290 365.819,306.166 365.286,306.988 365.286 C 307.809 365.286,308.481 364.931,308.481 364.497 C 308.481 364.063,309.014 363.708,309.665 363.708 C 310.316 363.708,310.848 363.176,310.848 362.525 C 310.848 361.874,311.253 361.341,311.747 361.341 C 313.074 361.341,314.739 358.840,314.768 356.805 C 314.782 355.815,315.229 355.117,315.779 355.227 C 317.405 355.552,317.610 290.459,315.985 289.835 C 315.329 289.583,314.793 288.657,314.793 287.777 C 314.793 286.897,313.905 285.354,312.821 284.349 C 311.736 283.344,310.848 281.794,310.848 280.906 C 310.848 279.995,310.331 279.290,309.665 279.290 C 309.014 279.290,308.481 278.960,308.481 278.556 C 308.481 278.152,307.682 277.700,306.706 277.551 C 305.730 277.402,305.020 276.845,305.128 276.313 C 305.237 275.781,304.793 275.345,304.142 275.345 C 303.491 275.345,302.959 274.997,302.959 274.571 C 302.959 274.146,302.071 273.575,300.986 273.302 C 299.901 273.030,299.014 272.491,299.014 272.104 C 299.014 271.717,298.481 271.400,297.830 271.400 C 297.179 271.400,296.647 271.024,296.647 270.565 C 296.647 270.105,296.292 269.949,295.858 270.217 C 295.424 270.485,295.069 270.385,295.069 269.995 C 295.069 269.605,293.667 268.824,291.954 268.258 C 290.241 267.693,288.655 266.748,288.429 266.159 C 288.203 265.571,287.318 265.089,286.462 265.089 C 285.606 265.089,284.686 264.734,284.418 264.300 C 284.150 263.866,283.230 263.511,282.374 263.511 C 281.519 263.511,280.614 262.978,280.364 262.327 C 280.114 261.677,279.411 261.144,278.800 261.144 C 278.190 261.144,277.074 260.815,276.321 260.413 C 275.567 260.010,274.307 259.480,273.520 259.235 C 272.733 258.989,272.310 258.431,272.580 257.994 C 272.862 257.538,272.199 257.199,271.028 257.199 C 268.225 257.199,267.888 258.671,269.355 264.518 C 270.046 267.274,270.611 271.370,270.611 273.620 L 270.611 277.712 268.047 277.700 C 264.145 277.682,263.821 277.130,262.721 268.639 C 261.276 257.478,258.859 251.677,255.654 251.677 C 255.202 251.677,254.832 251.144,254.832 250.493 C 254.832 249.711,254.050 249.310,252.529 249.310 C 249.396 249.310,245.422 246.942,244.854 244.736 C 244.597 243.740,244.222 243.089,244.021 243.290 C 242.344 244.967,232.742 236.860,232.742 233.767 C 232.742 231.773,231.120 229.586,229.642 229.586 C 229.177 229.586,228.797 229.083,228.797 228.468 C 228.797 227.853,228.355 227.203,227.816 227.023 C 225.448 226.234,227.185 215.385,229.679 215.385 C 230.547 215.385,231.036 215.027,230.766 214.590 C 230.496 214.153,230.919 213.552,231.705 213.254 C 232.492 212.955,233.609 212.245,234.186 211.674 C 234.763 211.103,235.558 210.836,235.952 211.079 C 236.346 211.323,236.457 210.971,236.198 210.297 C 235.940 209.624,236.053 209.073,236.450 209.073 C 237.575 209.073,246.943 200.009,246.943 198.921 C 246.943 198.388,247.830 197.130,248.915 196.124 C 250.000 195.119,250.888 193.872,250.888 193.354 C 250.888 192.836,251.193 192.601,251.566 192.831 C 251.940 193.062,252.900 191.663,253.701 189.722 C 254.501 187.781,255.421 186.193,255.746 186.193 C 256.071 186.193,256.917 184.862,257.627 183.235 C 258.337 181.607,259.419 179.334,260.031 178.182 C 260.643 177.030,261.144 175.521,261.144 174.829 C 261.144 174.137,261.499 173.570,261.933 173.570 C 262.367 173.570,262.722 172.339,262.722 170.833 C 262.722 168.891,263.024 168.213,263.763 168.496 C 265.396 169.123,265.317 162.061,263.635 157.046 C 262.109 152.496,260.367 150.875,260.337 153.978 C 260.284 159.568,254.526 160.650,253.743 155.217 C 253.541 153.812,253.023 150.063,252.591 146.885 C 251.486 138.740,238.862 114.372,230.527 104.294 L 228.369 101.685 225.230 103.946 M160.158 265.720 C 160.158 266.067,162.240 266.781,164.786 267.307 C 169.292 268.238,176.647 272.532,175.573 273.605 C 175.292 273.886,174.815 273.730,174.513 273.258 C 174.023 272.490,170.187 271.021,161.680 268.343 C 160.130 267.855,158.100 267.456,157.168 267.456 C 155.986 267.456,155.611 267.098,155.928 266.272 C 156.391 265.065,160.158 264.573,160.158 265.720 M148.772 267.544 C 149.440 268.624,147.722 269.794,145.445 269.810 C 144.513 269.817,141.761 270.869,139.331 272.147 C 134.627 274.622,134.051 274.624,136.346 272.161 C 139.632 268.634,147.613 265.669,148.772 267.544 M273.053 282.248 C 284.163 289.114,285.783 304.009,276.347 312.534 C 264.341 323.381,245.014 314.841,245.014 298.688 C 245.014 284.188,261.013 274.807,273.053 282.248 M126.122 304.195 C 126.278 304.333,126.695 306.863,127.049 309.817 C 128.512 322.030,133.502 330.115,139.647 330.229 C 146.697 330.359,149.261 336.509,143.542 339.571 C 139.715 341.620,136.840 340.829,135.137 337.257 C 134.418 335.750,133.560 334.517,133.231 334.517 C 132.901 334.517,131.039 332.562,129.092 330.172 C 120.568 319.709,117.968 296.969,126.122 304.195 M190.466 304.339 C 192.400 310.480,187.646 325.161,181.756 331.242 C 179.429 333.645,177.336 336.206,177.105 336.932 C 175.786 341.088,170.305 341.865,166.608 338.421 C 163.097 335.150,166.251 330.328,171.996 330.184 C 178.458 330.022,185.360 318.354,185.395 307.534 C 185.408 303.623,189.441 301.082,190.466 304.339 " stroke="none" fill="#f7f1e6" fill-rule="evenodd"></path><path id="path8" d="" stroke="none" fill="#ffff00" fill-rule="evenodd"></path><path id="path9" d="M138.385 330.449 C 138.695 330.950,139.832 331.361,140.911 331.361 C 141.990 331.361,143.744 332.232,144.809 333.297 C 145.989 334.478,146.746 334.821,146.746 334.177 C 146.746 332.790,143.434 330.659,140.308 330.034 C 138.531 329.679,137.983 329.797,138.385 330.449 M169.231 330.529 C 162.526 333.273,165.620 341.771,172.929 340.682 C 174.673 340.422,178.145 336.462,177.336 335.653 C 177.079 335.396,176.391 336.189,175.806 337.416 C 174.466 340.222,171.691 340.617,168.245 338.489 C 163.959 335.844,165.930 331.361,171.379 331.361 C 172.584 331.361,173.570 331.006,173.570 330.572 C 173.570 329.640,171.453 329.619,169.231 330.529 M135.300 337.661 C 137.384 341.691,145.477 341.131,146.541 336.884 C 146.773 335.956,146.661 335.976,146.021 336.977 C 143.732 340.561,136.898 340.758,136.021 337.266 C 135.751 336.188,135.203 335.306,134.805 335.306 C 134.407 335.306,134.630 336.366,135.300 337.661 " stroke="none" fill="#ffff80" fill-rule="evenodd"></path></g></svg>