<svg id="svg" version="1.1" width="510" height="500" xmlns="http://www.w3.org/2000/svg" xmlns:xlink="http://www.w3.org/1999/xlink" style="display: block;"><g id="svgg"><path id="path0" d="" stroke="none" fill="#000000" fill-rule="evenodd"></path><path id="path1" d="" stroke="none" fill="#808080" fill-rule="evenodd"></path><path id="path2" d="" stroke="none" fill="#aaaaaa" fill-rule="evenodd"></path><path id="path3" d="M156.979 169.517 C 156.455 170.355,155.686 170.830,155.268 170.572 C 154.851 170.314,154.510 170.823,154.510 171.703 C 154.510 174.828,160.790 174.732,161.408 171.598 C 161.833 169.444,158.115 167.697,156.979 169.517 M154.315 176.594 C 154.689 178.023,154.493 178.218,153.062 177.843 C 151.726 177.494,151.261 177.819,150.871 179.372 C 150.292 181.680,152.119 183.401,153.165 181.533 C 153.516 180.906,154.284 180.392,154.872 180.392 C 155.466 180.392,155.823 179.784,155.677 179.020 C 155.532 178.265,155.387 177.029,155.354 176.275 C 155.321 175.520,154.974 174.902,154.583 174.902 C 154.192 174.902,154.072 175.664,154.315 176.594 M310.348 283.639 C 309.649 284.338,310.478 285.490,311.680 285.490 C 312.230 285.490,312.680 284.961,312.680 284.314 C 312.680 283.124,311.271 282.716,310.348 283.639 M315.686 295.227 C 315.686 298.330,315.764 298.433,318.627 299.120 C 321.749 299.869,321.639 296.613,318.463 294.265 C 315.543 292.106,315.686 292.057,315.686 295.227 " stroke="none" fill="#d5d5d5" fill-rule="evenodd"></path><path id="path4" d="M147.348 42.984 C 143.867 46.602,144.578 60.820,148.311 62.230 C 149.564 62.702,150.588 63.541,150.588 64.094 C 150.588 64.646,151.294 65.098,152.157 65.098 C 153.203 65.098,153.725 65.621,153.725 66.667 C 153.725 67.538,154.248 68.235,154.902 68.235 C 155.549 68.235,156.078 68.765,156.078 69.412 C 156.078 70.345,157.211 70.588,161.569 70.588 L 167.059 70.588 167.059 72.966 C 167.059 74.356,167.548 75.531,168.235 75.795 C 170.017 76.478,170.017 148.235,168.235 148.235 C 167.588 148.235,167.059 148.741,167.059 149.359 C 167.059 149.977,166.353 150.707,165.490 150.980 C 164.627 151.254,163.922 151.984,163.922 152.602 C 163.922 153.220,163.347 153.725,162.645 153.725 C 161.586 153.725,161.433 154.393,161.746 157.647 C 162.100 161.330,162.013 161.569,160.310 161.569 C 158.720 161.569,158.524 161.906,158.714 164.314 C 158.836 165.860,158.564 167.071,158.092 167.087 C 157.632 167.103,158.314 167.981,159.608 169.039 C 162.808 171.655,161.631 173.745,156.991 173.682 C 154.831 173.652,154.008 173.908,154.467 174.466 C 155.736 176.012,156.036 180.392,154.873 180.392 C 154.285 180.392,153.521 180.833,153.176 181.373 C 152.831 181.912,152.108 182.388,151.569 182.431 C 148.214 182.700,148.064 182.790,148.463 184.314 C 148.767 185.477,148.487 185.882,147.378 185.882 C 146.555 185.882,145.882 186.412,145.882 187.059 C 145.882 188.128,144.937 188.590,143.303 188.318 C 142.332 188.157,142.837 200.317,143.829 200.968 C 144.311 201.285,143.580 201.550,142.203 201.557 C 140.827 201.563,139.482 201.922,139.216 202.353 C 138.949 202.784,138.378 203.137,137.947 203.137 C 137.515 203.137,137.380 202.784,137.647 202.353 C 137.914 201.922,137.829 201.569,137.458 201.569 C 135.988 201.569,134.902 203.595,134.902 206.340 C 134.902 208.607,134.550 209.321,133.270 209.656 C 132.142 209.951,131.684 210.645,131.788 211.904 C 132.146 216.240,131.803 217.051,129.412 217.529 C 127.116 217.989,127.059 218.113,127.059 222.634 C 127.059 228.459,126.214 228.211,146.078 228.225 L 161.569 228.235 161.569 231.102 C 161.569 233.829,161.499 233.906,160.134 232.671 C 158.078 230.810,125.700 230.698,124.990 232.549 C 124.741 233.196,123.870 233.725,123.053 233.725 C 122.237 233.725,121.569 234.255,121.569 234.902 C 121.569 235.724,120.741 236.078,118.824 236.078 L 116.078 236.078 116.078 240.000 C 116.078 242.963,115.791 243.922,114.902 243.922 C 114.017 243.922,113.725 244.870,113.725 247.756 C 113.725 251.517,113.673 251.600,110.980 252.105 C 107.721 252.717,106.673 260.189,109.608 261.898 C 110.747 262.561,110.550 262.701,108.454 262.721 C 106.270 262.742,105.838 263.090,105.267 265.293 C 104.853 266.891,104.041 267.939,103.088 268.104 C 102.252 268.249,101.216 268.801,100.784 269.330 C 100.353 269.860,99.382 270.525,98.627 270.808 C 97.605 271.192,97.255 272.208,97.255 274.793 C 97.255 277.154,96.879 278.408,96.078 278.715 C 95.168 279.064,94.902 280.590,94.902 285.466 L 94.902 291.765 111.961 291.941 L 129.020 292.118 108.235 292.529 L 87.451 292.941 87.203 295.098 C 87.032 296.585,86.504 297.255,85.502 297.255 C 82.324 297.255,81.569 298.113,81.569 301.726 C 81.569 304.562,81.270 305.323,80.030 305.647 C 78.775 305.976,78.505 306.699,78.563 309.583 C 78.638 313.335,77.680 314.577,75.207 313.930 C 74.088 313.637,73.725 313.962,73.725 315.259 C 73.725 316.203,73.196 317.504,72.549 318.151 C 71.035 319.665,71.035 322.273,72.549 322.854 C 74.030 323.422,74.089 324.706,72.633 324.706 C 70.173 324.706,69.825 331.002,72.157 333.333 C 73.020 334.196,73.725 335.454,73.725 336.128 C 73.725 336.825,74.317 337.293,75.098 337.214 C 77.643 336.955,78.324 337.249,78.824 338.824 C 79.097 339.686,79.827 340.392,80.445 340.392 C 81.063 340.392,81.569 340.922,81.569 341.569 C 81.569 342.216,82.098 342.745,82.745 342.745 C 83.392 342.745,83.922 343.275,83.922 343.922 C 83.922 344.575,84.619 345.098,85.490 345.098 C 86.536 345.098,87.059 345.621,87.059 346.667 C 87.059 348.073,87.582 348.235,92.107 348.235 L 97.156 348.235 97.401 350.784 L 97.647 353.333 205.316 353.537 C 307.477 353.731,313.011 353.671,313.511 352.361 C 314.288 350.328,316.678 347.962,318.179 347.742 C 318.900 347.636,319.799 346.998,320.176 346.324 C 320.554 345.650,321.551 345.098,322.392 345.098 C 323.247 345.098,323.922 344.565,323.922 343.889 C 323.922 343.224,324.615 341.935,325.463 341.025 C 326.311 340.115,326.835 339.095,326.627 338.759 C 326.119 337.937,327.292 337.283,329.618 337.090 L 331.533 336.932 331.697 324.538 C 331.837 313.929,331.685 312.077,330.636 311.675 C 329.913 311.397,329.412 310.266,329.412 308.911 C 329.412 307.460,328.913 306.426,328.055 306.097 C 327.309 305.810,325.614 304.392,324.288 302.945 C 322.962 301.497,320.484 299.834,318.782 299.248 L 315.686 298.183 315.811 292.673 C 315.912 288.221,315.724 287.244,314.831 287.587 C 314.054 287.885,313.725 287.403,313.725 285.966 C 313.725 284.842,313.352 283.922,312.895 283.922 C 312.438 283.922,312.303 284.308,312.596 284.781 C 312.917 285.302,312.610 285.534,311.816 285.370 C 310.010 284.996,310.185 283.583,312.073 283.286 C 313.050 283.132,313.579 282.481,313.506 281.521 C 313.401 280.128,312.728 279.662,311.176 279.907 C 310.853 279.958,310.588 279.647,310.588 279.216 C 310.588 278.784,310.085 278.431,309.469 278.431 C 308.054 278.431,307.519 276.096,308.540 274.377 C 309.424 272.889,307.990 270.588,306.178 270.588 C 305.168 270.588,304.927 269.436,304.898 264.468 C 304.889 262.989,304.519 262.705,302.863 262.899 C 299.854 263.253,297.255 260.283,297.255 256.491 C 297.255 254.673,296.719 252.909,295.925 252.115 C 295.122 251.312,294.662 249.779,294.765 248.248 C 294.953 245.464,293.469 243.684,291.284 244.070 C 289.758 244.339,288.476 240.357,289.199 237.592 C 289.469 236.558,289.193 236.078,288.327 236.078 C 287.435 236.078,287.059 235.366,287.059 233.679 C 287.059 232.360,286.768 231.460,286.413 231.679 C 286.057 231.899,285.792 231.302,285.824 230.353 C 285.868 229.052,285.448 228.643,284.118 228.690 C 283.147 228.724,282.353 228.459,282.353 228.101 C 282.353 227.744,282.729 227.451,283.189 227.451 C 283.649 227.451,283.914 226.480,283.778 225.294 C 283.609 223.825,283.101 223.170,282.188 223.241 C 281.450 223.298,280.874 223.122,280.908 222.849 C 281.106 221.267,280.643 220.392,279.608 220.392 C 278.961 220.392,278.431 219.852,278.431 219.191 C 278.431 218.530,277.902 217.787,277.255 217.539 C 276.503 217.250,276.078 216.042,276.078 214.191 C 276.078 210.860,274.962 209.412,272.392 209.412 C 270.750 209.412,270.588 209.059,270.588 205.490 C 270.588 202.527,270.301 201.569,269.412 201.569 C 268.322 201.569,267.870 200.212,268.175 197.852 C 268.428 195.890,266.594 193.725,264.678 193.725 C 262.866 193.725,262.151 191.996,262.652 188.824 C 262.703 188.500,262.216 188.235,261.569 188.235 C 260.696 188.235,260.392 187.318,260.392 184.681 C 260.392 182.004,260.054 181.008,259.020 180.643 C 257.499 180.107,254.118 176.603,254.118 175.564 C 254.118 175.200,253.588 174.902,252.941 174.902 C 252.120 174.902,251.765 174.074,251.765 172.157 C 251.765 170.379,251.419 169.481,250.784 169.608 C 250.134 169.738,249.723 168.536,249.563 166.037 C 249.392 163.353,248.941 162.134,247.995 161.800 C 245.479 160.910,243.922 158.967,243.922 156.717 C 243.922 155.435,243.414 154.266,242.745 154.009 C 241.720 153.616,241.569 148.225,241.569 112.073 L 241.569 70.588 246.667 70.588 C 250.484 70.588,251.765 70.316,251.765 69.503 C 251.765 68.906,252.471 68.234,253.333 68.008 C 254.196 67.782,254.902 67.035,254.902 66.348 C 254.902 65.660,255.431 65.098,256.078 65.098 C 256.725 65.098,257.255 64.610,257.255 64.013 C 257.255 63.416,257.943 62.748,258.783 62.528 C 260.208 62.156,260.301 61.450,260.156 52.045 L 260.000 41.961 204.314 41.808 C 152.875 41.667,148.530 41.756,147.348 42.984 M151.353 176.507 C 150.666 177.790,150.665 178.428,151.346 179.104 C 152.026 179.778,152.126 179.674,151.749 178.685 C 151.350 177.636,151.596 177.460,152.958 177.816 C 154.304 178.168,154.609 177.961,154.393 176.844 C 153.986 174.743,152.392 174.566,151.353 176.507 " stroke="none" fill="#fefefe" fill-rule="evenodd"></path><path id="path5" d="" stroke="none" fill="#00ffff" fill-rule="evenodd"></path><path id="path6" d="" stroke="none" fill="#80ffff" fill-rule="evenodd"></path><path id="path7" d="" stroke="none" fill="#0000ff" fill-rule="evenodd"></path><path id="path8" d="" stroke="none" fill="#8080bf" fill-rule="evenodd"></path><path id="path9" d="" stroke="none" fill="#8080ff" fill-rule="evenodd"></path></g></svg>