<svg id="svg" version="1.1" width="507" height="500" xmlns="http://www.w3.org/2000/svg" xmlns:xlink="http://www.w3.org/1999/xlink" style="display: block;">
  <g id="svgg">
    <path id="path0" d="M377.515 215.779 C 377.515 217.298,377.781 218.540,378.107 218.540 C 378.432 218.540,378.698 217.298,378.698 215.779 C 378.698 214.260,378.432 213.018,378.107 213.018 C 377.781 213.018,377.515 214.260,377.515 215.779 M377.260 261.143 C 376.351 263.696,376.373 263.807,377.563 262.617 C 378.271 261.910,378.713 260.667,378.547 259.857 C 378.322 258.764,377.989 259.096,377.260 261.143 M366.864 287.179 C 366.864 288.652,367.074 288.863,367.811 288.126 C 368.547 287.390,368.547 286.969,367.811 286.233 C 367.074 285.496,366.864 285.707,366.864 287.179 " stroke="none" fill="#000000" fill-rule="evenodd"></path><path id="path1" d="" stroke="none" fill="#555555" fill-rule="evenodd"></path><path id="path2" d="M102.751 44.525 C 101.768 44.981,101.136 45.800,101.345 46.346 C 101.554 46.891,101.382 47.337,100.961 47.337 C 100.541 47.337,100.197 46.805,100.197 46.154 C 100.197 45.417,99.452 44.970,98.225 44.970 C 97.099 44.970,96.252 45.426,96.252 46.032 C 96.252 47.721,93.556 49.704,91.259 49.704 C 90.100 49.704,89.152 50.034,89.152 50.438 C 89.152 50.841,87.465 51.949,85.404 52.899 C 83.343 53.849,81.040 54.939,80.287 55.321 C 79.533 55.703,78.202 56.016,77.328 56.016 C 76.455 56.016,75.740 56.329,75.740 56.713 C 75.740 57.750,72.985 58.275,71.602 57.501 C 70.728 57.012,70.283 57.258,69.986 58.393 C 69.661 59.635,68.905 59.961,66.346 59.961 C 64.570 59.961,63.116 60.259,63.116 60.623 C 63.116 62.632,59.448 62.891,57.765 61.001 C 55.009 57.908,51.749 58.692,51.432 62.525 C 51.297 64.152,50.942 65.504,50.643 65.530 C 38.872 66.543,35.503 66.266,35.503 64.285 C 35.503 62.740,34.003 62.801,32.216 64.418 C 30.857 65.649,30.750 65.583,30.280 63.235 C 29.721 60.438,28.894 60.097,27.607 62.130 C 26.981 63.119,26.615 63.231,26.318 62.525 C 26.091 61.982,25.368 61.538,24.714 61.538 C 24.059 61.538,22.620 60.828,21.517 59.961 C 20.414 59.093,19.762 58.383,20.068 58.383 C 20.375 58.383,20.093 57.850,19.442 57.199 C 18.735 56.492,16.806 56.016,14.652 56.016 L 11.045 56.016 11.045 68.245 L 11.045 80.473 14.226 80.473 C 16.319 80.473,17.561 80.876,17.858 81.651 C 18.164 82.447,18.921 82.676,20.195 82.356 C 21.671 81.986,22.224 82.273,22.746 83.684 L 23.412 85.485 23.862 83.765 C 24.441 81.551,26.654 82.279,27.311 84.900 C 27.846 87.029,29.015 87.374,29.695 85.602 C 30.071 84.623,32.185 84.418,41.924 84.418 C 51.662 84.418,53.777 84.623,54.153 85.602 C 54.678 86.971,61.914 87.304,62.722 85.996 C 62.990 85.562,62.834 85.207,62.374 85.207 C 61.066 85.207,61.396 83.064,62.786 82.530 C 63.473 82.267,64.872 82.051,65.896 82.051 C 66.919 82.051,67.976 81.696,68.245 81.262 C 69.029 79.993,72.584 80.316,72.584 81.657 C 72.584 82.308,73.130 82.840,73.797 82.840 C 74.650 82.840,74.943 82.195,74.783 80.671 C 74.586 78.788,74.866 78.466,76.897 78.235 C 78.185 78.088,79.714 77.290,80.295 76.460 C 81.165 75.218,82.330 74.951,86.883 74.951 C 92.132 74.951,92.387 74.867,91.891 73.304 C 91.260 71.314,94.263 68.134,96.428 68.501 C 97.205 68.632,98.054 68.185,98.315 67.506 C 98.989 65.748,108.876 65.701,108.876 67.456 C 108.876 68.374,109.918 68.639,113.525 68.639 C 116.930 68.639,118.296 68.322,118.629 67.456 C 119.227 65.895,125.296 65.912,127.370 67.481 C 128.212 68.118,129.661 68.639,130.589 68.639 C 131.583 68.639,132.712 69.451,133.333 70.611 C 133.914 71.696,134.960 72.584,135.658 72.584 C 137.592 72.584,139.843 75.668,139.441 77.768 C 139.233 78.857,139.524 79.772,140.156 80.015 C 140.743 80.240,141.223 80.991,141.223 81.685 C 141.223 82.683,141.925 82.894,144.576 82.696 C 148.854 82.377,149.733 84.931,146.324 87.781 C 141.062 92.181,136.857 97.143,135.237 100.863 C 134.546 102.449,133.480 104.690,132.868 105.842 C 132.256 106.993,131.755 108.502,131.755 109.195 C 131.755 109.887,131.400 110.454,130.966 110.454 C 130.529 110.454,130.178 112.536,130.178 115.123 C 130.178 120.507,129.666 122.288,128.121 122.288 C 126.453 122.288,126.807 123.626,128.600 124.094 C 129.852 124.422,130.178 125.171,130.178 127.726 C 130.178 130.606,130.509 131.163,133.333 133.033 C 135.069 134.181,136.489 135.606,136.489 136.200 C 136.489 137.894,139.413 137.462,139.874 135.700 C 140.503 133.295,145.957 133.783,145.957 136.245 C 145.957 138.266,147.917 136.861,148.179 134.653 C 148.316 133.493,148.848 132.499,149.362 132.444 C 149.876 132.388,151.168 132.256,152.235 132.149 C 153.301 132.042,154.307 131.555,154.470 131.066 C 155.027 129.396,161.044 129.985,161.507 131.755 C 162.157 134.240,163.974 133.621,164.250 130.821 C 164.538 127.889,166.446 127.087,173.719 126.840 C 177.057 126.726,178.291 126.368,178.533 125.441 C 178.712 124.756,180.420 123.732,182.329 123.165 C 184.237 122.598,186.415 121.814,187.169 121.422 C 189.156 120.389,190.138 120.545,190.138 121.893 C 190.138 123.313,191.707 123.507,191.736 122.091 C 191.796 119.191,201.363 117.308,202.761 119.921 C 204.061 122.349,205.111 121.825,204.340 119.133 C 203.560 116.415,205.533 115.387,209.866 116.253 C 211.287 116.537,212.416 116.345,212.795 115.754 C 213.135 115.226,214.746 114.176,216.376 113.422 C 221.863 110.885,223.920 105.251,220.630 101.767 C 216.839 97.753,212.587 94.279,211.440 94.259 C 210.663 94.246,210.302 93.538,210.390 92.197 C 210.513 90.326,210.267 90.156,207.430 90.156 C 204.520 90.156,198.283 87.506,192.110 83.646 C 190.809 82.833,189.122 82.141,188.363 82.109 C 187.604 82.077,186.982 81.696,186.982 81.262 C 186.982 80.828,186.493 80.473,185.895 80.473 C 185.298 80.473,184.367 79.941,183.826 79.290 C 183.286 78.639,182.201 78.107,181.415 78.107 C 180.455 78.107,179.905 77.415,179.737 75.998 C 179.600 74.838,178.994 73.727,178.391 73.529 C 177.788 73.330,177.511 73.517,177.775 73.944 C 178.615 75.304,174.856 76.345,170.584 75.934 C 166.672 75.558,166.228 75.277,162.323 70.707 C 160.053 68.051,157.928 65.680,157.602 65.439 C 157.276 65.198,156.930 64.044,156.834 62.875 C 156.702 61.287,156.233 60.750,154.976 60.750 C 154.051 60.750,151.909 59.748,150.217 58.524 C 148.525 57.300,145.631 55.634,143.787 54.822 C 141.943 54.010,140.434 53.059,140.434 52.708 C 140.434 52.358,139.930 52.071,139.314 52.071 C 137.004 52.071,133.367 49.277,132.897 47.140 C 132.490 45.294,132.020 44.970,129.745 44.970 C 127.692 44.970,127.177 45.245,127.525 46.154 C 127.775 46.805,127.586 47.337,127.106 47.337 C 126.626 47.337,126.233 46.844,126.233 46.242 C 126.233 44.386,109.888 42.975,107.255 44.603 C 106.806 44.880,106.012 44.789,105.488 44.401 C 104.919 43.980,103.819 44.030,102.751 44.525 M232.742 112.821 C 232.742 113.697,233.268 114.398,233.925 114.398 C 235.401 114.398,235.419 116.684,233.958 118.612 C 233.210 119.599,232.332 119.897,231.218 119.544 C 230.104 119.190,229.426 119.421,229.103 120.261 C 228.842 120.942,228.154 121.499,227.574 121.499 C 226.994 121.499,226.005 122.234,225.375 123.132 C 224.542 124.322,224.118 124.483,223.815 123.724 C 223.583 123.144,223.371 123.440,223.336 124.392 C 223.302 125.332,223.718 126.280,224.260 126.499 C 224.849 126.737,224.691 126.922,223.866 126.959 C 223.107 126.994,222.485 127.554,222.485 128.205 C 222.485 129.505,222.077 129.597,217.160 129.402 C 214.314 129.289,213.807 129.503,213.807 130.810 C 213.807 133.647,211.971 134.279,205.270 133.751 C 200.045 133.340,198.937 133.460,198.546 134.479 C 198.288 135.151,197.686 135.700,197.207 135.700 C 196.729 135.700,195.804 136.233,195.154 136.884 C 193.596 138.442,191.895 138.389,191.577 136.773 C 191.274 135.239,186.982 134.508,186.982 135.991 C 186.982 136.525,187.402 137.383,187.916 137.896 C 189.151 139.131,188.388 139.780,185.275 140.143 C 183.867 140.307,182.362 140.794,181.930 141.226 C 180.927 142.229,177.475 142.220,175.937 141.211 C 174.885 140.520,174.885 140.348,175.937 139.657 C 177.326 138.745,174.636 138.496,172.451 139.335 C 170.868 139.942,170.824 141.223,172.387 141.223 C 174.083 141.223,173.851 143.332,172.104 143.789 C 171.298 144.000,170.007 143.819,169.235 143.387 C 168.179 142.796,167.981 142.843,168.435 143.578 C 169.253 144.903,167.190 146.093,165.913 145.033 C 165.361 144.575,165.103 143.885,165.341 143.500 C 165.579 143.116,164.865 142.801,163.755 142.801 C 162.644 142.801,161.736 143.145,161.736 143.565 C 161.736 143.985,162.326 144.102,163.049 143.825 C 163.931 143.487,164.175 143.624,163.791 144.245 C 163.477 144.752,162.176 145.168,160.900 145.168 C 159.364 145.168,158.580 145.567,158.580 146.351 C 158.580 147.140,157.791 147.535,156.213 147.535 C 154.716 147.535,153.846 147.938,153.846 148.634 C 153.846 150.003,152.122 150.711,150.086 150.178 C 149.125 149.927,148.360 150.245,148.063 151.021 C 147.352 152.873,144.435 152.559,143.693 150.551 L 143.058 148.834 142.609 150.551 C 141.960 153.030,133.418 153.156,132.774 150.696 C 132.421 149.345,131.924 149.193,129.251 149.620 C 126.194 150.109,126.143 150.078,126.383 147.840 C 126.582 145.988,126.295 145.515,124.852 145.310 C 123.876 145.171,123.077 144.550,123.077 143.929 C 123.077 143.309,122.633 142.795,122.091 142.789 C 121.352 142.780,121.369 142.609,122.157 142.110 C 123.004 141.572,122.966 141.349,121.960 140.963 C 121.272 140.699,120.710 140.827,120.710 141.248 C 120.710 142.258,116.208 142.236,115.582 141.223 C 114.787 139.936,113.399 140.326,113.922 141.689 C 114.187 142.379,113.929 143.887,113.349 145.042 C 112.769 146.196,111.779 148.203,111.150 149.501 C 109.901 152.077,107.298 153.186,107.298 151.143 C 107.298 150.460,106.967 149.901,106.562 149.901 C 105.603 149.901,104.686 152.812,105.321 153.839 C 105.592 154.277,105.437 154.635,104.978 154.635 C 104.518 154.635,104.142 155.014,104.142 155.477 C 104.142 155.960,104.815 156.106,105.720 155.819 C 107.308 155.314,108.283 181.131,106.819 184.945 C 105.995 187.092,92.305 186.748,91.735 184.567 C 91.429 183.397,90.730 182.978,89.244 183.073 C 85.683 183.300,85.188 183.091,84.400 181.018 C 83.978 179.907,83.271 179.221,82.830 179.494 C 82.389 179.766,81.234 179.065,80.264 177.935 C 76.315 173.333,73.638 170.677,71.256 168.997 C 69.875 168.023,68.632 166.435,68.495 165.467 C 68.312 164.183,67.712 163.708,66.272 163.708 C 64.707 163.708,64.248 163.260,64.050 161.538 C 63.832 159.644,63.459 159.369,61.107 159.369 C 58.891 159.369,58.325 159.019,57.918 157.396 C 57.645 156.312,56.929 155.424,56.325 155.424 C 55.721 155.424,55.269 155.158,55.320 154.832 C 55.821 151.659,55.286 151.290,50.963 151.830 C 46.513 152.386,44.847 151.557,46.474 149.597 C 47.637 148.195,46.761 147.535,43.740 147.535 C 42.205 147.535,41.014 147.065,40.740 146.351 C 40.491 145.700,39.920 145.168,39.472 145.168 C 39.025 145.168,38.659 145.700,38.659 146.351 C 38.659 147.087,37.914 147.535,36.686 147.535 C 35.021 147.535,34.714 147.166,34.714 145.168 C 34.714 142.891,34.587 142.805,31.361 142.919 C 29.007 143.002,28.654 143.135,30.178 143.366 C 33.381 143.851,33.070 146.128,29.845 145.809 C 27.729 145.600,27.295 145.196,27.035 143.195 C 26.540 139.388,19.582 137.085,18.705 140.439 C 18.369 141.722,17.626 142.012,14.667 142.012 L 11.040 142.012 11.240 247.535 L 11.440 353.057 14.398 353.302 C 16.658 353.489,17.357 353.256,17.357 352.316 C 17.357 351.428,18.150 351.085,20.203 351.085 C 22.414 351.085,22.947 351.350,22.592 352.274 C 22.224 353.234,22.810 353.437,25.632 353.330 C 27.555 353.258,28.967 352.937,28.770 352.619 C 28.573 352.300,28.942 351.836,29.590 351.587 C 30.239 351.338,30.769 350.667,30.769 350.096 C 30.769 348.585,34.959 346.351,37.794 346.351 C 39.740 346.351,40.237 346.684,40.237 347.987 C 40.237 350.319,42.803 349.629,43.401 347.136 C 43.840 345.305,44.186 345.176,48.366 345.283 C 51.741 345.369,52.860 345.124,52.860 344.297 C 52.860 343.691,53.548 343.195,54.389 343.195 C 55.230 343.195,57.094 342.065,58.531 340.684 C 59.968 339.302,60.515 338.642,59.745 339.217 C 58.536 340.121,58.414 340.087,58.843 338.968 C 59.117 338.255,59.657 337.673,60.045 337.673 C 60.432 337.673,60.750 336.956,60.750 336.080 C 60.750 334.760,61.100 334.575,62.792 334.999 C 64.672 335.471,64.813 335.331,64.567 333.239 L 64.300 330.966 68.442 331.187 C 70.720 331.309,72.584 331.081,72.584 330.681 C 72.584 330.281,73.471 329.731,74.556 329.459 C 75.641 329.187,76.529 328.616,76.529 328.190 C 76.529 327.764,77.083 327.416,77.760 327.416 C 78.768 327.416,78.898 326.788,78.476 323.972 C 77.989 320.729,78.077 320.505,79.981 320.141 C 81.094 319.929,81.816 320.058,81.586 320.430 C 80.309 322.497,82.893 320.566,85.602 317.428 C 87.821 314.858,88.757 313.047,88.757 311.325 L 88.757 308.876 127.219 308.671 L 165.680 308.466 165.680 310.841 C 165.680 313.013,165.908 313.215,168.352 313.215 C 173.100 313.215,178.004 316.743,177.121 319.524 C 176.765 320.647,176.978 321.105,177.856 321.105 C 178.536 321.105,179.093 321.460,179.093 321.893 C 179.093 322.327,179.667 322.682,180.368 322.682 C 181.255 322.682,181.518 323.163,181.231 324.261 C 181.004 325.130,181.113 325.658,181.473 325.435 C 181.834 325.212,182.292 325.656,182.492 326.420 C 182.834 327.734,182.859 327.734,182.946 326.430 C 183.001 325.601,183.674 325.049,184.630 325.049 C 185.931 325.049,186.133 325.408,185.734 326.998 C 185.241 328.965,186.762 331.361,188.504 331.361 C 188.969 331.361,189.349 331.914,189.349 332.591 C 189.349 333.267,189.704 333.602,190.138 333.333 C 190.572 333.065,190.927 333.399,190.927 334.076 C 190.927 334.752,191.422 335.306,192.026 335.306 C 192.631 335.306,193.322 335.818,193.562 336.443 C 194.096 337.837,197.239 337.733,197.239 336.321 C 197.239 335.763,197.798 335.306,198.482 335.306 C 199.367 335.306,199.659 335.930,199.497 337.476 C 199.216 340.148,200.187 341.866,201.658 341.301 C 202.295 341.057,202.761 341.368,202.761 342.037 C 202.761 342.763,203.538 343.195,204.844 343.195 C 205.989 343.195,207.398 343.817,207.975 344.576 C 208.965 345.881,209.024 345.876,209.048 344.484 C 209.068 343.277,209.464 343.108,211.243 343.546 C 212.436 343.839,214.407 344.279,215.624 344.522 C 217.590 344.916,217.780 345.216,217.336 347.236 C 216.771 349.810,221.244 350.815,222.198 348.328 C 222.855 346.616,223.990 347.643,223.503 349.508 C 223.216 350.604,223.479 351.085,224.366 351.085 C 225.067 351.085,225.641 350.730,225.641 350.296 C 225.641 349.862,226.376 349.507,227.275 349.507 C 229.027 349.507,231.164 351.215,231.164 352.616 C 231.164 353.701,244.573 353.617,245.912 352.523 C 246.566 351.989,247.168 352.256,247.877 353.392 C 248.841 354.934,249.606 355.030,261.050 355.030 C 271.437 355.030,273.337 355.219,274.152 356.334 C 275.300 357.902,276.923 357.111,276.923 354.983 C 276.923 354.141,277.267 353.452,277.687 353.452 C 278.108 353.452,278.247 352.919,277.997 352.268 C 277.718 351.540,277.999 351.085,278.727 351.085 C 279.378 351.085,280.114 351.617,280.364 352.268 C 280.614 352.919,281.540 353.452,282.421 353.452 C 283.302 353.452,284.024 353.757,284.024 354.131 C 284.024 354.505,285.625 354.444,287.583 353.996 C 290.761 353.269,291.120 352.964,290.936 351.147 C 290.764 349.452,291.092 349.071,292.899 348.863 C 294.093 348.725,295.069 348.306,295.069 347.930 C 295.069 346.945,297.778 346.229,299.297 346.812 C 300.009 347.085,300.592 347.803,300.592 348.408 C 300.592 349.103,301.461 349.507,302.959 349.507 C 304.536 349.507,305.325 349.112,305.325 348.323 C 305.325 347.673,304.970 347.140,304.536 347.140 C 304.103 347.140,303.748 346.607,303.748 345.957 C 303.748 345.306,304.420 344.773,305.241 344.773 C 306.062 344.773,306.939 345.306,307.189 345.957 C 307.438 346.607,308.098 347.112,308.654 347.078 C 309.446 347.029,309.451 346.929,308.679 346.618 C 307.204 346.023,307.489 343.209,309.073 342.718 C 309.832 342.483,311.070 341.962,311.824 341.560 C 313.784 340.513,316.957 340.657,317.438 341.815 C 317.664 342.357,317.782 341.964,317.701 340.942 C 317.509 338.509,321.419 335.304,322.842 336.728 C 324.254 338.140,324.687 337.893,324.879 335.566 C 325.106 332.828,325.398 332.611,326.871 334.085 C 328.417 335.631,330.572 335.667,330.572 334.147 C 330.572 333.441,331.035 333.166,331.755 333.443 C 332.505 333.730,332.939 333.432,332.939 332.629 C 332.939 331.802,333.626 331.361,334.911 331.361 C 336.071 331.361,336.884 330.908,336.884 330.262 C 336.884 329.657,337.397 328.966,338.024 328.725 C 338.825 328.418,339.044 327.512,338.759 325.682 C 338.156 321.808,343.307 316.679,347.442 317.035 C 351.222 317.360,352.855 315.696,352.548 311.831 C 352.327 309.053,352.442 308.885,354.460 309.024 C 356.121 309.139,356.607 308.821,356.607 307.619 C 356.607 306.764,357.140 305.861,357.791 305.611 C 358.562 305.315,358.974 304.088,358.974 302.085 C 358.974 300.396,359.329 299.014,359.763 299.014 C 360.197 299.014,360.552 298.115,360.552 297.017 C 360.552 295.918,361.082 294.816,361.730 294.568 C 362.527 294.262,362.755 293.505,362.434 292.225 C 362.080 290.818,362.283 290.335,363.228 290.335 C 364.056 290.335,364.497 289.649,364.497 288.363 C 364.497 287.098,364.941 286.391,365.734 286.391 C 366.612 286.391,366.825 285.933,366.468 284.809 C 366.135 283.757,366.381 283.068,367.204 282.752 C 367.885 282.491,368.442 281.600,368.442 280.773 C 368.442 279.945,368.771 278.652,369.173 277.899 C 369.575 277.145,370.111 275.870,370.364 275.064 C 370.712 273.954,371.299 273.719,372.788 274.093 C 374.493 274.521,374.753 274.323,374.753 272.599 C 374.753 271.358,374.309 270.611,373.570 270.611 C 372.181 270.611,371.820 261.587,373.176 260.750 C 373.609 260.481,373.964 258.489,373.964 256.323 C 373.964 252.655,374.128 252.327,376.331 251.558 L 378.698 250.733 378.698 235.080 L 378.698 219.427 376.529 219.575 C 374.589 219.708,374.332 219.431,374.105 216.963 C 373.966 215.444,373.522 213.864,373.119 213.452 C 372.716 213.039,372.384 211.442,372.382 209.901 C 372.379 208.361,371.847 206.084,371.198 204.841 C 370.550 203.598,370.020 201.379,370.020 199.910 C 370.020 198.441,369.665 197.239,369.231 197.239 C 368.797 197.239,368.442 195.464,368.442 193.294 C 368.442 191.124,368.176 189.391,367.850 189.443 C 365.271 189.850,364.132 189.277,365.483 188.251 C 367.387 186.806,367.220 186.339,364.694 186.048 C 362.002 185.739,361.266 182.722,363.448 180.943 C 364.242 180.295,364.473 179.974,363.962 180.229 C 363.411 180.505,362.929 179.966,362.778 178.907 C 362.596 177.624,361.913 177.050,360.355 176.871 C 358.723 176.683,358.185 176.192,358.185 174.890 C 358.185 173.922,357.133 172.292,355.800 171.194 C 354.214 169.889,353.254 168.238,352.938 166.272 C 352.675 164.645,352.151 163.314,351.773 163.314 C 351.394 163.314,351.085 162.781,351.085 162.130 C 351.085 161.479,350.631 160.947,350.076 160.947 C 349.520 160.947,348.555 160.237,347.929 159.369 C 347.303 158.501,346.338 157.791,345.782 157.791 C 345.227 157.791,344.773 157.258,344.773 156.607 C 344.773 155.957,344.241 155.424,343.590 155.424 C 342.939 155.424,342.406 155.069,342.406 154.635 C 342.406 154.201,341.843 153.846,341.154 153.846 C 340.466 153.846,339.500 152.781,339.009 151.479 C 338.360 149.759,337.601 149.112,336.231 149.112 C 334.614 149.112,334.416 148.832,334.841 147.140 C 335.194 145.734,335.016 145.168,334.222 145.168 C 333.609 145.168,332.914 144.663,332.677 144.045 C 332.437 143.420,331.612 143.089,330.814 143.298 C 329.994 143.512,328.543 142.895,327.426 141.856 C 326.350 140.857,324.755 140.039,323.879 140.039 C 322.485 140.039,322.317 139.600,322.521 136.489 L 322.753 132.939 321.241 134.837 C 320.274 136.050,319.265 136.558,318.444 136.243 C 317.057 135.710,316.652 133.333,317.949 133.333 C 318.383 133.333,318.738 132.801,318.738 132.150 C 318.738 130.387,317.408 130.720,316.915 132.607 C 316.210 135.302,312.754 134.365,313.048 131.558 C 313.229 129.827,312.950 129.389,311.667 129.389 C 310.732 129.389,310.059 129.907,310.059 130.627 C 310.059 131.460,309.478 131.783,308.284 131.613 C 307.113 131.447,306.509 130.819,306.509 129.769 C 306.509 127.833,303.222 124.232,300.789 123.503 C 299.477 123.109,299.014 123.293,299.014 124.207 C 299.014 125.094,298.234 125.444,296.252 125.444 C 294.548 125.444,293.491 125.061,293.491 124.443 C 293.491 123.677,291.278 123.503,284.017 123.702 C 276.121 123.917,274.467 123.761,274.085 122.766 C 273.715 121.802,272.664 121.661,268.651 122.036 C 262.750 122.587,259.566 121.947,259.566 120.209 C 259.566 119.263,259.122 119.087,257.791 119.503 C 256.815 119.808,255.379 120.047,254.601 120.036 C 252.819 120.008,248.318 115.276,248.823 113.961 C 249.058 113.347,248.261 112.834,246.690 112.588 C 245.310 112.373,243.383 111.940,242.406 111.627 C 241.063 111.197,240.631 111.369,240.631 112.334 C 240.631 113.225,239.918 113.609,238.264 113.609 C 236.686 113.609,235.897 113.215,235.897 112.426 C 235.897 111.769,235.196 111.243,234.320 111.243 C 233.268 111.243,232.742 111.769,232.742 112.821 M251.677 137.673 C 251.677 138.330,252.378 138.856,253.254 138.856 C 254.377 138.856,254.832 139.382,254.832 140.678 C 254.832 141.679,255.354 143.188,255.991 144.031 C 257.521 146.054,257.706 163.280,256.213 164.774 C 255.671 165.316,255.192 166.896,255.149 168.284 C 254.940 175.022,254.901 175.148,253.017 175.148 C 250.203 175.148,246.956 173.329,246.949 171.748 C 246.945 170.829,247.294 170.523,247.929 170.889 C 248.502 171.218,248.640 171.155,248.258 170.738 C 247.896 170.343,247.275 169.975,246.877 169.921 C 246.479 169.867,245.888 169.778,245.562 169.724 C 244.346 169.520,244.929 150.661,246.176 149.859 C 246.941 149.367,247.055 148.911,246.511 148.521 C 245.319 147.668,245.066 142.523,246.251 143.256 C 246.902 143.658,247.047 143.171,246.746 141.597 C 246.429 139.942,246.755 139.005,248.012 137.955 C 250.092 136.217,251.677 136.095,251.677 137.673 M205.335 250.690 C 205.215 251.820,205.574 252.465,206.321 252.465 C 207.847 252.465,207.838 253.743,206.307 254.330 C 204.789 254.913,204.807 264.032,206.327 264.910 C 206.873 265.225,207.451 266.193,207.612 267.061 C 207.782 267.976,208.649 268.745,209.673 268.891 C 210.949 269.073,211.440 269.676,211.440 271.061 C 211.440 272.239,211.896 272.978,212.623 272.978 C 213.274 272.978,213.807 273.327,213.807 273.752 C 213.807 274.178,214.694 274.749,215.779 275.021 C 216.864 275.293,217.751 275.871,217.751 276.304 C 217.751 276.737,218.273 276.892,218.910 276.647 C 219.547 276.403,220.278 276.543,220.534 276.958 C 221.526 278.563,223.936 277.790,223.472 276.015 C 223.037 274.353,223.165 274.327,229.825 274.742 C 236.337 275.149,236.674 275.088,237.853 273.288 C 238.529 272.255,239.343 271.450,239.660 271.499 C 241.529 271.785,242.715 271.192,243.403 269.627 C 243.879 268.542,245.100 267.697,246.548 267.450 C 248.436 267.127,248.915 266.648,248.915 265.081 C 248.915 263.874,249.676 262.591,250.888 261.755 C 252.450 260.676,252.942 259.529,253.254 256.232 L 253.649 252.071 257.438 251.829 L 261.227 251.587 261.079 258.325 C 260.980 262.778,261.267 265.469,261.923 266.260 C 262.873 267.405,261.820 267.936,259.369 267.549 C 259.043 267.498,258.777 267.988,258.777 268.639 C 258.777 269.290,258.401 269.822,257.942 269.822 C 257.482 269.822,257.307 270.148,257.553 270.545 C 257.798 270.943,256.932 272.335,255.627 273.640 C 254.322 274.945,253.254 276.395,253.254 276.862 C 253.254 277.330,252.367 277.712,251.282 277.712 C 250.197 277.712,249.310 278.067,249.310 278.501 C 249.310 278.935,248.777 279.290,248.126 279.290 C 247.475 279.290,246.943 279.822,246.943 280.473 C 246.943 281.210,246.198 281.657,244.970 281.657 C 243.393 281.657,242.998 282.051,242.998 283.629 C 242.998 285.184,242.598 285.602,241.110 285.602 C 240.072 285.602,239.018 286.134,238.768 286.785 C 238.518 287.436,237.593 287.968,236.711 287.968 C 235.813 287.968,235.108 287.449,235.108 286.785 C 235.108 286.134,234.614 285.602,234.009 285.602 C 233.405 285.602,232.706 286.134,232.456 286.785 C 231.745 288.638,223.307 288.459,223.183 286.588 C 223.095 285.273,223.074 285.273,222.730 286.588 C 222.336 288.098,217.751 288.612,217.751 287.146 C 217.751 286.694,217.384 285.895,216.936 285.371 C 216.487 284.847,215.670 283.766,215.121 282.969 C 214.402 281.926,213.080 281.503,210.414 281.463 C 207.051 281.412,206.706 281.232,206.706 279.530 C 206.706 277.953,206.359 277.689,204.536 277.879 C 202.570 278.085,202.390 277.892,202.613 275.816 C 202.748 274.557,202.438 273.266,201.923 272.947 C 201.408 272.629,200.986 271.413,200.986 270.244 C 200.986 269.075,200.498 267.932,199.901 267.703 C 199.281 267.465,198.817 266.160,198.817 264.656 C 198.817 263.210,198.489 261.824,198.088 261.576 C 197.688 261.328,197.127 260.065,196.842 258.768 C 196.557 257.471,195.909 256.405,195.401 256.398 C 194.844 256.391,194.927 256.102,195.610 255.669 C 196.446 255.140,196.518 254.679,195.884 253.906 C 195.095 252.945,194.560 250.602,194.781 249.076 C 195.039 247.297,205.524 248.900,205.335 250.690 M221.696 275.108 C 221.696 276.695,221.468 277.011,220.803 276.345 C 220.311 275.853,220.122 274.895,220.383 274.215 C 221.106 272.333,221.696 272.735,221.696 275.108 " stroke="none" fill="#ffffff" fill-rule="evenodd"></path><path id="path3" d="M106.246 41.552 C 104.781 43.017,106.464 43.393,114.495 43.393 C 122.206 43.393,123.151 43.249,122.288 42.209 C 121.269 40.981,107.385 40.412,106.246 41.552 M63.511 58.383 C 63.234 58.830,63.897 59.172,65.042 59.172 C 66.153 59.172,67.061 58.817,67.061 58.383 C 67.061 57.949,66.372 57.594,65.530 57.594 C 64.688 57.594,63.779 57.949,63.511 58.383 M167.258 72.105 C 167.258 72.709,167.799 73.411,168.460 73.665 C 169.440 74.041,169.508 73.839,168.827 72.566 C 167.848 70.737,167.258 70.564,167.258 72.105 M135.700 75.617 C 135.700 75.984,136.410 76.927,137.278 77.712 C 138.173 78.522,138.856 78.746,138.856 78.229 C 138.856 77.728,138.501 77.318,138.067 77.318 C 137.633 77.318,137.278 76.785,137.278 76.134 C 137.278 75.483,136.923 74.951,136.489 74.951 C 136.055 74.951,135.700 75.251,135.700 75.617 M78.273 80.109 C 76.858 81.713,79.582 81.709,81.703 80.104 C 83.181 78.986,83.166 78.946,81.262 78.951 C 80.178 78.953,78.832 79.475,78.273 80.109 M136.577 93.184 C 135.603 94.091,135.012 95.038,135.262 95.288 C 135.512 95.538,136.459 94.947,137.366 93.973 C 139.509 91.673,138.877 91.041,136.577 93.184 M223.274 100.940 C 223.274 101.833,223.629 102.564,224.063 102.564 C 224.497 102.564,224.852 102.053,224.852 101.427 C 224.852 100.802,224.497 100.071,224.063 99.803 C 223.629 99.535,223.274 100.046,223.274 100.940 M179.455 138.120 C 178.530 139.616,179.879 139.986,181.253 138.612 C 182.483 137.382,182.485 137.278,181.281 137.278 C 180.562 137.278,179.741 137.657,179.455 138.120 M355.030 166.451 C 355.030 166.895,355.385 167.258,355.819 167.258 C 356.252 167.258,356.607 167.791,356.607 168.442 C 356.607 169.093,357.140 169.625,357.791 169.625 C 359.577 169.625,359.214 168.386,357.002 166.936 C 355.917 166.226,355.030 166.007,355.030 166.451 M369.286 192.702 C 369.441 195.452,370.699 196.805,370.753 194.280 C 370.784 192.870,370.454 191.716,370.020 191.716 C 369.586 191.716,369.256 192.160,369.286 192.702 M371.279 197.842 C 371.755 198.161,372.383 199.398,372.675 200.592 C 372.967 201.785,373.557 202.761,373.986 202.761 C 374.485 202.761,374.500 202.263,374.029 201.381 C 373.623 200.621,373.098 199.379,372.863 198.619 C 372.628 197.860,371.981 197.244,371.425 197.251 C 370.735 197.259,370.689 197.447,371.279 197.842 M372.478 277.844 C 372.428 278.567,371.943 279.317,371.400 279.511 C 370.858 279.704,370.686 280.154,371.019 280.510 C 371.947 281.503,373.371 279.643,372.947 277.993 C 372.639 276.796,372.553 276.769,372.478 277.844 M369.231 283.235 C 369.231 284.707,369.441 284.918,370.178 284.181 C 370.914 283.445,370.914 283.024,370.178 282.288 C 369.441 281.552,369.231 281.762,369.231 283.235 M226.036 286.391 C 226.304 286.824,227.191 287.179,228.008 287.179 C 228.825 287.179,229.712 286.824,229.980 286.391 C 230.266 285.929,229.447 285.602,228.008 285.602 C 226.569 285.602,225.750 285.929,226.036 286.391 M353.452 310.848 C 352.826 311.235,352.576 311.813,352.896 312.133 C 353.216 312.453,353.892 312.301,354.398 311.795 C 355.590 310.603,354.925 309.937,353.452 310.848 M318.738 340.409 C 318.738 341.115,319.200 341.390,319.921 341.114 C 320.572 340.864,321.105 340.343,321.105 339.955 C 321.105 339.568,320.572 339.250,319.921 339.250 C 319.270 339.250,318.738 339.772,318.738 340.409 M247.337 356.607 C 249.629 357.592,272.404 357.592,271.795 356.607 C 271.500 356.130,266.260 355.840,258.533 355.874 C 250.663 355.908,246.365 356.190,247.337 356.607 " stroke="none" fill="#006d6d" fill-rule="evenodd"></path><path id="path4" d="M83.344 50.099 C 83.077 50.793,83.333 51.282,83.964 51.282 C 84.555 51.282,85.243 50.750,85.492 50.099 C 85.759 49.404,85.503 48.915,84.872 48.915 C 84.281 48.915,83.594 49.448,83.344 50.099 M78.895 51.985 C 78.895 52.372,78.008 52.912,76.923 53.184 C 75.838 53.456,74.951 54.027,74.951 54.453 C 74.951 54.879,74.252 55.227,73.398 55.227 C 72.322 55.227,71.988 55.601,72.312 56.444 C 72.733 57.542,72.912 57.542,74.124 56.444 C 74.864 55.775,76.202 55.227,77.098 55.227 C 77.994 55.227,78.931 54.694,79.181 54.043 C 79.431 53.393,80.179 52.860,80.843 52.860 C 81.508 52.860,82.051 52.505,82.051 52.071 C 82.051 51.637,81.341 51.282,80.473 51.282 C 79.606 51.282,78.895 51.599,78.895 51.985 M144.371 52.457 C 144.908 53.103,145.661 53.437,146.046 53.199 C 146.431 52.961,146.746 53.282,146.746 53.911 C 146.746 54.541,147.633 55.279,148.718 55.551 C 149.803 55.823,150.690 56.394,150.690 56.820 C 150.690 57.245,151.266 57.594,151.970 57.594 C 153.759 57.594,152.058 55.612,148.153 53.147 C 144.726 50.983,142.867 50.644,144.371 52.457 M11.045 54.043 C 11.045 54.863,11.869 55.227,13.722 55.227 C 15.374 55.227,16.573 54.774,16.853 54.043 C 17.210 53.114,16.635 52.860,14.176 52.860 C 11.919 52.860,11.045 53.190,11.045 54.043 M67.878 56.753 C 66.787 58.791,66.845 59.172,68.245 59.172 C 68.981 59.172,69.428 58.426,69.428 57.199 C 69.428 54.832,68.976 54.702,67.878 56.753 M30.769 61.958 C 30.769 62.595,31.302 63.116,31.953 63.116 C 32.604 63.116,33.136 62.799,33.136 62.412 C 33.136 62.024,32.604 61.503,31.953 61.253 C 31.232 60.977,30.769 61.252,30.769 61.958 M158.580 63.673 C 158.580 64.113,159.467 65.140,160.552 65.954 C 161.637 66.769,162.525 67.694,162.525 68.010 C 162.525 68.326,163.590 69.674,164.892 71.006 C 166.392 72.541,167.258 73.005,167.258 72.273 C 167.258 71.638,166.103 69.939,164.692 68.498 C 160.831 64.556,158.580 62.779,158.580 63.673 M101.506 68.203 C 101.123 69.200,101.705 69.428,104.627 69.428 C 107.147 69.428,108.122 69.134,107.894 68.442 C 107.393 66.917,102.076 66.718,101.506 68.203 M120.184 68.245 C 120.184 69.088,120.996 69.410,123.011 69.366 C 124.566 69.331,125.392 69.124,124.847 68.904 C 124.302 68.684,124.057 68.180,124.302 67.783 C 124.547 67.386,123.721 67.061,122.466 67.061 C 120.964 67.061,120.184 67.465,120.184 68.245 M168.539 74.320 C 169.114 75.250,173.570 75.088,173.570 74.137 C 173.570 73.690,172.350 73.405,170.860 73.506 C 169.369 73.606,168.325 73.972,168.539 74.320 M74.951 80.009 C 74.951 80.644,75.544 81.009,76.331 80.858 C 77.091 80.713,77.978 80.567,78.304 80.534 C 79.885 80.372,78.641 78.895,76.923 78.895 C 75.751 78.895,74.951 79.347,74.951 80.009 M11.238 81.460 C 11.618 82.619,16.568 83.293,16.568 82.186 C 16.568 81.276,14.657 80.473,12.493 80.473 C 11.583 80.473,11.051 80.891,11.238 81.460 M194.872 82.108 C 194.872 83.200,196.879 85.207,197.971 85.207 C 199.200 85.207,199.018 84.620,197.239 82.840 C 195.459 81.061,194.872 80.879,194.872 82.108 M63.116 84.024 C 63.116 84.681,63.818 85.207,64.694 85.207 C 65.571 85.207,66.272 84.681,66.272 84.024 C 66.272 83.366,65.571 82.840,64.694 82.840 C 63.818 82.840,63.116 83.366,63.116 84.024 M142.107 87.573 C 138.536 91.038,138.285 91.519,140.039 91.519 C 140.690 91.519,141.223 90.986,141.223 90.335 C 141.223 89.684,141.603 89.152,142.068 89.152 C 143.129 89.152,145.168 87.157,145.168 86.118 C 145.168 85.689,145.611 85.160,146.154 84.941 C 146.776 84.689,146.811 84.520,146.249 84.480 C 145.759 84.446,143.895 85.838,142.107 87.573 M200.153 85.712 C 199.417 86.448,200.306 87.574,201.624 87.574 C 202.250 87.574,202.761 87.041,202.761 86.391 C 202.761 85.202,201.096 84.769,200.153 85.712 M203.287 87.311 C 202.059 88.539,202.966 89.152,206.014 89.152 C 208.815 89.152,209.130 88.988,208.284 87.968 C 207.282 86.761,204.238 86.361,203.287 87.311 M214.596 93.395 C 214.596 93.558,215.128 94.134,215.779 94.675 C 216.748 95.479,216.963 95.425,216.963 94.377 C 216.963 93.673,216.430 93.097,215.779 93.097 C 215.128 93.097,214.596 93.231,214.596 93.395 M133.859 95.989 C 133.570 96.279,133.333 97.166,133.333 97.962 C 133.333 98.757,133.047 99.408,132.696 99.408 C 131.973 99.408,129.389 104.931,129.389 106.476 C 129.389 107.289,129.624 107.295,130.572 106.509 C 131.223 105.969,131.755 105.038,131.755 104.440 C 131.755 103.842,132.110 103.353,132.544 103.353 C 132.978 103.353,133.333 102.618,133.333 101.719 C 133.333 100.820,133.866 99.552,134.517 98.901 C 135.168 98.250,135.700 97.210,135.700 96.591 C 135.700 95.407,134.752 95.097,133.859 95.989 M222.708 104.695 C 222.676 110.209,221.635 112.821,219.470 112.821 C 219.052 112.821,218.505 113.353,218.255 114.004 C 218.005 114.655,217.080 115.187,216.198 115.187 C 215.317 115.187,214.596 115.542,214.596 115.976 C 214.596 118.001,218.265 116.472,221.420 113.132 C 224.752 109.605,226.550 102.564,224.118 102.564 C 223.714 102.564,223.239 101.765,223.063 100.789 C 222.886 99.813,222.727 101.570,222.708 104.695 M232.833 116.108 C 232.783 116.831,232.298 117.581,231.755 117.775 C 231.213 117.969,231.041 118.418,231.374 118.774 C 232.302 119.767,233.726 117.908,233.302 116.257 C 232.994 115.061,232.908 115.033,232.833 116.108 M206.706 117.949 C 206.706 118.803,207.583 119.132,209.862 119.132 C 212.141 119.132,213.018 118.803,213.018 117.949 C 213.018 117.094,212.141 116.765,209.862 116.765 C 207.583 116.765,206.706 117.094,206.706 117.949 M253.254 118.343 C 253.254 118.777,253.944 119.132,254.786 119.132 C 255.628 119.132,256.537 118.777,256.805 118.343 C 257.081 117.896,256.418 117.554,255.273 117.554 C 254.163 117.554,253.254 117.909,253.254 118.343 M261.933 120.274 C 261.933 121.235,262.882 121.499,266.338 121.499 C 272.131 121.499,271.857 119.630,266.013 119.288 C 262.749 119.097,261.933 119.295,261.933 120.274 M194.872 121.893 C 194.872 122.617,195.253 123.081,195.720 122.926 C 196.186 122.770,196.568 122.306,196.568 121.893 C 196.568 121.481,196.186 121.017,195.720 120.861 C 195.253 120.706,194.872 121.170,194.872 121.893 M276.529 122.288 C 276.238 122.757,277.178 123.077,278.849 123.077 C 280.393 123.077,281.657 122.722,281.657 122.288 C 281.657 121.854,280.613 121.499,279.337 121.499 C 278.060 121.499,276.797 121.854,276.529 122.288 M284.024 122.288 C 284.024 122.722,284.911 123.077,285.996 123.077 C 287.081 123.077,287.968 122.722,287.968 122.288 C 287.968 121.854,287.081 121.499,285.996 121.499 C 284.911 121.499,284.024 121.854,284.024 122.288 M294.831 124.384 C 295.278 125.549,298.225 125.864,298.225 124.747 C 298.225 124.363,297.370 123.886,296.324 123.687 C 294.963 123.426,294.540 123.624,294.831 124.384 M171.203 127.758 C 171.203 128.163,170.230 128.607,169.040 128.744 C 167.712 128.898,166.774 129.541,166.609 130.411 C 166.359 131.729,166.551 131.715,169.351 130.214 C 171.008 129.326,172.812 128.600,173.361 128.600 C 173.910 128.600,174.359 128.245,174.359 127.811 C 174.359 127.377,173.649 127.022,172.781 127.022 C 171.913 127.022,171.203 127.353,171.203 127.758 M127.022 131.045 C 127.022 132.326,132.384 137.463,133.375 137.133 C 134.401 136.791,131.586 133.333,130.282 133.333 C 129.791 133.333,129.389 132.623,129.389 131.755 C 129.389 130.879,128.863 130.178,128.205 130.178 C 127.554 130.178,127.022 130.568,127.022 131.045 M156.717 132.150 C 156.389 133.005,156.803 133.333,158.210 133.333 C 159.415 133.333,160.158 132.882,160.158 132.150 C 160.158 131.499,159.486 130.966,158.664 130.966 C 157.843 130.966,156.966 131.499,156.717 132.150 M150.045 135.306 C 149.498 136.506,149.449 137.278,149.918 137.278 C 150.343 137.278,150.690 136.746,150.690 136.095 C 150.690 135.358,151.435 134.911,152.663 134.911 C 153.748 134.911,154.635 134.556,154.635 134.122 C 154.635 132.402,150.933 133.356,150.045 135.306 M322.708 136.292 C 322.753 137.361,324.810 139.645,325.728 139.645 C 326.223 139.645,326.627 140.000,326.627 140.434 C 326.627 140.868,327.337 141.223,328.205 141.223 C 329.073 141.223,329.783 140.868,329.783 140.434 C 329.783 140.000,329.081 139.645,328.223 139.645 C 327.365 139.645,326.082 138.757,325.371 137.673 C 324.141 135.796,322.654 135.025,322.708 136.292 M113.417 138.222 C 113.148 138.925,113.886 139.314,115.751 139.453 C 117.651 139.593,118.379 139.354,118.152 138.664 C 117.705 137.302,113.905 136.948,113.417 138.222 M181.460 138.462 C 180.614 139.481,180.928 139.645,183.730 139.645 C 186.095 139.645,186.982 139.322,186.982 138.462 C 186.982 137.684,186.204 137.278,184.712 137.278 C 183.463 137.278,182.000 137.811,181.460 138.462 M11.440 140.434 C 11.172 140.868,11.683 141.223,12.577 141.223 C 13.470 141.223,14.201 140.868,14.201 140.434 C 14.201 140.000,13.690 139.645,13.064 139.645 C 12.439 139.645,11.708 140.000,11.440 140.434 M176.726 140.434 C 176.726 140.868,177.258 141.223,177.909 141.223 C 178.560 141.223,179.093 140.868,179.093 140.434 C 179.093 140.000,178.560 139.645,177.909 139.645 C 177.258 139.645,176.726 140.000,176.726 140.434 M145.168 148.323 C 145.168 148.757,145.700 149.112,146.351 149.112 C 147.002 149.112,147.535 148.757,147.535 148.323 C 147.535 147.890,147.002 147.535,146.351 147.535 C 145.700 147.535,145.168 147.890,145.168 148.323 M134.122 150.296 C 134.122 151.172,135.043 151.479,137.673 151.479 C 140.302 151.479,141.223 151.172,141.223 150.296 C 141.223 149.419,140.302 149.112,137.673 149.112 C 135.043 149.112,134.122 149.419,134.122 150.296 M339.250 150.346 C 339.250 150.936,341.366 153.057,341.955 153.057 C 342.959 153.057,342.310 151.798,340.828 150.873 C 339.961 150.331,339.250 150.094,339.250 150.346 M105.720 158.533 C 105.720 159.376,106.075 160.284,106.509 160.552 C 106.956 160.829,107.298 160.166,107.298 159.021 C 107.298 157.910,106.943 157.002,106.509 157.002 C 106.075 157.002,105.720 157.691,105.720 158.533 M64.694 160.552 C 64.694 161.203,65.227 161.736,65.878 161.736 C 66.529 161.736,67.061 161.203,67.061 160.552 C 67.061 159.901,66.529 159.369,65.878 159.369 C 65.227 159.369,64.694 159.901,64.694 160.552 M71.344 165.772 C 70.991 166.343,71.124 166.903,71.655 167.080 C 72.166 167.251,72.584 167.893,72.584 168.508 C 72.584 169.122,72.967 169.625,73.435 169.625 C 74.520 169.625,80.473 175.605,80.473 176.695 C 80.473 177.146,81.006 177.515,81.657 177.515 C 83.422 177.515,83.090 176.248,80.868 174.500 C 79.783 173.647,78.895 172.556,78.895 172.076 C 78.895 171.596,78.515 171.203,78.050 171.203 C 77.144 171.203,74.951 169.266,74.951 168.465 C 74.951 167.081,71.929 164.825,71.344 165.772 M355.030 168.104 C 355.030 169.196,357.037 171.203,358.129 171.203 C 358.594 171.203,358.974 172.053,358.974 173.091 C 358.974 174.130,359.507 175.183,360.158 175.433 C 361.863 176.088,361.674 173.407,359.868 171.324 C 359.058 170.390,357.993 169.625,357.501 169.625 C 357.010 169.625,356.607 169.093,356.607 168.442 C 356.607 167.791,356.252 167.258,355.819 167.258 C 355.385 167.258,355.030 167.639,355.030 168.104 M93.097 184.221 C 93.097 185.168,94.280 185.404,99.014 185.404 C 103.748 185.404,104.931 185.168,104.931 184.221 C 104.931 183.274,103.748 183.037,99.014 183.037 C 94.280 183.037,93.097 183.274,93.097 184.221 M370.809 200.789 C 370.809 202.308,371.123 203.550,371.508 203.550 C 371.893 203.550,372.447 205.148,372.740 207.101 C 373.033 209.053,373.606 210.651,374.013 210.651 C 375.245 210.651,374.871 203.555,373.570 202.254 C 372.919 201.603,372.387 200.386,372.387 199.549 C 372.387 198.712,372.032 198.028,371.598 198.028 C 371.164 198.028,370.809 199.270,370.809 200.789 M374.753 214.446 C 374.753 216.557,375.155 217.737,375.982 218.054 C 376.994 218.442,377.168 217.946,376.968 215.241 C 376.645 210.858,374.753 210.178,374.753 214.446 M197.436 251.453 C 198.629 251.633,200.582 251.633,201.775 251.453 C 202.968 251.272,201.992 251.124,199.606 251.124 C 197.219 251.124,196.243 251.272,197.436 251.453 M374.753 258.383 C 374.753 262.575,375.653 264.049,376.641 261.474 C 377.631 258.896,377.171 254.043,375.937 254.043 C 375.028 254.043,374.753 255.052,374.753 258.383 M373.176 267.456 C 373.176 268.757,373.531 269.822,373.964 269.822 C 374.398 269.822,374.753 268.757,374.753 267.456 C 374.753 266.154,374.398 265.089,373.964 265.089 C 373.531 265.089,373.176 266.154,373.176 267.456 M224.458 276.134 C 224.157 276.620,225.486 276.923,227.915 276.923 C 230.084 276.923,232.079 276.568,232.347 276.134 C 232.647 275.648,231.319 275.345,228.890 275.345 C 226.720 275.345,224.726 275.700,224.458 276.134 M370.809 277.271 C 370.809 278.330,370.454 279.416,370.020 279.684 C 369.586 279.953,369.231 280.506,369.231 280.914 C 369.231 281.323,369.586 281.657,370.020 281.657 C 370.454 281.657,370.809 281.154,370.809 280.539 C 370.809 279.924,371.117 279.303,371.493 279.158 C 372.883 278.625,373.358 275.345,372.045 275.345 C 371.260 275.345,370.809 276.048,370.809 277.271 M228.797 286.851 C 227.568 287.533,227.288 287.950,228.054 287.957 C 228.731 287.963,229.973 287.447,230.816 286.810 C 232.731 285.362,231.433 285.388,228.797 286.851 M90.444 310.454 C 90.045 311.495,94.381 311.637,126.586 311.637 C 155.149 311.637,163.259 311.854,163.534 312.623 C 164.126 314.279,164.860 312.869,164.374 311.011 L 163.919 309.270 127.409 309.270 C 95.683 309.270,90.839 309.425,90.444 310.454 M78.895 322.288 C 78.895 322.939,79.250 323.471,79.684 323.471 C 80.118 323.471,80.473 322.939,80.473 322.288 C 80.473 321.637,80.118 321.105,79.684 321.105 C 79.250 321.105,78.895 321.637,78.895 322.288 M340.828 322.288 C 340.828 322.939,340.473 323.471,340.039 323.471 C 339.606 323.471,339.275 324.270,339.304 325.247 L 339.357 327.022 340.213 325.247 C 340.684 324.270,341.548 323.471,342.132 323.471 C 342.717 323.471,343.195 322.939,343.195 322.288 C 343.195 321.637,342.663 321.105,342.012 321.105 C 341.361 321.105,340.828 321.637,340.828 322.288 M313.215 342.406 C 313.215 342.840,312.369 343.195,311.335 343.195 C 310.174 343.195,309.309 343.750,309.076 344.643 C 308.614 346.409,312.284 346.062,312.970 344.274 C 313.197 343.681,314.233 343.195,315.272 343.195 C 316.310 343.195,317.160 342.840,317.160 342.406 C 317.160 341.972,316.272 341.617,315.187 341.617 C 314.103 341.617,313.215 341.972,313.215 342.406 M211.834 346.351 C 212.102 346.785,213.011 347.140,213.853 347.140 C 214.696 347.140,215.385 346.785,215.385 346.351 C 215.385 345.917,214.476 345.562,213.366 345.562 C 212.221 345.562,211.558 345.904,211.834 346.351 M245.560 354.438 C 245.797 355.152,249.493 355.533,258.965 355.819 C 266.157 356.036,271.877 355.947,271.675 355.621 C 271.473 355.296,265.825 355.030,259.125 355.030 C 251.530 355.030,246.943 354.733,246.943 354.241 C 246.943 353.807,246.558 353.452,246.088 353.452 C 245.618 353.452,245.381 353.895,245.560 354.438 " stroke="none" fill="#629db1" fill-rule="evenodd"></path><path id="path5" d="M105.365 44.064 C 105.777 44.433,108.067 44.483,110.454 44.175 L 114.793 43.615 109.704 43.504 C 106.853 43.441,104.945 43.688,105.365 44.064 M117.762 43.959 C 118.962 44.140,120.737 44.135,121.707 43.948 C 122.677 43.761,121.696 43.612,119.527 43.618 C 117.357 43.624,116.563 43.777,117.762 43.959 M93.097 46.154 C 93.097 46.890,92.352 47.337,91.124 47.337 C 90.039 47.337,89.152 47.692,89.152 48.126 C 89.152 48.560,88.431 48.915,87.549 48.915 C 86.668 48.915,85.742 49.448,85.492 50.099 C 85.243 50.750,84.366 51.282,83.545 51.282 C 82.723 51.282,82.051 51.637,82.051 52.071 C 82.051 52.505,81.508 52.860,80.843 52.860 C 80.179 52.860,79.431 53.393,79.181 54.043 C 78.931 54.694,77.921 55.227,76.935 55.227 C 75.950 55.227,74.683 55.782,74.120 56.460 C 73.192 57.579,73.033 57.579,72.407 56.460 C 71.325 54.527,69.428 54.969,69.428 57.154 C 69.428 58.848,69.022 59.117,66.075 59.383 L 62.722 59.685 66.149 59.823 C 68.969 59.936,69.648 59.683,69.986 58.393 C 70.283 57.258,70.728 57.012,71.602 57.501 C 72.985 58.275,75.740 57.750,75.740 56.713 C 75.740 56.329,76.455 56.016,77.328 56.016 C 78.202 56.016,79.533 55.703,80.287 55.321 C 81.040 54.939,83.343 53.849,85.404 52.899 C 87.465 51.949,89.152 50.841,89.152 50.438 C 89.152 50.034,90.162 49.704,91.396 49.704 C 93.634 49.704,96.252 47.650,96.252 45.894 C 96.252 45.386,95.542 44.970,94.675 44.970 C 93.798 44.970,93.097 45.496,93.097 46.154 M133.044 47.337 C 133.311 48.422,133.574 49.328,133.629 49.351 C 133.683 49.374,134.692 49.995,135.870 50.732 C 137.048 51.468,138.557 52.071,139.223 52.071 C 139.889 52.071,140.434 52.358,140.434 52.708 C 140.434 53.059,141.924 54.003,143.745 54.806 C 145.565 55.609,148.578 57.340,150.439 58.651 C 152.300 59.963,154.047 60.811,154.323 60.536 C 154.930 59.929,152.718 57.594,151.536 57.594 C 151.071 57.594,150.690 57.245,150.690 56.820 C 150.690 56.394,149.803 55.823,148.718 55.551 C 147.633 55.279,146.746 54.541,146.746 53.911 C 146.746 53.282,146.431 52.961,146.046 53.199 C 145.661 53.437,144.908 53.103,144.371 52.457 C 143.835 51.811,142.951 51.282,142.406 51.282 C 141.862 51.282,140.974 50.750,140.434 50.099 C 139.894 49.448,138.785 48.915,137.970 48.915 C 137.156 48.915,136.489 48.560,136.489 48.126 C 136.489 47.692,135.809 47.337,134.977 47.337 C 134.145 47.337,133.261 46.893,133.012 46.351 C 132.763 45.809,132.777 46.252,133.044 47.337 M16.568 54.390 C 16.568 54.798,15.237 55.271,13.609 55.441 C 10.941 55.720,11.024 55.764,14.455 55.883 C 17.379 55.985,22.764 58.383,20.068 58.383 C 19.762 58.383,20.414 59.093,21.517 59.961 C 22.620 60.828,24.059 61.538,24.714 61.538 C 25.368 61.538,26.084 61.982,26.304 62.525 C 26.605 63.267,26.910 63.218,27.533 62.327 C 28.178 61.406,28.017 61.088,26.804 60.892 C 25.948 60.753,25.247 60.309,25.247 59.906 C 25.247 59.502,24.397 59.172,23.360 59.172 C 22.005 59.172,21.333 58.615,20.978 57.199 C 20.706 56.114,19.957 55.227,19.314 55.227 C 18.672 55.227,18.146 54.872,18.146 54.438 C 18.146 54.004,17.791 53.649,17.357 53.649 C 16.923 53.649,16.568 53.983,16.568 54.390 M30.084 61.933 C 29.953 64.537,31.113 65.786,32.316 64.337 C 33.156 63.325,33.121 63.116,32.107 63.116 C 31.435 63.116,30.723 62.495,30.524 61.736 C 30.221 60.577,30.151 60.608,30.084 61.933 M58.545 61.834 C 59.102 62.431,60.033 62.736,60.614 62.513 C 61.494 62.176,61.495 61.996,60.618 61.441 C 58.796 60.286,57.354 60.559,58.545 61.834 M35.503 64.285 C 35.503 66.291,38.241 66.516,50.690 65.530 C 51.016 65.504,51.282 64.951,51.282 64.300 C 51.282 63.327,49.879 63.116,43.393 63.116 C 36.951 63.116,35.503 63.331,35.503 64.285 M157.002 64.234 C 157.002 64.849,157.268 65.470,157.594 65.615 C 157.919 65.759,160.045 68.051,162.318 70.707 C 166.228 75.277,166.673 75.559,170.602 75.944 C 174.832 76.359,179.462 74.970,177.627 73.837 C 177.132 73.530,176.726 73.656,176.726 74.115 C 176.726 76.555,169.099 74.956,165.809 71.826 C 164.003 70.108,162.525 68.499,162.525 68.250 C 162.525 67.716,157.905 63.116,157.369 63.116 C 157.167 63.116,157.002 63.619,157.002 64.234 M98.315 67.506 C 98.054 68.185,97.217 68.638,96.455 68.514 C 94.864 68.254,91.519 70.864,91.519 72.365 C 91.519 72.919,92.229 73.373,93.097 73.373 C 94.090 73.373,94.675 72.847,94.675 71.953 C 94.675 70.798,95.184 70.593,97.415 70.854 C 99.753 71.127,100.292 70.872,101.092 69.117 C 102.186 66.714,106.715 66.159,107.903 68.282 C 108.792 69.870,120.438 69.647,120.118 68.047 C 119.995 67.430,120.825 67.061,122.335 67.061 C 123.743 67.061,124.545 67.390,124.260 67.850 C 123.992 68.284,124.149 68.639,124.608 68.639 C 125.068 68.639,125.444 69.172,125.444 69.822 C 125.444 70.627,126.266 71.014,128.008 71.031 C 130.715 71.057,133.333 72.543,133.333 74.051 C 133.333 74.546,134.221 74.951,135.306 74.951 C 136.391 74.951,137.278 75.331,137.278 75.796 C 137.278 76.261,137.811 77.174,138.462 77.825 C 139.513 78.877,139.645 78.828,139.645 77.383 C 139.645 75.352,137.346 72.584,135.658 72.584 C 134.960 72.584,133.914 71.696,133.333 70.611 C 132.712 69.451,131.583 68.639,130.589 68.639 C 129.661 68.639,128.212 68.118,127.370 67.481 C 125.296 65.912,119.227 65.895,118.629 67.456 C 118.296 68.322,116.930 68.639,113.525 68.639 C 109.918 68.639,108.876 68.374,108.876 67.456 C 108.876 65.701,98.989 65.748,98.315 67.506 M179.713 75.740 C 179.949 77.344,180.509 78.107,181.453 78.107 C 182.218 78.107,183.286 78.639,183.826 79.290 C 184.367 79.941,185.298 80.473,185.895 80.473 C 186.493 80.473,186.982 80.828,186.982 81.262 C 186.982 81.696,187.604 82.077,188.363 82.109 C 189.122 82.141,190.809 82.833,192.110 83.646 C 198.283 87.506,204.520 90.156,207.430 90.156 C 210.267 90.156,210.513 90.326,210.390 92.197 C 210.302 93.538,210.663 94.246,211.440 94.259 C 212.587 94.279,216.839 97.753,220.630 101.767 L 222.485 103.731 222.485 101.570 C 222.485 100.381,222.130 99.408,221.696 99.408 C 221.262 99.408,220.907 98.876,220.907 98.225 C 220.907 97.574,220.375 97.041,219.724 97.041 C 219.073 97.041,218.540 96.728,218.540 96.344 C 218.540 95.961,217.919 95.423,217.160 95.148 C 214.647 94.240,211.836 92.372,211.736 91.545 C 211.681 91.097,211.593 90.375,211.538 89.941 C 211.484 89.507,209.449 89.152,207.016 89.152 C 203.679 89.152,202.691 88.896,202.992 88.112 C 203.249 87.441,202.788 87.091,201.695 87.125 C 200.739 87.156,200.086 86.749,200.197 86.193 C 200.306 85.651,199.659 85.207,198.760 85.207 C 197.014 85.207,194.872 83.500,194.872 82.108 C 194.872 81.643,194.022 81.262,192.984 81.262 C 191.945 81.262,190.891 80.730,190.642 80.079 C 190.392 79.428,189.466 78.895,188.585 78.895 C 187.703 78.895,186.982 78.540,186.982 78.107 C 186.982 77.673,186.095 77.318,185.010 77.318 C 183.804 77.318,183.037 76.869,183.037 76.162 C 183.037 75.207,180.827 73.373,179.676 73.373 C 179.505 73.373,179.522 74.438,179.713 75.740 M80.295 76.460 C 79.714 77.290,78.212 78.088,76.958 78.235 C 75.704 78.381,74.588 78.954,74.479 79.507 C 74.370 80.060,74.461 80.149,74.681 79.704 C 74.902 79.259,76.274 78.895,77.731 78.895 C 79.188 78.895,80.600 78.540,80.868 78.107 C 81.136 77.673,82.577 77.318,84.070 77.318 C 85.957 77.318,86.785 76.957,86.785 76.134 C 86.785 74.311,81.619 74.570,80.295 76.460 M15.775 81.460 C 16.241 82.002,17.120 83.156,17.730 84.024 L 18.837 85.602 20.044 84.024 C 21.122 82.615,21.254 82.594,21.277 83.826 C 21.290 84.586,21.683 85.207,22.149 85.207 C 22.614 85.207,22.870 84.586,22.716 83.826 C 22.533 82.925,21.760 82.479,20.488 82.541 C 19.417 82.593,18.257 82.149,17.910 81.555 C 17.563 80.960,16.750 80.473,16.103 80.473 C 15.237 80.473,15.151 80.733,15.775 81.460 M68.245 81.262 C 67.976 81.696,66.919 82.051,65.896 82.051 C 64.872 82.051,63.473 82.267,62.786 82.530 C 61.423 83.053,61.054 85.207,62.327 85.207 C 62.761 85.207,63.116 84.675,63.116 84.024 C 63.116 83.366,63.818 82.840,64.694 82.840 C 65.601 82.840,66.272 83.366,66.272 84.076 C 66.272 86.266,70.559 85.181,70.880 82.910 C 71.087 81.447,71.312 81.264,71.854 82.121 C 72.425 83.022,72.562 82.971,72.572 81.854 C 72.585 80.334,69.112 79.859,68.245 81.262 M23.962 83.214 C 23.491 84.441,25.333 86.785,26.768 86.785 C 28.025 86.785,27.791 84.708,26.374 83.291 C 24.840 81.757,24.525 81.747,23.962 83.214 M144.576 82.565 C 142.743 83.321,143.437 85.351,145.365 84.873 C 146.341 84.631,146.696 84.637,146.154 84.886 C 145.611 85.135,145.168 85.689,145.168 86.118 C 145.168 87.157,143.129 89.152,142.068 89.152 C 141.603 89.152,141.223 89.684,141.223 90.335 C 141.223 90.986,140.842 91.519,140.378 91.519 C 139.285 91.519,137.278 93.526,137.278 94.618 C 137.278 95.083,136.962 95.464,136.575 95.464 C 136.188 95.464,135.648 96.351,135.376 97.436 C 135.104 98.521,134.533 99.408,134.107 99.408 C 133.682 99.408,133.333 100.296,133.333 101.381 C 133.333 102.465,133.020 103.353,132.636 103.353 C 132.253 103.353,131.731 103.974,131.476 104.734 C 131.221 105.493,130.673 106.647,130.257 107.298 C 129.842 107.949,129.280 109.181,129.009 110.037 C 128.596 111.338,128.394 111.402,127.780 110.432 C 127.292 109.660,127.042 111.452,127.034 115.779 C 127.024 120.822,127.269 122.288,128.121 122.288 C 129.666 122.288,130.178 120.507,130.178 115.123 C 130.178 112.536,130.529 110.454,130.966 110.454 C 131.400 110.454,131.755 109.887,131.755 109.195 C 131.755 108.502,132.256 106.993,132.868 105.842 C 133.480 104.690,134.546 102.449,135.237 100.863 C 136.857 97.143,141.062 92.181,146.324 87.781 C 149.603 85.040,148.263 81.043,144.576 82.565 M29.703 85.582 C 29.301 86.629,30.878 86.785,41.905 86.785 C 51.685 86.785,54.495 86.560,54.242 85.799 C 53.706 84.189,30.317 83.982,29.703 85.582 M220.714 109.723 C 219.912 111.134,218.026 112.698,216.194 113.469 C 212.980 114.823,211.355 116.765,213.437 116.765 C 214.074 116.765,214.596 116.410,214.596 115.976 C 214.596 115.542,215.317 115.187,216.198 115.187 C 217.080 115.187,218.005 114.655,218.255 114.004 C 218.505 113.353,219.052 112.821,219.470 112.821 C 220.882 112.821,222.597 110.468,222.343 108.878 C 222.125 107.512,221.906 107.626,220.714 109.723 M235.897 112.426 C 235.897 113.215,236.686 113.609,238.264 113.609 C 239.842 113.609,240.631 113.215,240.631 112.426 C 240.631 111.637,239.842 111.243,238.264 111.243 C 236.686 111.243,235.897 111.637,235.897 112.426 M248.521 114.315 C 248.521 115.298,252.599 119.526,254.083 120.082 C 255.600 120.650,259.335 118.781,258.149 118.048 C 257.687 117.762,257.085 117.889,256.813 118.330 C 255.625 120.252,251.788 118.174,250.644 114.990 C 250.134 113.569,248.521 113.057,248.521 114.315 M233.333 116.094 C 233.625 117.212,233.279 118.154,232.319 118.856 C 231.385 119.539,231.239 119.921,231.912 119.921 C 233.253 119.921,235.051 117.572,235.083 115.779 C 235.097 115.020,234.609 114.398,233.999 114.398 C 233.252 114.398,233.034 114.953,233.333 116.094 M204.651 116.461 C 204.172 116.658,203.944 117.682,204.146 118.735 C 204.515 120.666,206.706 119.748,206.706 117.663 C 206.706 117.227,207.682 116.722,208.876 116.541 C 210.686 116.267,210.588 116.203,208.284 116.157 C 206.765 116.126,205.130 116.263,204.651 116.461 M194.297 119.831 C 191.446 121.257,190.883 123.077,193.294 123.077 C 194.162 123.077,194.872 122.604,194.872 122.026 C 194.872 121.232,195.953 121.064,199.295 121.342 C 203.609 121.699,203.696 121.667,202.817 120.026 C 201.729 117.993,198.136 117.911,194.297 119.831 M259.566 120.301 C 259.566 121.822,262.267 122.460,267.113 122.085 L 271.006 121.783 266.469 121.641 C 263.026 121.533,261.933 121.214,261.933 120.316 C 261.933 119.665,261.400 119.132,260.750 119.132 C 260.099 119.132,259.566 119.658,259.566 120.301 M186.982 121.469 C 186.331 121.836,184.237 122.599,182.329 123.166 C 180.238 123.786,178.712 124.757,178.489 125.609 C 178.286 126.386,177.806 127.022,177.423 127.022 C 177.039 127.022,176.726 127.609,176.726 128.327 C 176.726 129.542,176.827 129.542,178.171 128.326 C 178.965 127.607,179.853 127.256,180.143 127.546 C 180.433 127.836,180.671 127.482,180.671 126.759 C 180.671 125.780,181.382 125.444,183.457 125.444 C 185.205 125.444,186.412 125.003,186.697 124.260 C 186.947 123.609,187.823 123.077,188.645 123.077 C 189.466 123.077,190.138 122.544,190.138 121.893 C 190.138 120.601,188.836 120.426,186.982 121.469 M273.963 122.485 C 274.192 123.172,276.753 123.528,282.403 123.657 C 290.213 123.836,293.979 123.170,292.015 121.956 C 291.525 121.653,291.124 121.782,291.124 122.241 C 291.124 122.706,289.547 123.077,287.574 123.077 C 285.621 123.077,284.024 122.722,284.024 122.288 C 284.024 121.854,283.491 121.499,282.840 121.499 C 282.189 121.499,281.657 121.854,281.657 122.288 C 281.657 122.722,280.393 123.077,278.849 123.077 C 277.178 123.077,276.238 122.757,276.529 122.288 C 276.797 121.854,276.256 121.499,275.326 121.499 C 274.325 121.499,273.769 121.901,273.963 122.485 M127.022 126.964 C 127.022 129.294,127.347 130.178,128.205 130.178 C 128.863 130.178,129.389 130.879,129.389 131.755 C 129.389 132.623,129.837 133.333,130.385 133.333 C 130.933 133.333,132.047 134.221,132.862 135.306 C 133.677 136.391,134.826 137.278,135.416 137.278 C 137.504 137.278,136.448 135.094,133.380 133.063 C 130.674 131.273,130.238 130.568,130.027 127.640 C 129.679 122.833,127.022 122.235,127.022 126.964 M166.469 127.723 C 164.984 128.133,164.437 128.877,164.254 130.738 C 164.050 132.823,164.244 133.149,165.495 132.822 C 166.400 132.585,166.955 131.764,166.921 130.714 C 166.878 129.407,167.384 128.934,169.034 128.744 C 170.227 128.607,171.203 128.163,171.203 127.758 C 171.203 126.929,169.398 126.915,166.469 127.723 M218.146 127.991 C 216.620 128.882,216.633 128.929,218.540 129.413 C 221.002 130.037,222.485 129.551,222.485 128.121 C 222.485 126.793,220.309 126.728,218.146 127.991 M211.440 130.178 C 211.440 130.611,209.994 130.966,208.226 130.966 C 205.592 130.966,205.060 131.215,205.274 132.347 C 205.593 134.030,210.962 134.712,212.678 133.288 C 214.165 132.054,214.128 129.389,212.623 129.389 C 211.972 129.389,211.440 129.744,211.440 130.178 M306.308 130.375 C 306.807 131.892,310.059 132.111,310.059 130.627 C 310.059 129.821,309.347 129.389,308.021 129.389 C 306.743 129.389,306.104 129.756,306.308 130.375 M154.484 131.025 C 154.314 131.537,153.301 132.042,152.235 132.149 C 151.168 132.256,149.892 132.388,149.399 132.444 C 148.366 132.560,147.466 137.278,148.477 137.278 C 148.845 137.278,149.551 136.391,150.045 135.306 C 150.745 133.770,151.532 133.333,153.603 133.333 C 155.239 133.333,156.437 132.878,156.717 132.150 C 156.966 131.499,157.843 130.966,158.664 130.966 C 159.486 130.966,160.158 131.499,160.158 132.150 C 160.158 132.801,160.539 133.333,161.005 133.333 C 161.470 133.333,161.734 132.712,161.590 131.953 C 161.276 130.301,154.999 129.481,154.484 131.025 M312.778 131.824 C 312.037 133.024,313.548 134.326,315.292 133.990 C 317.656 133.535,317.656 130.966,315.292 130.966 C 314.201 130.966,313.070 131.352,312.778 131.824 M196.055 134.244 C 195.187 134.719,194.034 135.664,193.491 136.344 C 192.604 137.456,192.505 137.446,192.505 136.245 C 192.505 135.512,192.183 134.911,191.790 134.911 C 191.397 134.911,191.260 135.621,191.487 136.489 C 191.961 138.299,193.495 138.537,195.013 137.037 C 195.586 136.470,196.677 135.771,197.436 135.484 C 198.195 135.196,198.817 134.595,198.817 134.147 C 198.817 133.122,198.059 133.148,196.055 134.244 M317.160 134.542 C 317.160 136.442,319.608 136.946,320.816 135.294 C 321.400 134.496,321.700 133.665,321.483 133.449 C 321.266 133.232,320.571 133.738,319.938 134.574 C 318.894 135.955,318.786 135.968,318.763 134.714 C 318.732 133.021,317.160 132.851,317.160 134.542 M140.171 134.648 C 139.882 134.938,139.645 135.648,139.645 136.226 C 139.645 137.789,142.627 137.501,143.046 135.897 C 143.390 134.583,143.411 134.583,143.498 135.897 C 143.606 137.523,145.957 137.792,145.957 136.179 C 145.957 134.484,141.511 133.308,140.171 134.648 M247.803 138.125 C 246.304 139.373,246.106 139.910,246.870 140.663 C 247.629 141.411,248.059 141.319,248.858 140.237 C 249.419 139.477,250.283 138.856,250.777 138.856 C 251.272 138.856,251.677 138.323,251.677 137.673 C 251.677 136.046,250.075 136.233,247.803 138.125 M186.982 138.238 C 186.982 138.940,186.538 139.693,185.996 139.911 C 185.454 140.130,185.365 140.332,185.799 140.360 C 187.618 140.475,188.977 138.957,187.962 137.942 C 187.182 137.162,186.982 137.222,186.982 138.238 M322.296 138.054 C 321.714 138.996,322.453 140.434,323.518 140.434 C 324.478 140.434,324.484 138.299,323.526 137.706 C 323.122 137.457,322.568 137.613,322.296 138.054 M112.561 140.490 C 111.836 141.337,111.243 142.698,111.243 143.514 C 111.243 144.331,110.710 145.203,110.059 145.453 C 109.408 145.703,108.876 146.628,108.876 147.510 C 108.876 148.391,108.521 149.112,108.087 149.112 C 107.653 149.112,107.298 149.849,107.298 150.748 C 107.298 153.159,109.763 152.361,111.150 149.501 C 111.779 148.203,112.769 146.196,113.349 145.042 C 113.929 143.887,114.187 142.379,113.922 141.689 C 113.399 140.326,114.787 139.936,115.582 141.223 C 115.850 141.657,117.139 142.012,118.446 142.012 C 120.420 142.012,120.645 141.835,119.777 140.966 C 117.847 139.036,114.022 138.784,112.561 140.490 M17.357 140.389 C 17.357 140.798,15.848 141.280,14.004 141.460 C 10.914 141.762,10.955 141.781,14.534 141.702 C 17.737 141.632,21.289 139.645,18.212 139.645 C 17.742 139.645,17.357 139.980,17.357 140.389 M175.148 140.350 C 175.148 142.203,179.582 142.485,182.750 140.833 L 185.010 139.655 182.051 139.650 C 180.424 139.647,179.093 140.000,179.093 140.434 C 179.093 140.868,178.560 141.223,177.909 141.223 C 177.258 141.223,176.726 140.868,176.726 140.434 C 176.726 140.000,176.371 139.645,175.937 139.645 C 175.503 139.645,175.148 139.962,175.148 140.350 M171.001 142.701 C 170.703 143.837,170.955 144.089,172.092 143.792 C 173.794 143.347,174.113 141.223,172.479 141.223 C 171.878 141.223,171.213 141.888,171.001 142.701 M327.857 142.381 C 329.846 143.886,331.361 143.896,331.361 142.406 C 331.361 141.602,330.555 141.223,328.843 141.223 C 326.460 141.223,326.407 141.285,327.857 142.381 M27.153 144.120 C 27.427 146.027,32.347 146.693,32.347 144.823 C 32.347 144.133,31.680 143.590,30.834 143.590 C 30.001 143.590,28.786 143.385,28.133 143.134 C 27.310 142.818,27.010 143.120,27.153 144.120 M165.334 143.512 C 164.415 144.999,167.036 146.066,168.358 144.744 C 169.055 144.047,169.625 143.402,169.625 143.311 C 169.625 142.763,165.683 142.948,165.334 143.512 M245.516 145.530 C 245.573 147.066,245.918 148.323,246.282 148.323 C 247.206 148.323,247.112 143.788,246.177 143.209 C 245.730 142.933,245.454 143.900,245.516 145.530 M160.947 144.547 C 160.947 145.419,163.124 145.323,163.679 144.426 C 163.931 144.019,163.419 143.739,162.542 143.805 C 161.664 143.871,160.947 144.205,160.947 144.547 M34.714 146.351 C 34.714 147.087,35.459 147.535,36.686 147.535 C 37.914 147.535,38.659 147.087,38.659 146.351 C 38.659 145.615,37.914 145.168,36.686 145.168 C 35.459 145.168,34.714 145.615,34.714 146.351 M155.139 146.351 C 154.811 147.206,155.225 147.535,156.632 147.535 C 157.838 147.535,158.580 147.083,158.580 146.351 C 158.580 145.700,157.908 145.168,157.086 145.168 C 156.265 145.168,155.389 145.700,155.139 146.351 M334.517 147.929 C 334.517 148.580,335.093 149.112,335.797 149.112 C 336.845 149.112,336.899 148.898,336.095 147.929 C 335.554 147.278,334.978 146.746,334.815 146.746 C 334.651 146.746,334.517 147.278,334.517 147.929 M126.233 148.770 C 126.233 149.646,126.847 149.933,128.342 149.757 C 131.413 149.393,131.684 147.535,128.665 147.535 C 126.983 147.535,126.233 147.916,126.233 148.770 M147.535 148.323 C 147.535 148.757,146.621 149.112,145.504 149.112 C 144.001 149.112,143.543 149.468,143.738 150.484 C 144.101 152.368,146.816 152.740,148.036 151.072 C 148.603 150.297,149.567 149.907,150.258 150.172 C 151.913 150.807,153.846 149.979,153.846 148.634 C 153.846 147.267,151.755 147.178,151.213 148.521 C 150.894 149.310,150.802 149.310,150.753 148.521 C 150.679 147.359,147.535 147.166,147.535 148.323 M46.206 149.817 C 45.374 151.163,46.438 152.268,48.567 152.268 C 49.718 152.268,50.493 151.811,50.493 151.131 C 50.493 149.620,49.166 148.858,48.477 149.973 C 48.079 150.616,47.767 150.597,47.337 149.901 C 46.914 149.217,46.592 149.193,46.206 149.817 M132.695 150.493 C 132.912 151.624,133.812 151.874,137.673 151.874 C 141.533 151.874,142.433 151.624,142.651 150.493 C 142.797 149.734,142.535 149.112,142.070 149.112 C 141.604 149.112,141.223 149.645,141.223 150.296 C 141.223 151.172,140.302 151.479,137.673 151.479 C 135.043 151.479,134.122 151.172,134.122 150.296 C 134.122 149.645,133.741 149.112,133.275 149.112 C 132.810 149.112,132.548 149.734,132.695 150.493 M338.524 149.756 C 338.422 151.461,340.012 153.846,341.251 153.846 C 341.886 153.846,342.406 154.201,342.406 154.635 C 342.406 155.069,342.939 155.424,343.590 155.424 C 344.241 155.424,344.773 155.957,344.773 156.607 C 344.773 157.258,345.276 157.791,345.891 157.791 C 346.506 157.791,347.167 158.235,347.361 158.777 C 347.554 159.320,347.915 159.580,348.163 159.356 C 348.819 158.761,343.702 153.057,342.513 153.057 C 341.339 153.057,339.702 151.561,339.045 149.887 C 338.720 149.059,338.568 149.021,338.524 149.756 M245.206 152.465 C 244.692 160.775,245.048 169.626,245.910 169.962 C 246.607 170.234,246.847 167.697,246.841 160.115 C 246.834 151.091,245.638 145.494,245.206 152.465 M57.606 155.951 C 57.576 158.231,58.673 159.369,60.900 159.369 C 62.430 159.369,63.132 159.025,62.915 158.383 C 62.732 157.840,61.804 157.396,60.853 157.396 C 59.901 157.396,58.784 156.864,58.370 156.213 C 57.941 155.538,57.613 155.425,57.606 155.951 M64.158 161.341 C 64.276 163.302,64.638 163.708,66.272 163.708 C 67.712 163.708,68.312 164.183,68.495 165.467 C 68.632 166.435,69.875 168.023,71.256 168.997 C 73.638 170.677,76.315 173.333,80.264 177.935 C 81.234 179.065,82.389 179.766,82.830 179.494 C 83.271 179.221,83.959 179.858,84.359 180.910 C 85.132 182.943,86.549 183.814,88.166 183.250 C 89.544 182.769,89.400 181.460,87.968 181.460 C 87.318 181.460,86.785 180.927,86.785 180.276 C 86.785 179.625,86.252 179.093,85.602 179.093 C 84.951 179.093,84.418 178.738,84.418 178.304 C 84.418 177.870,83.531 177.515,82.446 177.515 C 81.361 177.515,80.473 177.146,80.473 176.695 C 80.473 175.605,74.520 169.625,73.435 169.625 C 72.967 169.625,72.584 169.093,72.584 168.442 C 72.584 167.791,72.213 167.258,71.760 167.258 C 71.307 167.258,70.994 166.815,71.065 166.272 C 71.334 164.196,70.964 163.314,69.822 163.314 C 69.172 163.314,68.639 162.774,68.639 162.115 C 68.639 161.243,68.122 161.046,66.738 161.394 C 65.315 161.751,64.733 161.506,64.426 160.423 C 64.201 159.626,64.080 160.039,64.158 161.341 M353.006 166.942 C 353.318 168.183,354.610 170.125,355.879 171.257 C 357.147 172.390,358.185 174.083,358.185 175.021 C 358.185 176.270,358.660 176.719,359.961 176.701 C 361.604 176.678,361.634 176.598,360.355 175.628 C 359.596 175.051,358.974 173.820,358.974 172.891 C 358.974 171.963,358.594 171.203,358.129 171.203 C 356.786 171.203,355.197 169.255,354.904 167.251 C 354.756 166.238,354.141 165.247,353.538 165.048 C 352.691 164.768,352.569 165.201,353.006 166.942 M363.302 180.473 C 363.576 181.016,363.402 181.460,362.913 181.460 C 360.622 181.460,362.525 185.799,364.892 185.971 C 366.193 186.066,366.815 185.947,366.272 185.708 C 365.730 185.469,365.286 184.660,365.286 183.911 C 365.286 183.163,364.727 181.861,364.044 181.019 C 363.361 180.176,363.027 179.931,363.302 180.473 M104.931 183.432 C 104.931 185.361,104.799 185.404,99.014 185.404 C 94.280 185.404,93.097 185.168,93.097 184.221 C 93.097 183.570,92.716 183.037,92.250 183.037 C 91.784 183.037,91.522 183.659,91.667 184.418 C 92.009 186.208,105.542 186.951,106.627 185.240 C 107.678 183.584,107.390 181.460,106.114 181.460 C 105.378 181.460,104.931 182.205,104.931 183.432 M364.947 188.470 C 364.709 188.855,365.194 189.347,366.025 189.565 C 367.082 189.841,367.409 189.631,367.115 188.865 C 366.638 187.623,365.589 187.432,364.947 188.470 M368.657 194.083 C 368.657 196.036,368.811 196.834,368.999 195.858 C 369.187 194.882,369.187 193.284,368.999 192.308 C 368.811 191.331,368.657 192.130,368.657 194.083 M370.158 199.713 C 370.082 201.290,370.550 203.598,371.198 204.841 C 372.278 206.911,372.377 206.952,372.382 205.325 C 372.384 204.349,372.052 203.550,371.643 203.550 C 371.234 203.550,370.764 202.041,370.597 200.197 C 370.305 196.954,370.291 196.938,370.158 199.713 M372.494 210.013 C 372.435 211.614,372.742 213.144,373.176 213.412 C 373.609 213.680,373.964 215.133,373.964 216.639 C 373.964 218.381,374.408 219.549,375.182 219.846 C 377.015 220.549,377.708 219.343,376.133 218.192 C 375.204 217.513,374.753 216.116,374.753 213.917 C 374.753 212.121,374.423 210.651,374.019 210.651 C 373.616 210.651,373.131 209.852,372.943 208.876 C 372.728 207.757,372.562 208.178,372.494 210.013 M194.695 248.960 C 193.225 250.431,195.287 251.278,200.207 251.225 C 204.260 251.181,205.523 250.900,205.523 250.042 C 205.523 248.868,195.762 247.893,194.695 248.960 M375.740 251.701 C 374.232 252.307,373.964 253.007,373.964 256.338 C 373.964 258.496,373.609 260.481,373.176 260.750 C 371.660 261.686,372.200 270.620,373.767 270.549 C 374.592 270.512,374.751 270.327,374.162 270.089 C 372.996 269.618,372.817 265.089,373.964 265.089 C 374.414 265.089,374.753 262.750,374.753 259.652 C 374.753 254.510,374.861 254.188,376.726 253.719 C 377.811 253.447,378.698 252.699,378.698 252.056 C 378.698 250.737,378.266 250.685,375.740 251.701 M205.128 253.624 C 205.128 254.330,205.591 254.605,206.312 254.329 C 206.963 254.079,207.495 253.558,207.495 253.170 C 207.495 252.783,206.963 252.465,206.312 252.465 C 205.661 252.465,205.128 252.987,205.128 253.624 M195.345 256.225 C 195.823 256.544,196.416 257.337,196.664 257.988 C 196.965 258.779,197.135 258.583,197.176 257.396 C 197.218 256.204,196.786 255.625,195.858 255.633 C 195.006 255.641,194.810 255.868,195.345 256.225 M249.551 262.441 C 249.033 262.651,248.805 263.333,249.044 263.956 C 249.669 265.586,250.532 265.350,250.671 263.511 C 250.736 262.643,250.723 261.961,250.641 261.995 C 250.560 262.029,250.069 262.230,249.551 262.441 M259.959 265.883 C 259.314 267.913,259.543 268.202,261.283 267.554 C 262.414 267.132,262.452 266.854,261.550 265.626 C 260.546 264.259,260.471 264.271,259.959 265.883 M243.945 268.402 C 243.009 269.338,242.629 271.400,243.393 271.400 C 243.609 271.400,244.497 270.690,245.365 269.822 C 246.233 268.955,246.943 268.067,246.943 267.850 C 246.943 267.087,244.881 267.467,243.945 268.402 M238.477 272.395 C 236.859 274.488,236.465 275.550,237.425 275.231 C 237.952 275.055,238.330 274.579,238.265 274.173 C 238.200 273.767,238.772 273.215,239.534 272.948 C 240.386 272.649,240.595 272.260,240.076 271.940 C 239.612 271.653,238.892 271.858,238.477 272.395 M220.366 274.359 C 220.096 275.118,219.768 275.947,219.637 276.200 C 219.506 276.453,219.916 276.660,220.548 276.660 C 221.225 276.660,221.696 275.905,221.696 274.819 C 221.696 272.642,221.056 272.420,220.366 274.359 M370.332 275.148 C 370.097 275.907,369.575 277.145,369.173 277.899 C 368.771 278.652,368.442 279.856,368.442 280.573 C 368.442 281.290,367.855 282.306,367.138 282.831 C 366.421 283.355,366.087 284.193,366.395 284.693 C 367.417 286.346,368.363 285.639,368.890 282.832 C 369.176 281.308,369.724 279.867,370.109 279.629 C 370.494 279.391,370.809 278.330,370.809 277.271 C 370.809 276.085,371.263 275.345,371.992 275.345 C 372.643 275.345,373.176 274.990,373.176 274.556 C 373.176 273.198,370.781 273.697,370.332 275.148 M223.274 275.836 C 223.274 276.787,223.534 276.901,224.284 276.278 C 224.840 275.817,227.236 275.307,229.610 275.144 C 233.869 274.852,233.856 274.846,228.600 274.702 C 224.153 274.580,223.274 274.768,223.274 275.836 M202.324 276.203 C 201.636 277.317,203.156 278.837,204.271 278.149 C 204.742 277.857,205.128 277.107,205.128 276.482 C 205.128 275.154,203.098 274.952,202.324 276.203 M206.706 280.473 C 206.706 281.776,208.096 282.002,209.731 280.966 C 210.570 280.433,210.517 280.196,209.469 279.794 C 207.428 279.011,206.706 279.188,206.706 280.473 M215.888 284.418 C 216.138 285.069,216.659 285.602,217.047 285.602 C 217.434 285.602,217.751 286.134,217.751 286.785 C 217.751 287.574,218.540 287.968,220.118 287.968 C 221.851 287.968,222.482 287.599,222.473 286.588 C 222.463 285.408,222.350 285.379,221.696 286.391 C 221.248 287.084,220.926 287.189,220.919 286.644 C 220.901 285.206,218.595 283.235,216.931 283.235 C 215.925 283.235,215.583 283.622,215.888 284.418 M241.420 284.418 C 241.420 285.069,241.775 285.602,242.209 285.602 C 242.643 285.602,242.998 285.069,242.998 284.418 C 242.998 283.767,242.643 283.235,242.209 283.235 C 241.775 283.235,241.420 283.767,241.420 284.418 M223.274 286.688 C 223.274 287.574,223.943 287.949,225.444 287.906 C 226.680 287.871,227.104 287.655,226.430 287.406 C 225.779 287.165,224.803 286.617,224.260 286.188 C 223.556 285.631,223.274 285.775,223.274 286.688 M230.814 286.850 C 229.535 287.785,229.495 287.968,230.572 287.968 C 231.280 287.968,232.094 287.590,232.380 287.127 C 233.216 285.774,232.467 285.641,230.814 286.850 M235.121 286.588 C 235.107 288.114,237.827 288.525,238.691 287.127 C 239.505 285.811,238.270 285.111,237.432 286.413 C 236.778 287.432,236.591 287.429,235.910 286.391 C 235.244 285.377,235.131 285.406,235.121 286.588 M364.497 288.363 C 364.497 289.649,364.056 290.335,363.228 290.335 C 362.283 290.335,362.080 290.818,362.434 292.225 C 362.755 293.505,362.527 294.262,361.730 294.568 C 361.082 294.816,360.552 295.918,360.552 297.017 C 360.552 298.115,360.197 299.014,359.763 299.014 C 359.329 299.014,358.974 299.546,358.974 300.197 C 358.974 300.848,359.250 301.381,359.588 301.381 C 360.592 301.381,362.919 298.304,362.919 296.976 C 362.919 296.299,363.452 295.213,364.103 294.562 C 364.753 293.911,365.286 292.516,365.286 291.462 C 365.286 290.409,365.641 289.546,366.075 289.546 C 366.509 289.546,366.864 288.836,366.864 287.968 C 366.864 287.092,366.338 286.391,365.680 286.391 C 364.944 286.391,364.497 287.136,364.497 288.363 M88.715 309.339 C 88.423 309.811,88.568 310.580,89.037 311.049 C 89.647 311.659,90.032 311.528,90.394 310.586 C 90.855 309.384,94.052 309.270,127.348 309.270 L 163.798 309.270 164.655 311.440 L 165.513 313.609 165.597 311.045 L 165.680 308.481 127.463 308.481 C 100.793 308.481,89.085 308.740,88.715 309.339 M171.203 314.107 C 171.203 315.161,173.232 317.160,174.303 317.160 C 174.768 317.160,175.148 317.692,175.148 318.343 C 175.148 318.994,175.680 319.527,176.331 319.527 C 178.898 319.527,176.849 316.238,173.057 314.270 C 171.914 313.677,171.203 313.615,171.203 314.107 M341.666 319.759 C 339.501 321.990,338.496 323.703,338.569 325.041 C 338.670 326.896,338.698 326.909,339.018 325.247 C 339.206 324.270,339.691 323.471,340.094 323.471 C 340.498 323.471,340.828 322.939,340.828 322.288 C 340.828 321.633,341.529 321.105,342.397 321.105 C 343.931 321.105,347.140 318.908,347.140 317.858 C 347.140 315.955,344.453 316.888,341.666 319.759 M79.882 320.083 C 78.531 320.344,78.132 320.931,78.214 322.540 C 78.308 324.399,78.363 324.440,78.663 322.880 C 78.851 321.903,79.492 321.105,80.087 321.105 C 80.682 321.105,81.389 320.750,81.657 320.316 C 81.925 319.882,82.035 319.575,81.901 319.634 C 81.767 319.693,80.858 319.895,79.882 320.083 M183.037 326.291 C 183.037 327.025,183.574 327.428,184.353 327.277 C 186.332 326.893,186.604 325.049,184.681 325.049 C 183.712 325.049,183.037 325.559,183.037 326.291 M64.398 331.201 C 64.184 331.548,64.297 332.296,64.648 332.864 C 65.462 334.181,68.639 333.257,68.639 331.702 C 68.639 330.506,65.088 330.086,64.398 331.201 M325.049 334.147 C 325.049 334.784,325.582 335.306,326.233 335.306 C 326.884 335.306,327.416 334.989,327.416 334.601 C 327.416 334.214,326.884 333.692,326.233 333.443 C 325.512 333.166,325.049 333.441,325.049 334.147 M197.239 336.405 C 197.239 337.009,197.771 337.708,198.422 337.958 C 199.227 338.267,199.606 337.915,199.606 336.859 C 199.606 336.004,199.073 335.306,198.422 335.306 C 197.771 335.306,197.239 335.800,197.239 336.405 M318.616 338.462 C 317.315 339.763,315.562 340.828,314.722 340.828 C 313.881 340.828,312.577 341.158,311.824 341.560 C 311.070 341.962,309.832 342.483,309.073 342.718 C 308.314 342.953,307.664 343.956,307.630 344.946 C 307.596 345.936,307.389 346.302,307.170 345.759 C 306.594 344.332,303.748 344.540,303.748 346.009 C 303.748 347.969,307.922 347.122,308.866 344.970 C 309.331 343.911,310.337 343.195,311.364 343.195 C 312.310 343.195,313.202 342.852,313.346 342.431 C 313.491 342.011,314.763 341.581,316.174 341.475 C 317.639 341.364,318.738 340.846,318.738 340.266 C 318.738 339.708,319.270 339.250,319.921 339.250 C 320.572 339.250,321.105 338.895,321.105 338.462 C 321.105 338.028,321.658 337.673,322.335 337.673 C 323.011 337.673,323.345 337.318,323.077 336.884 C 322.264 335.568,321.098 335.980,318.616 338.462 M209.073 344.287 C 209.073 345.249,209.848 345.562,212.229 345.562 C 213.964 345.562,215.385 345.917,215.385 346.351 C 215.385 346.785,215.917 347.140,216.568 347.140 C 218.650 347.140,217.834 344.969,215.582 344.516 C 214.389 344.276,212.436 343.839,211.243 343.546 C 209.550 343.129,209.073 343.292,209.073 344.287 M43.755 345.615 C 43.469 346.077,43.496 346.699,43.816 346.995 C 44.136 347.292,44.569 347.051,44.779 346.459 C 45.080 345.612,45.292 345.594,45.775 346.377 C 46.113 346.923,46.980 347.143,47.702 346.866 C 48.424 346.589,48.794 346.005,48.524 345.568 C 47.873 344.514,44.414 344.548,43.755 345.615 M32.939 347.738 C 30.595 349.191,30.037 351.085,31.953 351.085 C 32.604 351.085,33.136 350.730,33.136 350.296 C 33.136 349.862,34.734 349.507,36.686 349.507 C 39.711 349.507,40.237 349.273,40.237 347.929 C 40.237 345.892,36.091 345.784,32.939 347.738 M295.648 347.463 C 295.036 348.074,293.707 348.696,292.695 348.844 C 289.820 349.263,289.772 351.085,292.636 351.085 C 293.974 351.085,295.069 350.730,295.069 350.296 C 295.069 349.862,296.312 349.507,297.830 349.507 C 300.733 349.507,301.729 347.745,299.344 346.830 C 297.504 346.124,296.880 346.231,295.648 347.463 M225.641 350.296 C 225.641 350.730,226.529 351.085,227.613 351.085 C 228.698 351.085,229.586 350.730,229.586 350.296 C 229.586 349.862,228.698 349.507,227.613 349.507 C 226.529 349.507,225.641 349.862,225.641 350.296 M17.357 352.318 C 17.357 353.230,18.011 353.487,19.860 353.304 C 23.477 352.947,23.749 351.085,20.184 351.085 C 18.146 351.085,17.357 351.429,17.357 352.318 M277.909 352.071 C 278.090 352.613,278.828 353.172,279.550 353.312 C 280.465 353.489,280.718 353.191,280.386 352.326 C 279.827 350.867,277.426 350.620,277.909 352.071 M245.947 352.343 C 245.668 352.622,245.973 353.383,246.623 354.034 C 247.274 354.685,248.035 354.989,248.314 354.710 C 248.593 354.431,248.289 353.671,247.638 353.020 C 246.987 352.369,246.226 352.064,245.947 352.343 M271.904 356.213 C 272.154 356.864,272.842 357.396,273.432 357.396 C 274.063 357.396,274.319 356.908,274.053 356.213 C 273.803 355.562,273.115 355.030,272.524 355.030 C 271.893 355.030,271.637 355.518,271.904 356.213 " stroke="none" fill="#b8d5de" fill-rule="evenodd"></path><path id="path6" d="M280.473 354.241 C 280.742 354.675,281.671 355.030,282.539 355.030 C 283.407 355.030,283.897 354.675,283.629 354.241 C 283.361 353.807,282.432 353.452,281.564 353.452 C 280.696 353.452,280.205 353.807,280.473 354.241 " stroke="none" fill="#00ffff" fill-rule="evenodd"></path><path id="path7" d="" stroke="none" fill="#0080ff" fill-rule="evenodd"></path><path id="path8" d="" stroke="none" fill="#000080" fill-rule="evenodd"></path><path id="path9" d="M338.043 146.785 C 337.293 147.998,338.320 148.781,339.332 147.768 C 339.899 147.202,339.913 146.760,339.374 146.427 C 338.932 146.154,338.333 146.315,338.043 146.785 M245.858 269.921 C 244.038 272.047,244.674 272.683,246.548 270.611 C 247.339 269.738,247.820 268.859,247.619 268.658 C 247.418 268.457,246.625 269.025,245.858 269.921 M225.838 277.467 C 226.598 277.665,227.840 277.665,228.600 277.467 C 229.359 277.268,228.738 277.106,227.219 277.106 C 225.700 277.106,225.079 277.268,225.838 277.467 " stroke="none" fill="#0000ff" fill-rule="evenodd"></path></g></svg>
