<svg id="svg" version="1.1" width="507" height="500" xmlns="http://www.w3.org/2000/svg" xmlns:xlink="http://www.w3.org/1999/xlink" style="display: block;"><g id="svgg"><path id="path0" d="M124.030 36.095 C 123.473 36.854,123.264 36.977,123.564 36.367 C 123.919 35.645,123.792 35.455,123.199 35.822 C 122.698 36.132,122.329 37.695,122.379 39.297 C 122.433 40.986,122.632 41.546,122.855 40.631 C 123.363 38.547,125.411 36.292,126.796 36.292 C 127.405 36.292,127.684 35.937,127.416 35.503 C 126.670 34.296,125.153 34.561,124.030 36.095 M169.692 35.306 C 169.899 37.140,175.937 41.156,176.455 39.804 C 177.081 38.173,173.929 35.196,172.257 35.838 C 171.677 36.060,171.203 35.899,171.203 35.478 C 171.203 35.058,170.848 34.714,170.414 34.714 C 169.980 34.714,169.655 34.980,169.692 35.306 M174.799 37.411 C 175.640 38.026,176.152 38.706,175.936 38.921 C 175.719 39.136,174.704 38.632,173.680 37.802 C 171.537 36.065,172.499 35.729,174.799 37.411 M201.549 41.862 C 201.297 42.270,201.944 42.604,202.987 42.604 C 204.030 42.604,205.471 43.253,206.189 44.046 C 208.042 46.094,207.814 46.868,205.917 44.970 C 205.049 44.103,203.932 43.393,203.435 43.393 C 202.938 43.393,203.489 44.280,204.659 45.365 C 207.855 48.327,209.383 47.709,207.512 44.213 C 206.591 42.493,202.223 40.771,201.549 41.862 M118.821 48.260 C 119.208 48.887,118.956 49.016,118.037 48.664 C 117.293 48.378,116.881 48.465,117.124 48.857 C 117.366 49.249,117.187 49.695,116.725 49.849 C 116.243 50.010,116.130 50.764,116.459 51.621 C 116.994 53.015,117.074 52.996,117.689 51.334 C 118.051 50.356,119.087 49.362,119.990 49.126 C 121.239 48.799,121.380 48.536,120.580 48.029 C 119.063 47.067,118.157 47.187,118.821 48.260 M237.475 47.976 C 237.475 48.400,238.038 48.962,238.725 49.226 C 239.493 49.521,239.854 49.344,239.662 48.768 C 239.268 47.588,237.475 46.939,237.475 47.976 M97.041 58.368 C 97.041 59.370,96.345 60.105,95.101 60.417 C 92.476 61.076,91.788 62.103,91.177 66.272 L 90.658 69.822 92.469 67.463 C 93.465 66.165,94.882 64.498,95.617 63.759 C 96.927 62.442,98.473 56.805,97.524 56.805 C 97.258 56.805,97.041 57.508,97.041 58.368 M355.014 60.974 C 356.090 61.518,357.416 62.845,357.961 63.921 L 358.951 65.878 358.963 63.866 C 358.978 61.307,357.628 59.957,355.069 59.972 L 353.057 59.984 355.014 60.974 M90.831 101.381 C 90.689 118.738,90.326 132.053,90.025 130.971 C 89.472 128.982,86.785 127.692,86.785 129.415 C 86.785 129.927,87.313 130.144,87.959 129.896 C 88.605 129.648,89.079 129.699,89.013 130.009 C 88.668 131.630,90.192 134.993,90.822 134.000 C 91.321 133.212,91.498 133.193,91.507 133.925 C 91.513 134.467,91.912 134.911,92.392 134.911 C 92.955 134.911,93.025 134.421,92.589 133.531 C 92.217 132.771,91.728 118.126,91.501 100.986 L 91.089 69.822 90.831 101.381 M363.352 73.310 C 363.124 73.680,363.465 74.422,364.111 74.958 C 364.757 75.494,365.286 76.381,365.286 76.928 C 365.286 78.111,368.536 79.117,369.440 78.213 C 369.787 77.865,369.867 77.048,369.616 76.396 C 369.051 74.921,363.919 72.394,363.352 73.310 M371.325 80.473 C 371.952 84.704,372.219 85.207,373.843 85.207 C 375.528 85.207,376.728 86.403,377.403 88.757 C 377.652 89.625,377.723 88.813,377.559 86.952 C 377.204 82.906,375.282 79.684,373.223 79.684 C 372.401 79.684,371.546 79.241,371.322 78.698 C 371.099 78.156,371.100 78.955,371.325 80.473 M22.091 97.830 C 22.091 98.264,22.623 98.619,23.274 98.619 C 23.925 98.619,24.458 98.264,24.458 97.830 C 24.458 97.396,23.925 97.041,23.274 97.041 C 22.623 97.041,22.091 97.396,22.091 97.830 M377.247 102.761 C 377.108 105.145,374.641 108.087,372.781 108.087 C 372.130 108.087,371.598 108.380,371.598 108.739 C 371.598 109.098,372.673 109.234,373.986 109.041 C 376.836 108.623,378.119 106.571,377.688 103.119 C 377.400 100.809,377.362 100.778,377.247 102.761 M9.467 102.433 C 9.467 102.939,8.473 103.353,7.258 103.353 C 4.370 103.353,3.131 104.687,3.263 107.653 C 3.359 109.806,3.409 109.852,3.733 108.087 C 4.237 105.347,5.402 104.142,7.545 104.142 C 9.391 104.142,10.816 102.860,9.941 101.986 C 9.681 101.725,9.467 101.926,9.467 102.433 M36.292 104.222 C 37.377 104.645,38.708 105.578,39.250 106.295 C 40.163 107.502,40.237 107.498,40.237 106.246 C 40.237 104.968,37.301 103.294,35.254 103.403 C 34.740 103.431,35.207 103.799,36.292 104.222 M63.511 110.454 C 63.779 110.888,64.620 111.243,65.379 111.243 C 66.138 111.243,67.449 111.795,68.291 112.470 C 69.770 113.655,69.764 113.668,68.099 112.864 C 65.068 111.400,65.117 111.961,68.265 114.761 C 69.952 116.262,71.463 117.360,71.622 117.201 C 72.504 116.319,68.960 111.755,66.640 110.786 C 63.462 109.458,62.856 109.394,63.511 110.454 M371.598 113.116 C 371.598 115.449,371.894 115.838,373.984 116.256 C 375.450 116.550,376.648 117.425,377.090 118.525 C 377.652 119.925,377.820 120.009,377.859 118.910 C 377.942 116.572,375.778 112.213,374.083 111.306 C 371.763 110.064,371.598 110.185,371.598 113.116 M77.780 123.410 C 79.119 123.993,81.090 125.589,82.161 126.957 L 84.108 129.445 83.776 126.601 C 83.417 123.531,81.543 122.259,77.463 122.319 L 75.345 122.350 77.780 123.410 M3.237 129.127 C 3.122 132.662,3.860 134.122,5.758 134.122 C 7.300 134.122,7.315 134.058,6.001 133.098 C 5.230 132.534,4.311 130.848,3.958 129.350 L 3.317 126.627 3.237 129.127 M10.256 134.805 C 14.226 135.813,15.779 137.464,15.779 140.676 C 15.779 144.924,16.954 146.746,19.694 146.746 C 21.203 146.746,22.097 147.213,22.336 148.126 C 22.675 149.425,22.702 149.423,22.788 148.107 C 22.840 147.320,22.088 146.406,21.072 146.019 C 18.446 145.021,17.439 143.492,16.660 139.327 C 15.813 134.791,16.014 134.984,11.772 134.611 C 9.854 134.443,9.172 134.530,10.256 134.805 M377.909 136.042 C 377.909 136.663,378.620 137.397,379.488 137.673 C 384.202 139.169,384.562 148.754,380.008 151.531 C 377.579 153.012,377.566 153.051,379.487 153.042 C 382.935 153.026,383.724 151.915,384.059 146.602 C 384.481 139.922,383.443 136.076,381.238 136.153 C 380.318 136.185,379.746 135.919,379.967 135.561 C 380.188 135.204,379.816 134.911,379.139 134.911 C 378.463 134.911,377.909 135.420,377.909 136.042 M22.237 151.282 C 22.418 152.241,23.340 152.714,25.253 152.831 C 27.983 152.999,27.989 152.993,25.838 152.174 C 24.645 151.720,23.669 151.022,23.669 150.625 C 23.669 150.227,23.288 149.901,22.822 149.901 C 22.356 149.901,22.093 150.523,22.237 151.282 M28.771 154.045 C 28.118 155.720,28.933 159.369,29.959 159.369 C 30.880 159.369,34.714 163.147,34.714 164.054 C 34.714 164.931,36.735 165.680,39.103 165.680 C 40.455 165.680,41.135 166.234,41.482 167.620 C 42.153 170.293,43.297 171.061,47.376 171.582 C 49.827 171.895,50.411 171.812,49.310 171.308 C 48.442 170.911,46.854 169.642,45.781 168.487 C 44.708 167.332,42.324 165.722,40.485 164.908 C 38.219 163.906,36.981 162.795,36.647 161.466 C 36.350 160.282,35.206 159.110,33.762 158.512 C 32.368 157.935,30.938 156.506,30.339 155.092 C 29.484 153.076,29.218 152.898,28.771 154.045 M53.824 174.753 C 54.035 177.785,54.160 177.919,57.002 178.154 C 59.499 178.361,59.961 178.684,59.961 180.227 C 59.961 182.674,61.321 183.659,65.522 184.255 L 69.034 184.752 66.719 183.472 C 65.445 182.767,63.203 180.955,61.736 179.444 C 60.268 177.933,58.714 176.916,58.281 177.183 C 57.407 177.723,54.287 175.241,54.799 174.413 C 54.977 174.125,54.781 173.374,54.364 172.743 C 53.826 171.932,53.668 172.519,53.824 174.753 M70.986 184.346 C 71.431 184.566,71.795 185.711,71.795 186.890 C 71.795 189.630,73.113 190.927,75.897 190.927 C 77.710 190.927,78.107 191.271,78.107 192.843 C 78.107 193.897,78.664 195.317,79.346 195.999 C 80.741 197.394,84.418 197.687,84.418 196.403 C 84.418 195.944,84.095 195.767,83.700 196.011 C 82.681 196.641,80.395 195.637,80.919 194.789 C 81.159 194.401,80.979 194.083,80.520 194.083 C 80.060 194.083,79.684 193.355,79.684 192.465 C 79.684 191.366,78.812 190.482,76.971 189.713 C 75.478 189.089,73.792 187.624,73.223 186.458 C 72.655 185.292,71.737 184.249,71.183 184.141 C 70.630 184.033,70.541 184.125,70.986 184.346 M85.597 197.112 C 84.218 198.490,87.204 202.761,89.546 202.761 C 92.127 202.761,91.021 197.460,88.358 197.070 C 87.054 196.878,85.812 196.897,85.597 197.112 M374.556 204.438 C 370.608 208.332,370.710 210.448,374.742 208.290 C 376.019 207.607,378.536 202.161,377.791 201.694 C 377.639 201.599,376.183 202.834,374.556 204.438 M85.171 211.507 C 83.902 213.878,84.550 213.995,86.682 211.780 C 88.111 210.295,88.249 209.862,87.290 209.862 C 86.609 209.862,85.655 210.602,85.171 211.507 M370.436 222.758 C 370.092 223.992,368.704 225.696,367.351 226.543 L 364.892 228.084 367.253 227.849 C 369.798 227.595,371.988 224.426,371.383 221.871 C 371.151 220.893,370.886 221.141,370.436 222.758 M166.765 230.919 C 165.842 231.100,164.324 232.061,163.390 233.055 L 161.692 234.862 164.673 238.041 C 166.312 239.790,169.341 242.188,171.404 243.370 C 173.468 244.552,175.421 245.971,175.744 246.523 C 176.067 247.075,177.842 248.291,179.689 249.226 C 181.536 250.160,183.485 251.626,184.021 252.484 C 184.557 253.342,185.386 254.043,185.865 254.043 C 186.343 254.043,189.263 255.819,192.352 257.988 C 195.441 260.158,198.275 261.933,198.650 261.933 C 199.024 261.933,200.182 262.839,201.222 263.946 C 202.262 265.054,204.543 266.604,206.290 267.391 C 208.038 268.178,210.848 269.935,212.535 271.295 C 216.024 274.108,216.414 274.203,217.995 272.623 C 219.829 270.788,220.306 266.418,218.954 263.825 C 218.298 262.567,217.759 261.160,217.756 260.698 C 217.754 260.235,216.332 259.059,214.597 258.084 C 212.862 257.108,211.094 255.660,210.669 254.865 C 210.243 254.071,208.802 253.039,207.466 252.574 C 206.130 252.108,203.525 250.706,201.676 249.458 C 199.827 248.211,196.386 246.266,194.029 245.138 C 191.672 244.009,187.613 241.472,185.010 239.501 C 173.424 230.728,171.750 229.940,166.765 230.919 M363.346 236.096 C 362.564 238.144,361.438 240.223,360.844 240.717 C 359.603 241.746,359.367 246.154,360.552 246.154 C 362.475 246.154,364.395 242.904,364.911 238.779 C 365.663 232.756,365.034 231.677,363.346 236.096 M82.400 242.135 C 82.643 242.529,82.148 242.669,81.299 242.447 C 79.661 242.019,78.209 245.193,79.262 246.898 C 79.546 247.357,79.381 247.732,78.895 247.732 C 78.410 247.732,78.251 248.116,78.541 248.586 C 78.855 249.093,79.679 248.439,80.565 246.982 C 81.387 245.629,82.591 244.319,83.239 244.071 C 84.797 243.473,84.758 241.420,83.188 241.420 C 82.512 241.420,82.157 241.742,82.400 242.135 M381.879 248.166 C 381.865 248.621,382.175 249.331,382.566 249.744 C 382.958 250.156,383.450 251.203,383.658 252.071 C 384.029 253.610,384.040 253.609,384.129 252.025 C 384.180 251.131,383.700 249.711,383.063 248.869 C 382.425 248.026,381.893 247.710,381.879 248.166 M74.153 251.874 C 72.417 254.721,72.288 255.511,73.299 257.106 C 73.843 257.966,74.099 257.849,74.510 256.555 C 74.797 255.652,75.705 254.699,76.529 254.438 C 78.147 253.924,79.302 251.394,78.505 250.106 C 77.560 248.576,75.704 249.330,74.153 251.874 M384.221 254.437 C 384.221 254.653,385.641 256.294,387.377 258.082 C 389.557 260.329,390.533 262.028,390.533 263.578 C 390.533 265.957,392.975 267.989,394.616 266.976 C 395.162 266.638,395.292 266.775,394.951 267.327 C 394.644 267.825,394.757 268.856,395.204 269.619 C 395.867 270.752,395.970 270.570,395.765 268.623 C 395.429 265.420,394.162 263.213,391.748 261.632 C 390.541 260.841,389.744 259.580,389.744 258.461 C 389.744 256.375,387.878 254.429,386.622 255.205 C 386.169 255.485,385.799 255.338,385.799 254.879 C 385.799 254.419,385.444 254.043,385.010 254.043 C 384.576 254.043,384.221 254.221,384.221 254.437 M72.363 259.828 C 72.051 260.623,71.840 263.640,71.895 266.534 L 71.994 271.795 72.703 266.272 C 73.480 260.210,73.330 257.369,72.363 259.828 M71.898 276.923 C 71.858 280.087,72.050 280.907,72.609 279.949 C 73.087 279.131,73.108 277.495,72.665 275.610 C 71.955 272.593,71.953 272.596,71.898 276.923 M396.254 275.740 C 396.263 277.475,396.425 278.093,396.613 277.111 C 396.802 276.130,396.795 274.710,396.597 273.955 C 396.400 273.201,396.245 274.004,396.254 275.740 M396.292 283.235 C 396.292 285.621,396.440 286.598,396.620 285.404 C 396.801 284.211,396.801 282.258,396.620 281.065 C 396.440 279.872,396.292 280.848,396.292 283.235 M66.959 285.831 C 66.656 286.323,66.050 293.637,66.030 297.041 C 65.971 307.027,66.682 309.270,69.904 309.270 C 71.293 309.270,71.885 309.821,72.240 311.440 C 72.502 312.633,72.833 314.004,72.977 314.485 C 73.121 314.967,74.981 315.592,77.111 315.874 C 79.969 316.254,81.573 317.003,83.234 318.737 C 84.471 320.028,86.618 321.298,88.004 321.558 L 90.525 322.031 90.929 329.654 C 91.412 338.774,91.768 339.796,94.689 340.437 C 96.362 340.804,97.069 341.527,97.449 343.253 C 98.047 345.976,99.872 347.145,103.498 347.127 L 106.114 347.114 102.959 345.303 C 101.098 344.235,99.847 342.949,99.911 342.169 C 99.970 341.441,99.765 341.002,99.455 341.194 C 98.936 341.515,94.374 336.498,92.665 333.728 C 92.264 333.077,91.726 329.774,91.470 326.388 C 90.888 318.701,89.119 316.457,83.150 315.837 C 77.525 315.252,74.589 313.783,73.424 310.971 C 72.869 309.631,71.774 308.331,70.992 308.082 C 65.939 306.479,64.978 291.376,69.689 287.613 L 71.714 285.996 69.387 285.831 C 68.108 285.740,67.015 285.740,66.959 285.831 M396.055 320.438 C 396.055 321.646,390.659 326.602,388.303 327.558 C 385.970 328.505,389.992 328.311,392.771 327.343 C 395.145 326.515,397.825 321.033,396.502 319.710 C 396.256 319.464,396.055 319.792,396.055 320.438 M383.278 330.352 C 382.712 331.532,381.361 332.947,380.276 333.496 L 378.304 334.494 380.427 334.505 C 382.757 334.518,383.231 334.025,384.228 330.546 C 385.067 327.621,384.630 327.532,383.278 330.352 M370.414 337.012 C 369.980 338.011,368.738 339.273,367.653 339.817 L 365.680 340.805 367.753 340.817 C 370.246 340.831,371.813 339.163,371.461 336.872 C 371.207 335.221,371.191 335.223,370.414 337.012 M350.736 346.021 C 349.456 346.957,349.416 347.140,350.493 347.140 C 351.201 347.140,352.015 346.761,352.301 346.299 C 353.137 344.946,352.388 344.813,350.736 346.021 M197.239 349.056 C 197.239 351.693,199.236 353.452,202.226 353.449 L 204.734 353.446 202.240 351.925 C 200.869 351.089,199.513 349.670,199.228 348.772 C 198.518 346.533,197.239 346.715,197.239 349.056 M334.517 348.718 C 334.517 349.586,333.807 351.006,332.939 351.874 C 330.909 353.904,332.104 353.891,335.570 351.846 C 339.278 349.659,339.941 347.140,336.810 347.140 C 335.043 347.140,334.517 347.502,334.517 348.718 M216.115 356.444 C 216.548 359.133,216.808 359.380,219.338 359.507 C 220.852 359.583,221.381 359.456,220.513 359.225 C 218.208 358.611,216.963 357.398,216.963 355.768 C 216.963 354.979,216.666 354.150,216.303 353.926 C 215.941 353.702,215.856 354.835,216.115 356.444 M325.441 355.040 C 325.163 355.913,323.631 357.317,322.034 358.161 C 319.237 359.638,319.209 359.695,321.250 359.728 C 325.281 359.795,327.416 358.448,327.416 355.838 C 327.416 353.135,326.201 352.644,325.441 355.040 " stroke="none" fill="#000000" fill-rule="evenodd"></path><path id="path1" d="M158.277 36.857 C 158.017 37.117,158.161 37.760,158.596 38.284 C 160.395 40.452,157.077 41.286,144.622 41.797 C 130.521 42.375,129.399 42.920,129.378 49.200 C 129.361 54.139,128.718 55.625,126.181 56.583 C 124.908 57.063,123.866 58.013,123.866 58.694 C 123.866 60.135,122.406 60.504,114.528 61.054 C 103.202 61.845,103.319 61.370,103.643 105.052 C 104.073 163.027,102.466 166.808,84.725 149.544 C 76.364 141.408,74.165 139.471,70.166 136.723 C 68.186 135.362,65.623 132.825,64.472 131.085 C 61.509 126.608,58.453 123.966,55.045 122.936 C 53.426 122.447,51.896 121.401,51.645 120.610 C 51.241 119.339,46.463 115.283,45.957 115.782 C 45.162 116.564,43.299 115.780,43.668 114.818 C 43.913 114.181,43.756 113.440,43.320 113.170 C 42.813 112.857,42.894 112.237,43.545 111.453 C 44.436 110.380,44.317 110.305,42.597 110.858 C 41.516 111.206,40.243 111.494,39.768 111.498 C 39.293 111.502,38.938 112.423,38.979 113.544 C 39.096 116.751,34.154 117.061,33.785 113.870 C 33.562 111.946,33.089 111.592,29.980 111.026 C 19.661 109.147,11.280 112.623,14.933 117.267 C 15.783 118.347,16.865 120.402,17.338 121.834 C 17.965 123.737,19.054 124.825,21.378 125.873 C 26.032 127.971,29.109 130.591,35.373 137.788 C 38.450 141.322,42.312 145.039,43.955 146.047 C 45.598 147.055,49.002 149.488,51.520 151.455 C 54.037 153.421,57.247 155.917,58.653 157.002 C 60.059 158.087,63.906 161.163,67.201 163.838 C 70.496 166.514,74.569 169.572,76.253 170.634 C 77.936 171.697,79.817 173.173,80.432 173.915 C 81.048 174.656,82.906 175.955,84.563 176.800 C 86.219 177.644,87.574 178.633,87.574 178.997 C 87.574 179.360,89.615 180.950,92.110 182.529 C 103.092 189.480,105.409 193.663,101.730 199.899 C 100.838 201.412,99.449 205.934,98.643 209.948 C 97.581 215.244,96.733 217.586,95.552 218.485 C 92.496 220.811,90.544 228.353,91.103 235.680 C 91.668 243.093,91.046 247.732,89.486 247.732 C 87.520 247.732,86.634 251.007,85.993 260.646 C 85.196 272.638,84.781 274.294,82.425 274.885 C 80.283 275.423,79.930 277.185,79.410 289.941 C 79.081 298.003,80.059 302.170,82.280 302.170 C 82.818 302.170,84.552 302.863,86.134 303.711 C 87.715 304.559,90.829 305.494,93.053 305.789 C 99.664 306.666,103.347 310.933,103.357 317.726 C 103.369 325.747,106.232 330.084,112.336 331.330 C 123.454 333.599,190.752 334.785,200.789 332.888 C 213.813 330.428,214.983 330.674,218.934 336.703 C 223.491 343.658,224.702 344.661,230.719 346.460 C 239.017 348.939,255.625 348.308,261.883 345.274 C 266.996 342.797,271.153 342.635,275.304 344.752 C 279.819 347.056,283.800 347.441,289.160 346.093 C 291.759 345.439,297.258 344.669,301.381 344.382 C 310.717 343.732,312.481 343.453,316.612 341.968 C 318.432 341.314,323.116 340.247,327.022 339.598 C 330.927 338.949,335.897 337.553,338.067 336.496 C 340.237 335.439,344.022 334.224,346.479 333.796 C 351.732 332.881,356.607 330.984,356.607 329.854 C 356.607 329.053,359.929 328.009,365.514 327.055 C 367.393 326.734,369.273 325.680,370.576 324.219 C 371.715 322.940,373.013 321.893,373.461 321.893 C 375.740 321.893,380.315 317.479,382.316 313.349 C 383.508 310.889,384.997 307.866,385.624 306.632 C 387.131 303.668,387.094 294.587,385.568 292.829 C 384.748 291.885,384.290 288.322,383.927 280.079 C 383.650 273.787,383.275 267.929,383.094 267.061 C 382.912 266.193,382.737 264.844,382.703 264.062 C 382.667 263.214,381.530 262.176,379.882 261.488 C 378.096 260.742,377.120 259.803,377.120 258.831 C 377.120 256.277,376.197 254.742,374.204 253.984 C 373.152 253.585,372.505 252.912,372.766 252.489 C 373.027 252.067,372.653 250.823,371.934 249.726 C 370.267 247.182,363.009 246.694,362.799 249.112 C 362.733 249.872,362.596 250.848,362.495 251.282 C 362.395 251.716,362.271 252.515,362.221 253.057 C 362.091 254.465,357.661 254.294,357.111 252.860 C 356.861 252.209,355.998 251.677,355.192 251.677 C 348.046 251.677,347.883 232.972,354.980 227.418 C 356.690 226.080,357.549 224.453,358.286 221.161 C 359.067 217.669,359.754 216.443,361.482 215.457 C 364.227 213.891,364.422 213.372,365.036 205.998 C 365.396 201.671,365.930 199.654,366.951 198.757 C 368.311 197.562,368.310 197.455,366.914 195.995 C 365.922 194.958,365.297 192.696,364.941 188.850 L 364.420 183.223 367.548 179.608 C 373.983 172.173,373.092 149.119,366.320 147.849 C 361.001 146.851,360.123 140.964,364.837 137.901 C 368.001 135.846,368.118 135.637,368.855 130.720 C 369.335 127.520,369.168 126.888,367.369 125.089 C 364.246 121.965,363.412 117.610,364.192 108.481 C 365.131 97.476,364.892 89.243,363.537 85.996 C 362.903 84.477,362.511 82.299,362.667 81.155 C 363.009 78.637,360.934 77.519,359.058 79.209 C 354.875 82.977,351.154 81.039,351.110 75.070 C 351.090 72.333,350.630 71.214,348.835 69.537 C 347.598 68.382,345.983 66.271,345.247 64.848 C 343.123 60.741,343.240 60.750,291.583 60.750 C 238.885 60.750,233.531 60.529,233.531 58.358 C 233.531 54.485,230.979 53.271,224.755 54.182 C 213.363 55.850,198.817 54.435,198.817 51.660 C 198.817 50.642,197.946 49.134,196.871 48.288 C 195.801 47.446,195.096 46.587,195.305 46.378 C 195.514 46.169,195.161 44.791,194.520 43.315 C 193.880 41.839,193.342 41.037,193.325 41.533 C 193.303 42.177,192.392 42.233,190.153 41.730 C 186.632 40.939,181.464 41.107,181.461 42.012 C 181.460 42.337,180.708 42.604,179.790 42.604 C 178.541 42.604,178.218 42.979,178.510 44.094 C 179.363 47.357,174.972 48.871,167.784 47.793 C 164.561 47.309,164.223 47.042,163.768 44.616 C 163.494 43.159,162.708 41.751,162.019 41.487 C 161.276 41.202,160.921 40.419,161.146 39.562 C 161.523 38.117,159.204 35.931,158.277 36.857 M147.395 47.473 C 150.577 50.035,154.141 51.358,159.786 52.074 C 163.113 52.496,167.132 53.169,168.717 53.570 C 170.301 53.971,173.550 54.509,175.937 54.764 C 180.957 55.302,183.642 55.976,191.472 58.662 C 195.012 59.876,201.540 61.102,208.829 61.921 C 215.255 62.644,223.550 64.101,227.262 65.160 C 238.257 68.296,242.805 68.533,291.832 68.518 C 346.048 68.502,342.345 67.964,343.362 76.000 C 344.370 83.974,347.565 87.834,355.225 90.335 C 362.096 92.579,363.685 100.226,358.105 104.199 C 356.834 105.104,355.258 106.881,354.603 108.149 C 352.887 111.467,348.075 111.438,344.258 108.087 C 341.249 105.445,334.318 104.814,327.811 106.590 C 324.388 107.524,315.761 115.764,309.885 123.711 C 308.183 126.013,305.928 128.289,304.875 128.769 C 303.821 129.249,302.959 129.936,302.959 130.296 C 302.959 130.655,301.267 132.817,299.200 135.100 C 297.133 137.383,294.619 140.582,293.613 142.209 C 292.607 143.836,291.547 145.170,291.257 145.173 C 290.765 145.178,289.314 147.233,286.097 152.479 C 282.268 158.724,277.352 148.645,279.738 139.439 C 282.600 128.392,281.149 120.278,276.998 124.124 C 275.872 125.168,274.241 126.395,273.373 126.851 C 271.507 127.833,266.916 134.825,263.418 142.012 C 259.621 149.816,259.371 158.294,262.583 170.424 C 269.004 194.672,270.116 210.697,265.930 218.682 C 258.938 232.021,262.662 237.595,279.460 238.937 C 284.412 239.333,291.015 240.408,294.133 241.327 C 297.251 242.246,302.322 243.740,305.402 244.646 C 308.481 245.552,312.561 247.393,314.467 248.737 C 318.038 251.255,324.879 252.484,329.232 251.392 C 331.267 250.881,333.332 246.994,334.168 242.103 C 334.490 240.221,335.708 238.210,337.713 236.252 L 340.768 233.269 341.650 235.570 C 342.135 236.835,342.834 240.777,343.204 244.331 C 344.220 254.079,345.619 255.703,355.080 258.105 C 360.000 259.355,369.602 262.747,372.387 264.220 C 374.184 265.170,375.445 269.641,375.526 275.345 C 375.565 278.166,376.105 282.781,376.726 285.602 C 379.842 299.768,375.949 314.793,369.163 314.793 C 367.537 314.793,366.009 315.237,365.769 315.779 C 365.528 316.321,365.536 315.095,365.787 313.054 C 366.283 309.019,365.059 308.055,359.822 308.359 C 358.705 308.423,355.128 308.487,351.874 308.500 C 347.048 308.520,344.907 308.974,340.267 310.963 L 334.577 313.402 329.744 309.364 C 327.086 307.143,324.256 305.325,323.456 305.325 C 322.656 305.325,321.235 304.249,320.298 302.934 C 316.551 297.671,306.354 294.470,301.437 297.012 C 298.800 298.376,298.546 298.927,297.799 304.911 C 297.324 308.710,296.728 310.004,294.255 312.609 C 292.620 314.331,290.980 316.066,290.611 316.465 C 287.985 319.308,283.937 321.031,281.850 320.195 C 280.659 319.717,277.897 319.227,275.712 319.106 C 269.147 318.740,264.550 315.146,260.514 307.221 C 258.085 302.451,245.528 296.647,237.638 296.647 C 232.340 296.647,231.292 289.535,235.487 282.051 C 238.271 277.085,238.576 272.430,236.221 270.887 C 235.175 270.202,234.320 269.340,234.320 268.972 C 234.320 264.106,227.161 253.341,221.196 249.237 C 219.158 247.835,214.708 244.348,211.307 241.489 C 204.928 236.127,201.227 233.183,194.547 228.160 C 192.416 226.558,189.043 223.784,187.052 221.997 C 179.721 215.417,175.705 214.766,165.928 218.575 C 158.768 221.364,155.537 220.931,151.115 216.590 C 146.759 212.312,141.876 208.708,125.444 197.639 C 116.548 191.647,108.383 185.931,107.298 184.936 C 106.213 183.941,103.319 182.209,100.867 181.088 C 98.415 179.966,95.954 178.500,95.397 177.830 C 94.841 177.159,93.119 175.961,91.572 175.167 C 90.024 174.373,87.914 172.988,86.883 172.087 C 85.852 171.187,83.278 169.341,81.163 167.983 C 79.048 166.626,77.318 165.213,77.318 164.843 C 77.318 164.472,75.718 163.232,73.763 162.086 C 71.808 160.940,69.944 159.576,69.621 159.055 C 69.298 158.533,67.791 157.247,66.272 156.197 C 63.492 154.275,51.112 144.731,43.779 138.858 C 39.470 135.406,36.165 128.881,38.103 127.650 C 43.147 124.444,49.774 127.091,59.173 136.069 C 62.862 139.593,68.139 144.058,70.899 145.991 C 73.660 147.925,76.677 150.039,77.604 150.690 C 78.531 151.341,80.385 152.939,81.724 154.241 C 91.314 163.565,92.583 164.268,103.733 166.427 C 111.434 167.919,114.398 169.096,114.398 170.661 C 114.398 171.726,123.040 180.625,126.233 182.848 C 127.753 183.906,129.742 184.206,134.911 184.155 C 153.245 183.976,157.941 182.330,158.962 175.726 C 160.019 168.897,163.576 160.162,167.014 155.955 C 169.550 152.851,169.576 147.246,167.061 145.669 C 163.916 143.697,159.959 143.563,150.612 145.114 C 143.588 146.279,140.655 146.450,137.989 145.850 C 128.732 143.767,123.004 147.387,120.655 156.808 C 118.597 165.061,114.713 166.002,110.918 159.167 L 108.621 155.030 108.278 113.177 C 107.884 65.140,106.958 69.998,116.819 68.386 C 125.599 66.951,134.122 61.941,134.122 58.215 C 134.122 48.719,141.513 42.738,147.395 47.473 M157.002 84.024 C 155.483 84.609,153.471 85.114,152.531 85.147 C 149.285 85.261,143.594 88.248,142.839 90.235 C 141.742 93.119,140.687 93.353,139.102 91.065 C 134.657 84.648,129.687 83.934,124.635 88.986 C 118.841 94.780,119.669 113.239,126.030 120.064 L 128.001 122.179 141.080 122.156 L 154.158 122.134 156.764 119.528 C 159.022 117.270,159.369 116.394,159.369 112.946 C 159.369 110.759,159.685 108.774,160.070 108.535 C 160.456 108.297,161.014 107.122,161.310 105.925 C 161.605 104.727,163.420 101.013,165.342 97.670 C 172.034 86.030,168.178 79.720,157.002 84.024 M161.459 89.980 C 162.487 91.007,161.123 97.707,159.561 99.305 C 158.980 99.898,157.287 102.804,155.798 105.761 C 152.325 112.657,148.834 115.503,144.778 114.742 C 136.431 113.176,134.252 104.824,141.026 100.360 C 143.087 99.002,146.548 96.229,148.718 94.198 C 153.648 89.584,159.219 87.740,161.459 89.980 M336.948 114.398 C 339.825 114.398,340.828 117.525,340.808 126.430 L 340.788 135.306 337.061 137.830 C 335.011 139.218,331.913 140.945,330.178 141.667 C 328.442 142.390,326.120 143.622,325.018 144.405 C 323.916 145.188,320.898 146.970,318.312 148.365 C 315.725 149.760,312.702 151.742,311.594 152.768 C 310.485 153.795,308.799 154.635,307.846 154.635 C 306.894 154.635,305.418 155.332,304.567 156.183 C 301.595 159.155,301.404 153.137,304.117 142.012 C 304.805 139.191,305.632 135.478,305.955 133.760 C 306.409 131.342,306.975 130.533,308.454 130.184 C 309.777 129.872,310.569 128.950,311.024 127.194 C 311.548 125.174,312.092 124.655,313.684 124.655 C 316.153 124.655,318.327 123.545,321.838 120.494 C 325.127 117.636,333.722 113.450,335.173 114.000 C 335.751 114.219,336.550 114.398,336.948 114.398 M30.429 121.587 C 30.727 122.070,30.501 122.755,29.927 123.110 C 28.670 123.887,25.798 122.522,26.454 121.459 C 27.091 120.429,29.767 120.515,30.429 121.587 M355.747 145.096 C 357.230 146.579,357.227 146.657,355.512 150.044 C 350.639 159.669,337.352 167.415,320.635 170.376 C 312.620 171.796,309.833 173.595,306.549 179.467 C 304.048 183.940,303.373 184.615,301.407 184.615 C 300.162 184.615,298.670 184.781,298.092 184.983 C 296.738 185.457,292.702 179.653,292.702 177.232 C 292.702 174.513,294.783 173.083,301.381 171.265 C 305.640 170.091,307.850 169.004,309.270 167.385 C 311.949 164.332,319.438 159.596,325.091 157.380 C 327.650 156.377,333.392 153.350,337.851 150.654 C 349.052 143.879,353.232 142.581,355.747 145.096 M161.649 151.154 L 163.255 153.196 160.795 157.663 C 159.442 160.120,157.660 163.550,156.836 165.286 C 156.012 167.022,154.735 169.673,154.000 171.179 C 151.185 176.940,145.684 178.571,139.543 175.466 C 134.995 173.166,135.058 165.815,139.651 162.915 C 141.390 161.817,143.787 159.792,144.977 158.414 C 150.884 151.574,152.079 150.524,154.648 149.920 C 159.134 148.866,159.964 149.012,161.649 151.154 M270.274 150.690 C 271.846 150.690,272.571 151.567,274.476 155.768 C 276.259 159.700,277.645 161.468,280.624 163.608 C 288.356 169.163,291.364 175.937,286.099 175.937 C 284.974 175.937,281.820 179.205,279.796 182.467 C 277.493 186.178,279.261 192.613,285.329 202.609 C 295.048 218.621,291.708 229.560,275.916 233.429 C 267.302 235.540,263.823 228.642,268.723 219.168 C 273.353 210.214,272.162 188.127,266.072 170.020 C 262.851 160.442,263.505 148.822,267.186 150.235 C 267.839 150.485,269.229 150.690,270.274 150.690 M362.971 159.397 C 370.193 163.262,352.209 181.232,344.389 177.964 C 338.707 175.590,337.235 172.692,340.933 171.160 C 342.293 170.597,344.453 169.254,345.734 168.177 C 347.014 167.099,350.135 165.237,352.668 164.039 C 355.201 162.841,357.669 161.122,358.152 160.220 C 359.120 158.412,360.645 158.151,362.971 159.397 M325.075 180.079 C 324.673 181.055,323.783 183.895,323.097 186.391 C 322.411 188.886,321.524 190.927,321.126 190.927 C 319.957 190.927,323.578 198.818,325.128 199.648 C 325.907 200.065,329.684 200.629,333.520 200.901 C 341.479 201.466,342.534 201.102,349.364 195.427 L 353.560 191.941 356.377 193.377 C 357.926 194.167,359.565 194.937,360.021 195.089 C 362.091 195.779,360.852 204.188,358.373 206.275 C 357.064 207.377,355.458 209.611,354.806 211.240 C 352.811 216.219,347.854 219.570,343.353 218.981 C 334.595 217.835,332.817 218.084,330.573 220.773 C 328.938 222.731,327.869 223.274,325.648 223.274 C 320.099 223.274,318.897 221.742,322.266 218.965 C 325.581 216.231,325.158 208.165,321.542 205.164 C 320.753 204.509,320.316 202.831,320.316 200.456 C 320.316 196.649,319.326 194.875,317.199 194.868 C 311.666 194.850,309.441 187.447,313.315 181.950 L 315.886 178.304 320.845 178.304 C 325.678 178.304,325.786 178.349,325.075 180.079 M292.917 191.716 C 294.021 192.584,295.400 193.297,295.982 193.302 C 300.181 193.332,305.325 197.205,305.325 200.335 C 305.325 204.381,309.283 212.296,312.608 214.898 L 315.085 216.836 311.980 217.409 C 310.273 217.724,307.560 218.441,305.951 219.003 L 303.027 220.024 299.943 216.324 C 298.247 214.289,296.598 211.736,296.279 210.651 C 295.959 209.566,294.367 206.175,292.739 203.115 C 291.112 200.056,289.534 196.239,289.233 194.634 C 288.932 193.029,288.258 191.691,287.735 191.661 C 287.213 191.630,287.495 191.300,288.363 190.927 C 290.617 189.958,290.702 189.973,292.917 191.716 M115.582 207.957 C 121.649 213.653,135.056 224.294,142.299 229.160 C 144.843 230.870,147.814 233.706,148.901 235.464 C 149.987 237.221,151.552 239.369,152.378 240.237 C 153.204 241.105,154.608 242.791,155.498 243.984 C 156.388 245.178,157.665 246.154,158.336 246.154 C 159.006 246.154,160.722 247.130,162.149 248.323 C 165.733 251.321,174.164 257.361,176.645 258.708 C 177.774 259.321,179.164 260.477,179.732 261.277 C 180.301 262.077,181.899 263.311,183.283 264.019 C 184.667 264.728,187.023 266.375,188.520 267.679 C 190.017 268.983,192.679 270.691,194.437 271.474 C 196.195 272.256,198.073 273.614,198.611 274.491 C 199.148 275.367,200.649 276.633,201.945 277.303 C 206.285 279.548,210.476 284.874,212.737 291.021 C 215.735 299.172,219.916 302.384,226.595 301.667 C 234.605 300.808,242.274 307.115,240.632 313.213 C 239.010 319.236,235.155 319.646,225.665 314.805 L 222.291 313.084 219.097 316.108 C 217.340 317.771,215.092 320.051,214.102 321.175 C 210.225 325.574,206.814 325.875,158.580 326.062 C 121.284 326.207,114.325 326.057,111.637 325.049 L 108.481 323.865 108.078 315.976 C 107.433 303.346,104.544 299.820,94.833 299.807 C 87.431 299.798,84.548 295.566,86.498 287.574 C 87.027 285.404,87.882 281.144,88.397 278.107 C 88.912 275.069,90.355 269.989,91.604 266.818 C 92.853 263.648,94.596 257.513,95.477 253.186 C 96.359 248.860,97.761 243.466,98.593 241.200 C 99.425 238.935,101.015 231.578,102.127 224.852 C 104.000 213.523,107.639 202.747,109.585 202.766 C 109.846 202.769,112.544 205.104,115.582 207.957 M186.588 229.146 C 191.361 232.692,198.107 237.673,201.578 240.215 C 226.011 258.108,227.070 259.452,228.375 274.245 L 228.870 279.851 226.045 282.332 C 224.491 283.696,222.889 284.813,222.485 284.813 C 221.058 284.813,215.754 282.098,213.807 280.372 C 211.257 278.112,205.872 274.272,196.055 267.716 C 191.716 264.818,183.373 258.873,177.515 254.506 C 171.657 250.138,165.673 245.919,164.218 245.131 C 158.767 242.176,154.635 236.589,154.635 232.172 C 154.635 228.161,155.285 227.643,164.287 224.472 C 174.528 220.865,175.797 221.131,186.588 229.146 M322.682 236.328 C 322.682 236.998,323.531 238.396,324.568 239.433 C 326.560 241.425,326.010 242.209,322.618 242.209 C 321.350 242.209,321.105 241.633,321.105 238.659 C 321.105 236.706,321.460 235.108,321.893 235.108 C 322.327 235.108,322.682 235.657,322.682 236.328 M315.266 308.069 C 319.850 309.984,322.254 315.364,320.765 320.378 C 317.550 331.201,312.986 334.449,305.979 330.898 C 298.976 327.349,297.684 322.823,301.453 315.037 C 305.398 306.889,308.589 305.279,315.266 308.069 " stroke="none" fill="#b2b2b2" fill-rule="evenodd"></path><path id="path2" d="M138.839 46.431 C 137.246 47.749,134.122 55.555,134.122 58.215 C 134.122 61.941,125.599 66.951,116.819 68.386 C 106.958 69.998,107.884 65.140,108.278 113.177 L 108.621 155.030 110.918 159.167 C 114.713 166.002,118.597 165.061,120.655 156.808 C 123.004 147.387,128.732 143.767,137.989 145.850 C 140.655 146.450,143.588 146.279,150.612 145.114 C 159.959 143.563,163.916 143.697,167.061 145.669 C 169.576 147.246,169.550 152.851,167.014 155.955 C 163.576 160.162,160.019 168.897,158.962 175.726 C 157.941 182.330,153.245 183.976,134.911 184.155 C 129.742 184.206,127.753 183.906,126.233 182.848 C 123.040 180.625,114.398 171.726,114.398 170.661 C 114.398 169.096,111.434 167.919,103.733 166.427 C 92.583 164.268,91.314 163.565,81.724 154.241 C 80.385 152.939,78.531 151.341,77.604 150.690 C 76.677 150.039,73.660 147.925,70.899 145.991 C 68.139 144.058,62.862 139.593,59.173 136.069 C 49.774 127.091,43.147 124.444,38.103 127.650 C 36.165 128.881,39.470 135.406,43.779 138.858 C 51.112 144.731,63.492 154.275,66.272 156.197 C 67.791 157.247,69.298 158.533,69.621 159.055 C 69.944 159.576,71.808 160.940,73.763 162.086 C 75.718 163.232,77.318 164.472,77.318 164.843 C 77.318 165.213,79.048 166.626,81.163 167.983 C 83.278 169.341,85.852 171.187,86.883 172.087 C 87.914 172.988,90.024 174.373,91.572 175.167 C 93.119 175.961,94.841 177.159,95.397 177.830 C 95.954 178.500,98.415 179.966,100.867 181.088 C 103.319 182.209,106.213 183.941,107.298 184.936 C 108.383 185.931,116.548 191.647,125.444 197.639 C 141.876 208.708,146.759 212.312,151.115 216.590 C 155.537 220.931,158.768 221.364,165.928 218.575 C 175.705 214.766,179.721 215.417,187.052 221.997 C 189.043 223.784,192.416 226.558,194.547 228.160 C 201.227 233.183,204.928 236.127,211.307 241.489 C 214.708 244.348,219.158 247.835,221.196 249.237 C 227.161 253.341,234.320 264.106,234.320 268.972 C 234.320 269.340,235.175 270.202,236.221 270.887 C 238.576 272.430,238.271 277.085,235.487 282.051 C 231.292 289.535,232.340 296.647,237.638 296.647 C 245.528 296.647,258.085 302.451,260.514 307.221 C 264.550 315.146,269.147 318.740,275.712 319.106 C 277.897 319.227,280.659 319.717,281.850 320.195 C 283.937 321.031,287.985 319.308,290.611 316.465 C 290.980 316.066,292.620 314.331,294.255 312.609 C 296.728 310.004,297.324 308.710,297.799 304.911 C 298.546 298.927,298.800 298.376,301.437 297.012 C 306.354 294.470,316.551 297.671,320.298 302.934 C 321.235 304.249,322.656 305.325,323.456 305.325 C 324.256 305.325,327.086 307.143,329.744 309.364 L 334.577 313.402 340.267 310.963 C 344.907 308.974,347.048 308.520,351.874 308.500 C 355.128 308.487,358.705 308.423,359.822 308.359 C 365.059 308.055,366.283 309.019,365.787 313.054 C 365.536 315.095,365.528 316.321,365.769 315.779 C 366.009 315.237,367.537 314.793,369.163 314.793 C 375.949 314.793,379.842 299.768,376.726 285.602 C 376.105 282.781,375.565 278.166,375.526 275.345 C 375.445 269.641,374.184 265.170,372.387 264.220 C 369.602 262.747,360.000 259.355,355.080 258.105 C 345.619 255.703,344.220 254.079,343.204 244.331 C 342.834 240.777,342.135 236.835,341.650 235.570 L 340.768 233.269 337.713 236.252 C 335.708 238.210,334.490 240.221,334.168 242.103 C 333.332 246.994,331.267 250.881,329.232 251.392 C 324.879 252.484,318.038 251.255,314.467 248.737 C 312.561 247.393,308.481 245.552,305.402 244.646 C 302.322 243.740,297.251 242.246,294.133 241.327 C 291.015 240.408,284.412 239.333,279.460 238.937 C 262.662 237.595,258.938 232.021,265.930 218.682 C 270.116 210.697,269.004 194.672,262.583 170.424 C 259.371 158.294,259.621 149.816,263.418 142.012 C 266.916 134.825,271.507 127.833,273.373 126.851 C 274.241 126.395,275.872 125.168,276.998 124.124 C 281.149 120.278,282.600 128.392,279.738 139.439 C 277.352 148.645,282.268 158.724,286.097 152.479 C 289.314 147.233,290.765 145.178,291.257 145.173 C 291.547 145.170,292.607 143.836,293.613 142.209 C 294.619 140.582,297.133 137.383,299.200 135.100 C 301.267 132.817,302.959 130.655,302.959 130.296 C 302.959 129.936,303.821 129.249,304.875 128.769 C 305.928 128.289,308.183 126.013,309.885 123.711 C 315.761 115.764,324.388 107.524,327.811 106.590 C 334.318 104.814,341.249 105.445,344.258 108.087 C 348.075 111.438,352.887 111.467,354.603 108.149 C 355.258 106.881,356.834 105.104,358.105 104.199 C 363.685 100.226,362.096 92.579,355.225 90.335 C 347.565 87.834,344.370 83.974,343.362 76.000 C 342.345 67.964,346.048 68.502,291.832 68.518 C 242.805 68.533,238.257 68.296,227.262 65.160 C 223.550 64.101,215.255 62.644,208.829 61.921 C 201.540 61.102,195.012 59.876,191.472 58.662 C 183.642 55.976,180.957 55.302,175.937 54.764 C 173.550 54.509,170.301 53.971,168.717 53.570 C 167.132 53.169,163.113 52.496,159.786 52.074 C 154.141 51.358,150.577 50.035,147.395 47.473 C 144.966 45.518,140.587 44.985,138.839 46.431 M167.083 84.068 C 170.016 86.123,169.453 90.520,165.342 97.670 C 163.420 101.013,161.605 104.727,161.310 105.925 C 161.014 107.122,160.456 108.297,160.070 108.535 C 159.685 108.774,159.369 110.759,159.369 112.946 C 159.369 116.394,159.022 117.270,156.764 119.528 L 154.158 122.134 141.080 122.156 L 128.001 122.179 126.030 120.064 C 119.669 113.239,118.841 94.780,124.635 88.986 C 129.687 83.934,134.657 84.648,139.102 91.065 C 140.687 93.353,141.742 93.119,142.839 90.235 C 143.594 88.248,149.285 85.261,152.531 85.147 C 153.471 85.114,155.483 84.609,157.002 84.024 C 160.770 82.573,164.974 82.591,167.083 84.068 M329.334 115.872 C 326.700 117.120,323.327 119.200,321.838 120.494 C 318.327 123.545,316.153 124.655,313.684 124.655 C 312.092 124.655,311.548 125.174,311.024 127.194 C 310.569 128.950,309.777 129.872,308.454 130.184 C 306.975 130.533,306.409 131.342,305.955 133.760 C 305.632 135.478,304.805 139.191,304.117 142.012 C 301.404 153.137,301.595 159.155,304.567 156.183 C 305.418 155.332,306.894 154.635,307.846 154.635 C 308.799 154.635,310.485 153.795,311.594 152.768 C 312.702 151.742,315.725 149.760,318.312 148.365 C 320.898 146.970,323.916 145.188,325.018 144.405 C 326.120 143.622,328.442 142.390,330.178 141.667 C 331.913 140.945,335.011 139.218,337.061 137.830 L 340.788 135.306 340.808 126.430 C 340.828 117.525,339.825 114.398,336.948 114.398 C 336.550 114.398,335.751 114.219,335.173 114.000 C 334.595 113.781,331.967 114.623,329.334 115.872 M26.454 121.459 C 25.798 122.522,28.670 123.887,29.927 123.110 C 30.501 122.755,30.727 122.070,30.429 121.587 C 29.767 120.515,27.091 120.429,26.454 121.459 M358.152 160.220 C 357.669 161.122,355.201 162.841,352.668 164.039 C 350.135 165.237,347.014 167.099,345.734 168.177 C 344.453 169.254,342.293 170.597,340.933 171.160 C 334.860 173.675,343.840 180.187,350.259 177.922 C 355.338 176.130,364.497 166.501,364.497 162.952 C 364.497 158.834,359.943 156.873,358.152 160.220 M313.315 181.950 C 309.441 187.447,311.666 194.850,317.199 194.868 C 319.326 194.875,320.316 196.649,320.316 200.456 C 320.316 202.831,320.753 204.509,321.542 205.164 C 325.158 208.165,325.581 216.231,322.266 218.965 C 318.897 221.742,320.099 223.274,325.648 223.274 C 327.869 223.274,328.938 222.731,330.573 220.773 C 332.817 218.084,334.595 217.835,343.353 218.981 C 347.854 219.570,352.811 216.219,354.806 211.240 C 355.458 209.611,357.064 207.377,358.373 206.275 C 360.852 204.188,362.091 195.779,360.021 195.089 C 359.565 194.937,357.926 194.167,356.377 193.377 L 353.560 191.941 349.364 195.427 C 342.534 201.102,341.479 201.466,333.520 200.901 C 329.684 200.629,325.907 200.065,325.128 199.648 C 323.578 198.818,319.957 190.927,321.126 190.927 C 321.524 190.927,322.411 188.886,323.097 186.391 C 323.783 183.895,324.673 181.055,325.075 180.079 C 325.786 178.349,325.678 178.304,320.845 178.304 L 315.886 178.304 313.315 181.950 M288.363 190.927 C 287.495 191.300,287.213 191.630,287.735 191.661 C 288.258 191.691,288.932 193.029,289.233 194.634 C 289.534 196.239,291.112 200.056,292.739 203.115 C 294.367 206.175,295.959 209.566,296.279 210.651 C 296.598 211.736,298.247 214.289,299.943 216.324 L 303.027 220.024 305.951 219.003 C 307.560 218.441,310.273 217.724,311.980 217.409 L 315.085 216.836 312.608 214.898 C 309.283 212.296,305.325 204.381,305.325 200.335 C 305.325 197.205,300.181 193.332,295.982 193.302 C 295.400 193.297,294.021 192.584,292.917 191.716 C 290.702 189.973,290.617 189.958,288.363 190.927 M106.630 207.692 C 104.709 211.510,103.692 215.384,102.127 224.852 C 101.015 231.578,99.425 238.935,98.593 241.200 C 97.761 243.466,96.359 248.860,95.477 253.186 C 94.596 257.513,92.853 263.648,91.604 266.818 C 90.355 269.989,88.912 275.069,88.397 278.107 C 87.882 281.144,87.027 285.404,86.498 287.574 C 84.548 295.566,87.431 299.798,94.833 299.807 C 104.544 299.820,107.433 303.346,108.078 315.976 L 108.481 323.865 111.637 325.049 C 114.325 326.057,121.284 326.207,158.580 326.062 C 206.814 325.875,210.225 325.574,214.102 321.175 C 215.092 320.051,217.340 317.771,219.097 316.108 L 222.291 313.084 225.665 314.805 C 235.155 319.646,239.010 319.236,240.632 313.213 C 242.274 307.115,234.605 300.808,226.595 301.667 C 219.916 302.384,215.735 299.172,212.737 291.021 C 210.476 284.874,206.285 279.548,201.945 277.303 C 200.649 276.633,199.148 275.367,198.611 274.491 C 198.073 273.614,196.195 272.256,194.437 271.474 C 192.679 270.691,190.017 268.983,188.520 267.679 C 187.023 266.375,184.667 264.728,183.283 264.019 C 181.899 263.311,180.301 262.077,179.732 261.277 C 179.164 260.477,177.774 259.321,176.645 258.708 C 174.164 257.361,165.733 251.321,162.149 248.323 C 160.722 247.130,159.006 246.154,158.336 246.154 C 157.665 246.154,156.388 245.178,155.498 243.984 C 154.608 242.791,153.204 241.105,152.378 240.237 C 151.552 239.369,149.987 237.221,148.901 235.464 C 147.814 233.706,144.843 230.870,142.299 229.160 C 135.056 224.294,121.649 213.653,115.582 207.957 C 108.901 201.683,109.643 201.705,106.630 207.692 " stroke="none" fill="#fdfdfd" fill-rule="evenodd"></path><path id="path3" d="M154.635 89.897 C 153.550 90.232,150.888 92.168,148.718 94.198 C 146.548 96.229,143.087 99.002,141.026 100.360 C 134.252 104.824,136.431 113.176,144.778 114.742 C 148.834 115.503,152.325 112.657,155.798 105.761 C 157.287 102.804,158.980 99.898,159.561 99.305 C 161.123 97.707,162.487 91.007,161.459 89.980 C 160.516 89.037,157.536 89.001,154.635 89.897 M363.727 138.729 C 361.113 140.911,361.071 141.037,362.108 143.660 C 363.473 147.112,363.638 147.271,366.503 147.873 L 368.902 148.377 368.149 142.433 C 367.292 135.672,367.340 135.712,363.727 138.729 M349.112 144.749 C 347.377 145.300,342.309 147.957,337.851 150.654 C 333.392 153.350,327.650 156.377,325.091 157.380 C 319.438 159.596,311.949 164.332,309.270 167.385 C 307.850 169.004,305.640 170.091,301.381 171.265 C 294.783 173.083,292.702 174.513,292.702 177.232 C 292.702 179.653,296.738 185.457,298.092 184.983 C 298.670 184.781,300.162 184.615,301.407 184.615 C 303.373 184.615,304.048 183.940,306.549 179.467 C 309.833 173.595,312.620 171.796,320.635 170.376 C 333.755 168.052,342.126 164.249,349.863 157.097 C 359.137 148.523,358.722 141.695,349.112 144.749 M154.648 149.920 C 152.079 150.524,150.884 151.574,144.977 158.414 C 143.787 159.792,141.390 161.817,139.651 162.915 C 135.058 165.815,134.995 173.166,139.543 175.466 C 145.684 178.571,151.185 176.940,154.000 171.179 C 154.735 169.673,156.012 167.022,156.836 165.286 C 157.660 163.550,159.442 160.120,160.795 157.663 L 163.255 153.196 161.649 151.154 C 159.964 149.012,159.134 148.866,154.648 149.920 M265.004 151.615 C 263.259 154.834,263.738 163.080,266.072 170.020 C 272.162 188.127,273.353 210.214,268.723 219.168 C 263.823 228.642,267.302 235.540,275.916 233.429 C 291.708 229.560,295.048 218.621,285.329 202.609 C 279.261 192.613,277.493 186.178,279.796 182.467 C 281.820 179.205,284.974 175.937,286.099 175.937 C 291.364 175.937,288.356 169.163,280.624 163.608 C 277.645 161.468,276.259 159.700,274.476 155.768 C 272.571 151.567,271.846 150.690,270.274 150.690 C 269.229 150.690,267.839 150.485,267.186 150.235 C 266.448 149.951,265.622 150.473,265.004 151.615 M305.921 308.727 C 297.316 317.333,297.340 326.520,305.979 330.898 C 312.986 334.449,317.550 331.201,320.765 320.378 C 322.740 313.727,319.011 308.586,310.697 306.499 C 309.056 306.088,308.127 306.521,305.921 308.727 " stroke="none" fill="#b49959" fill-rule="evenodd"></path><path id="path4" d="M125.236 37.278 C 123.814 38.357,122.270 41.937,122.320 44.036 C 122.341 44.931,122.735 44.656,123.528 43.195 C 124.608 41.206,125.537 40.649,127.278 40.952 C 127.635 41.014,127.718 40.725,127.462 40.311 C 127.206 39.896,127.357 39.334,127.798 39.061 C 128.956 38.346,128.784 36.292,127.567 36.292 C 126.999 36.292,125.950 36.736,125.236 37.278 M118.610 49.901 C 118.271 50.444,117.900 51.598,117.784 52.465 L 117.575 54.043 118.451 52.465 C 118.934 51.598,119.885 50.444,120.564 49.901 C 121.681 49.010,121.676 48.915,120.513 48.915 C 119.805 48.915,118.948 49.359,118.610 49.901 M238.527 50.830 C 239.025 51.883,239.556 52.620,239.709 52.467 C 240.198 51.978,238.971 48.915,238.285 48.915 C 237.922 48.915,238.030 49.777,238.527 50.830 M100.001 54.193 C 99.241 54.391,98.413 55.504,98.159 56.665 C 97.906 57.827,97.555 59.239,97.379 59.804 C 97.203 60.369,97.410 60.615,97.839 60.349 C 98.268 60.084,98.619 59.410,98.619 58.851 C 98.619 57.377,101.149 54.690,102.970 54.229 C 104.522 53.836,104.521 53.832,102.959 53.832 C 102.091 53.832,100.760 53.994,100.001 54.193 M347.296 54.068 C 347.527 54.299,348.536 54.645,349.539 54.839 C 350.543 55.032,351.650 55.642,352.001 56.195 C 352.352 56.747,352.644 56.826,352.651 56.371 C 352.671 54.944,350.850 53.649,348.823 53.649 C 347.753 53.649,347.066 53.838,347.296 54.068 M353.300 63.232 C 353.694 65.917,355.706 68.802,356.739 68.163 C 357.091 67.946,357.197 68.241,356.976 68.818 C 356.754 69.395,357.125 70.568,357.800 71.423 C 358.944 72.874,359.004 72.706,358.685 68.932 C 358.301 64.386,357.258 61.957,355.381 61.237 C 353.207 60.402,352.925 60.673,353.300 63.232 M93.837 65.680 L 91.913 68.245 91.713 99.014 C 91.509 130.423,91.812 134.115,94.542 133.531 C 95.049 133.422,95.464 133.688,95.464 134.122 C 95.464 136.289,90.277 134.885,89.366 132.472 C 88.860 131.131,88.087 130.255,87.650 130.525 C 86.450 131.267,87.520 133.472,90.255 135.896 C 91.601 137.088,92.258 138.064,91.716 138.065 C 90.294 138.068,93.270 140.878,95.240 141.393 C 96.836 141.810,96.843 141.644,96.791 102.464 C 96.762 80.823,96.518 63.116,96.249 63.116 C 95.980 63.116,94.895 64.270,93.837 65.680 M369.738 79.753 C 370.233 80.366,370.830 81.578,371.063 82.446 C 371.329 83.437,371.434 83.166,371.345 81.718 C 371.267 80.449,370.671 79.238,370.020 79.025 C 369.090 78.722,369.029 78.877,369.738 79.753 M371.598 85.614 C 371.598 86.152,372.198 87.079,372.933 87.675 C 374.082 88.607,374.183 88.593,373.663 87.574 C 373.331 86.923,373.617 87.080,374.300 87.922 C 374.984 88.764,375.542 89.762,375.542 90.138 C 375.542 90.515,375.986 90.572,376.529 90.266 C 377.276 89.844,377.297 89.946,376.613 90.687 C 376.112 91.231,375.879 92.946,376.089 94.550 C 376.469 97.464,375.131 102.416,374.212 101.497 C 373.186 100.471,371.598 102.855,371.598 105.422 C 371.598 108.396,372.055 108.626,374.523 106.897 C 377.694 104.676,379.056 89.674,376.379 86.448 C 375.165 84.986,371.598 84.363,371.598 85.614 M15.187 98.374 C 15.947 98.573,17.189 98.573,17.949 98.374 C 18.708 98.176,18.087 98.013,16.568 98.013 C 15.049 98.013,14.428 98.176,15.187 98.374 M23.669 99.364 C 23.669 99.773,24.376 100.604,25.242 101.209 C 26.107 101.815,26.580 102.546,26.293 102.832 C 26.007 103.119,26.187 103.353,26.693 103.353 C 27.942 103.353,27.850 102.464,26.385 100.373 C 25.127 98.576,23.669 98.034,23.669 99.364 M4.892 105.089 C 4.371 105.609,3.967 106.763,3.995 107.653 C 4.042 109.168,4.091 109.156,4.765 107.477 C 5.161 106.490,6.293 105.359,7.279 104.962 C 8.959 104.288,8.970 104.239,7.456 104.192 C 6.566 104.165,5.412 104.568,4.892 105.089 M371.576 119.063 C 371.858 121.518,372.373 122.707,373.176 122.759 C 375.179 122.888,377.134 123.994,376.675 124.738 C 376.435 125.126,376.592 125.444,377.025 125.444 C 379.768 125.444,376.808 117.176,373.726 116.230 L 371.159 115.443 371.576 119.063 M69.669 117.385 C 70.405 118.197,71.006 119.514,71.006 120.312 C 71.006 121.109,71.226 121.542,71.495 121.273 C 72.359 120.409,71.064 116.957,69.676 116.424 C 68.414 115.939,68.413 115.997,69.669 117.385 M3.265 122.682 C 3.076 130.981,4.626 133.369,10.740 134.198 C 15.677 134.868,16.179 135.318,16.879 139.696 C 17.216 141.802,18.158 143.346,20.065 144.918 C 21.554 146.145,23.130 148.089,23.566 149.237 C 24.086 150.604,25.330 151.645,27.170 152.252 C 28.716 152.762,29.980 153.453,29.980 153.787 C 29.980 154.803,32.866 157.791,33.847 157.791 C 34.353 157.791,35.506 159.043,36.408 160.573 C 38.299 163.776,40.282 165.027,44.146 165.453 C 47.346 165.806,47.233 165.731,47.540 167.701 C 47.873 169.847,48.871 171.264,49.961 171.138 C 52.155 170.886,54.396 172.315,55.136 174.438 C 55.575 175.696,56.307 176.770,56.764 176.824 C 58.356 177.014,58.784 177.149,59.763 177.771 C 60.306 178.115,60.750 178.150,60.750 177.848 C 60.750 177.546,62.532 178.967,64.711 181.005 C 67.529 183.640,69.100 184.575,70.151 184.242 C 71.699 183.750,74.480 185.829,73.783 186.956 C 73.280 187.770,74.906 189.097,76.853 189.461 C 77.682 189.617,79.166 191.164,80.150 192.899 C 81.440 195.176,82.394 196.003,83.573 195.867 C 84.472 195.764,85.207 196.030,85.207 196.459 C 85.207 196.888,85.473 197.197,85.799 197.145 C 89.262 196.598,90.730 197.331,90.730 199.606 C 90.730 201.972,90.730 201.972,92.308 200.394 C 93.176 199.527,94.596 198.817,95.464 198.817 C 98.514 198.817,97.484 191.677,94.280 190.618 C 92.439 190.010,88.363 186.566,88.363 185.619 C 88.363 185.262,86.756 184.268,84.791 183.412 C 82.477 182.402,81.057 181.225,80.758 180.068 C 80.421 178.761,79.381 178.051,76.884 177.423 C 74.245 176.758,73.299 176.070,72.714 174.392 C 72.190 172.891,71.243 172.079,69.641 171.758 C 68.367 171.504,65.632 169.697,63.564 167.743 C 61.496 165.790,59.067 164.083,58.167 163.950 C 57.266 163.817,55.951 162.661,55.244 161.380 C 54.432 159.911,53.009 158.807,51.383 158.385 C 49.541 157.908,48.578 157.060,48.003 155.410 C 47.399 153.677,46.553 152.982,44.603 152.616 C 41.323 152.000,30.545 141.714,29.156 137.872 C 28.370 135.697,27.285 134.782,23.382 132.999 C 20.738 131.792,18.137 130.179,17.601 129.413 C 17.046 128.621,15.172 127.830,13.244 127.574 C 4.687 126.440,4.677 126.434,3.913 122.494 L 3.337 119.527 3.265 122.682 M76.681 124.458 C 77.333 125.217,78.087 126.460,78.356 127.219 C 78.634 128.002,79.646 128.600,80.694 128.600 C 81.711 128.600,83.282 129.288,84.185 130.130 C 85.089 130.972,86.043 131.445,86.307 131.182 C 87.180 130.309,86.802 129.389,85.570 129.389 C 84.902 129.389,83.004 127.968,81.353 126.233 C 78.334 123.059,74.098 121.450,76.681 124.458 M377.515 138.522 C 377.982 138.717,378.200 141.588,378.048 145.570 L 377.793 152.287 379.842 151.354 C 384.336 149.306,382.487 137.828,377.712 138.129 C 377.170 138.164,377.081 138.340,377.515 138.522 M374.179 202.736 C 372.758 203.411,371.624 204.555,371.615 205.325 C 371.592 207.175,371.866 207.093,374.857 204.360 C 377.894 201.587,377.680 201.075,374.179 202.736 M86.785 212.229 C 85.172 213.842,84.651 216.174,85.904 216.174 C 86.287 216.174,86.794 215.437,87.029 214.537 C 87.264 213.637,88.193 212.708,89.093 212.473 C 89.993 212.237,90.730 211.731,90.730 211.348 C 90.730 210.095,88.398 210.616,86.785 212.229 M370.772 218.738 C 370.684 219.063,370.567 219.637,370.513 220.012 C 370.459 220.387,369.212 221.818,367.742 223.191 C 365.039 225.715,364.784 226.876,367.129 225.976 C 368.808 225.332,371.840 220.392,371.331 219.131 C 371.112 218.589,370.861 218.412,370.772 218.738 M165.527 227.493 C 153.227 230.940,155.812 236.105,177.433 251.282 C 188.001 258.700,191.501 261.075,200.891 267.201 C 203.004 268.580,205.775 270.532,207.049 271.540 C 214.719 277.613,221.656 278.858,223.197 274.438 C 226.745 264.260,221.031 256.868,199.197 243.393 C 194.162 240.285,182.263 231.966,178.197 228.710 C 175.597 226.629,170.394 226.129,165.527 227.493 M364.175 228.402 C 363.780 229.270,363.507 230.225,363.567 230.524 C 363.627 230.823,362.968 231.292,362.103 231.567 C 361.237 231.842,360.710 232.359,360.931 232.716 C 361.152 233.073,360.772 233.580,360.088 233.843 C 359.403 234.105,359.002 234.764,359.197 235.306 C 359.862 237.162,358.186 239.053,355.875 239.053 C 353.312 239.053,352.439 240.513,353.124 243.652 C 354.053 247.913,354.131 248.013,355.585 246.834 C 356.497 246.094,356.726 246.067,356.318 246.746 C 355.906 247.432,356.339 247.732,357.744 247.732 C 359.569 247.732,359.763 247.432,359.763 244.622 C 359.763 242.912,360.137 241.282,360.594 241.000 C 362.121 240.056,365.362 231.622,365.125 229.208 C 364.918 227.090,364.812 227.000,364.175 228.402 M176.172 233.146 C 178.429 234.669,182.406 237.529,185.010 239.501 C 187.613 241.472,191.672 244.009,194.029 245.138 C 196.386 246.266,199.827 248.211,201.676 249.458 C 203.525 250.706,206.130 252.108,207.466 252.574 C 208.802 253.039,210.243 254.071,210.669 254.865 C 211.094 255.660,212.862 257.108,214.597 258.084 C 216.332 259.059,217.754 260.235,217.756 260.698 C 217.759 261.160,218.298 262.567,218.954 263.825 C 220.306 266.418,219.829 270.788,217.995 272.623 C 216.414 274.203,216.024 274.108,212.535 271.295 C 210.848 269.935,208.038 268.178,206.290 267.391 C 204.543 266.604,202.262 265.054,201.222 263.946 C 200.182 262.839,199.024 261.933,198.650 261.933 C 198.275 261.933,195.441 260.158,192.352 257.988 C 189.263 255.819,186.343 254.043,185.865 254.043 C 185.386 254.043,184.557 253.342,184.021 252.484 C 183.485 251.626,181.536 250.160,179.689 249.226 C 177.842 248.291,176.067 247.075,175.744 246.523 C 175.421 245.971,173.468 244.552,171.404 243.370 C 169.341 242.188,166.312 239.790,164.673 238.041 L 161.692 234.862 163.390 233.055 C 166.610 229.627,171.007 229.659,176.172 233.146 M82.840 245.778 C 81.788 247.083,81.788 247.171,82.840 246.573 C 83.491 246.203,83.787 246.165,83.498 246.488 C 83.208 246.810,82.802 246.956,82.594 246.811 C 81.836 246.283,78.895 249.595,78.895 250.978 C 78.895 251.761,78.028 253.215,76.967 254.209 C 73.786 257.191,72.363 262.044,75.300 259.896 C 76.142 259.281,76.383 258.777,75.837 258.777 C 75.290 258.777,77.018 256.622,79.676 253.988 C 83.805 249.898,84.474 248.843,84.267 246.756 C 84.037 244.448,83.958 244.393,82.840 245.778 M384.221 257.077 C 384.221 258.134,387.054 260.415,387.640 259.829 C 387.931 259.538,387.581 258.650,386.862 257.855 C 385.482 256.330,384.221 255.959,384.221 257.077 M72.930 280.660 C 72.486 284.273,70.217 290.175,70.217 287.718 C 70.217 287.388,69.722 287.575,69.116 288.135 C 68.511 288.694,68.177 289.418,68.374 289.744 C 68.571 290.069,68.445 290.336,68.094 290.337 C 67.008 290.340,66.511 297.253,67.272 301.775 C 67.491 303.077,67.711 304.598,67.760 305.155 C 67.810 305.712,69.121 306.918,70.675 307.834 C 72.228 308.751,73.811 310.320,74.191 311.320 C 75.359 314.393,80.580 316.058,89.941 316.342 C 90.884 316.370,91.179 317.846,91.392 323.609 C 91.743 333.105,96.376 342.429,100.043 341.022 C 100.758 340.747,101.040 340.892,100.740 341.378 C 100.462 341.828,100.936 342.830,101.794 343.607 C 102.651 344.383,103.353 344.717,103.353 344.350 C 103.353 343.983,103.857 344.372,104.473 345.214 C 105.556 346.696,107.111 346.753,152.483 346.967 L 199.374 347.188 200.297 349.214 C 200.882 350.497,201.644 351.077,202.376 350.796 C 203.021 350.548,203.449 350.759,203.344 351.275 C 203.240 351.782,203.511 352.218,203.945 352.244 C 204.379 352.271,205.089 352.502,205.523 352.757 C 205.957 353.013,208.421 353.295,210.999 353.384 C 216.381 353.569,216.963 353.801,216.963 355.768 C 216.963 358.206,219.148 359.200,225.390 359.600 C 229.816 359.884,231.246 359.746,230.830 359.073 C 230.520 358.571,229.987 358.332,229.647 358.542 C 229.307 358.752,228.003 357.693,226.748 356.188 C 225.493 354.683,223.754 353.440,222.884 353.427 C 220.488 353.389,218.540 351.541,218.540 349.307 C 218.540 348.208,218.044 347.118,217.436 346.885 C 216.829 346.652,215.940 345.283,215.461 343.842 C 214.969 342.363,213.404 340.416,211.866 339.369 L 209.141 337.516 205.360 338.975 C 195.319 342.849,118.099 340.519,112.461 336.172 C 112.008 335.823,108.797 335.072,105.325 334.503 C 97.611 333.238,97.860 333.604,97.832 323.471 C 97.795 310.068,97.003 309.270,83.754 309.270 C 79.239 309.270,75.620 308.925,75.337 308.468 C 75.065 308.027,74.540 307.853,74.171 308.081 C 73.802 308.309,73.101 307.287,72.614 305.810 C 72.114 304.296,71.058 302.950,70.193 302.724 C 65.998 301.627,66.707 293.353,71.497 287.507 C 73.025 285.643,74.295 283.830,74.319 283.479 C 74.427 281.896,75.186 280.920,75.944 281.389 C 76.432 281.690,76.538 281.521,76.202 280.977 C 75.888 280.469,75.286 280.266,74.865 280.527 C 74.403 280.812,74.293 280.225,74.589 279.048 C 74.858 277.974,74.721 276.874,74.284 276.604 C 73.806 276.309,73.266 277.924,72.930 280.660 M395.073 283.037 C 394.868 284.231,394.433 285.832,394.107 286.597 C 393.649 287.668,393.804 287.875,394.784 287.499 C 395.652 287.165,396.055 286.036,396.055 283.939 C 396.055 280.357,395.604 279.943,395.073 283.037 M395.006 289.086 C 394.743 289.773,394.892 290.335,395.338 290.335 C 395.784 290.335,395.994 290.602,395.806 290.927 C 395.618 291.252,395.749 292.229,396.098 293.097 C 396.633 294.425,396.740 294.301,396.777 292.308 C 396.832 289.299,395.709 287.255,395.006 289.086 M395.832 313.713 C 395.465 314.719,394.278 315.582,392.876 315.863 C 391.242 316.189,390.533 316.796,390.533 317.864 C 390.533 320.036,389.715 321.893,388.760 321.893 C 388.312 321.893,387.474 322.515,386.897 323.274 C 386.257 324.117,385.839 324.271,385.824 323.669 C 385.769 321.525,384.221 322.832,384.221 325.022 C 384.221 327.062,381.117 330.389,381.041 328.430 C 381.028 328.089,380.631 328.475,380.160 329.286 C 379.475 330.465,379.170 330.546,378.641 329.690 C 378.152 328.900,377.998 329.030,378.050 330.187 C 378.088 331.050,377.859 332.371,377.541 333.123 C 376.501 335.579,381.737 333.087,383.082 330.486 C 383.731 329.232,384.628 328.205,385.077 328.205 C 385.525 328.205,385.649 327.812,385.352 327.332 C 384.995 326.753,385.341 326.626,386.378 326.955 C 388.102 327.502,390.106 325.688,390.126 323.562 C 390.133 322.818,390.795 322.288,391.716 322.288 C 392.584 322.288,393.764 321.755,394.339 321.105 C 395.104 320.238,395.230 320.217,394.808 321.029 C 394.417 321.783,394.542 321.947,395.198 321.541 C 395.729 321.213,395.981 320.471,395.759 319.892 C 395.537 319.313,395.716 318.719,396.158 318.572 C 396.599 318.425,396.844 316.893,396.702 315.168 C 396.492 312.616,396.330 312.345,395.832 313.713 M370.702 334.887 C 370.498 335.090,369.235 335.340,367.895 335.443 C 366.384 335.558,365.596 335.986,365.821 336.571 C 366.020 337.089,365.803 337.747,365.340 338.034 C 364.876 338.320,364.497 339.048,364.497 339.650 C 364.497 341.565,369.143 339.343,370.458 336.798 C 371.539 334.708,371.635 333.953,370.702 334.887 M347.460 343.278 C 346.633 344.192,346.066 345.168,346.200 345.448 C 346.334 345.728,345.624 346.216,344.622 346.533 C 343.486 346.892,344.210 347.003,346.548 346.827 C 350.714 346.513,352.663 345.325,352.663 343.099 C 352.663 341.038,349.384 341.151,347.460 343.278 M333.728 347.976 C 333.728 348.435,333.318 348.558,332.817 348.248 C 332.288 347.921,332.119 348.030,332.414 348.507 C 332.693 348.958,332.325 349.812,331.595 350.404 C 330.454 351.329,330.366 351.314,330.966 350.296 C 331.561 349.287,331.473 349.267,330.370 350.161 C 329.659 350.738,327.904 351.399,326.471 351.630 C 325.038 351.862,323.511 352.110,323.077 352.182 C 322.643 352.254,321.899 352.556,321.422 352.854 C 320.946 353.152,315.515 353.398,309.353 353.401 C 297.185 353.406,296.605 353.517,297.183 355.727 C 297.434 356.686,296.918 357.672,295.729 358.510 C 293.987 359.736,294.557 359.803,306.114 359.724 C 319.330 359.634,324.356 358.457,325.387 355.210 C 325.737 354.107,326.821 353.528,329.111 353.221 C 330.887 352.982,332.666 352.462,333.063 352.065 C 333.875 351.253,334.773 347.140,334.138 347.140 C 333.912 347.140,333.728 347.516,333.728 347.976 " stroke="none" fill="#004040" fill-rule="evenodd"></path><path id="path5" d="M171.203 35.729 C 171.203 35.875,172.268 36.783,173.570 37.745 C 174.872 38.708,175.937 39.138,175.937 38.703 C 175.937 38.267,174.872 37.360,173.570 36.686 C 172.268 36.013,171.203 35.582,171.203 35.729 M15.198 97.608 C 16.397 97.789,18.173 97.784,19.143 97.597 C 20.113 97.410,19.132 97.261,16.963 97.267 C 14.793 97.273,13.999 97.426,15.198 97.608 " stroke="none" fill="#00ffff" fill-rule="evenodd"></path><path id="path6" d="M129.586 35.209 C 129.043 35.443,128.600 36.294,128.600 37.100 C 128.600 37.906,128.239 38.789,127.798 39.061 C 127.357 39.334,127.206 39.896,127.462 40.311 C 127.718 40.725,127.635 41.014,127.278 40.952 C 125.524 40.647,124.603 41.209,123.600 43.195 C 122.997 44.389,122.663 45.809,122.856 46.351 C 123.050 46.893,122.824 47.337,122.354 47.337 C 121.884 47.337,121.499 47.870,121.499 48.521 C 121.499 49.172,121.136 49.704,120.693 49.704 C 120.250 49.704,119.517 50.517,119.064 51.511 C 118.322 53.140,117.640 53.337,112.177 53.505 C 95.958 54.005,96.713 51.611,96.804 102.210 C 96.876 141.789,96.874 141.820,95.256 141.397 C 93.274 140.879,90.288 138.068,91.716 138.065 C 92.258 138.064,91.531 137.062,90.100 135.839 C 88.668 134.615,87.439 132.845,87.368 131.905 C 87.291 130.876,86.953 130.482,86.520 130.916 C 86.087 131.349,85.153 131.031,84.172 130.117 C 83.276 129.283,81.711 128.600,80.694 128.600 C 79.652 128.600,78.626 127.998,78.342 127.219 C 77.460 124.803,75.364 122.545,74.324 122.891 C 72.959 123.346,71.006 121.614,71.006 119.947 C 71.006 118.690,68.079 115.332,67.373 115.779 C 66.378 116.409,65.541 115.700,64.813 113.609 C 64.359 112.308,63.703 111.197,63.355 111.142 C 60.423 110.675,58.870 110.512,54.043 110.163 C 51.006 109.944,46.479 109.742,43.984 109.714 C 40.735 109.679,39.448 109.364,39.448 108.604 C 39.448 107.281,36.669 104.704,34.873 104.362 C 33.623 104.124,29.346 103.622,26.975 103.435 C 26.407 103.390,26.075 103.087,26.237 102.761 C 27.283 100.662,22.298 98.391,16.699 98.416 C 11.632 98.439,10.833 99.072,10.317 103.473 C 10.284 103.756,9.189 104.360,7.885 104.814 C 4.366 106.041,2.573 112.779,3.634 120.782 C 4.370 126.330,4.488 126.413,13.244 127.574 C 15.172 127.830,17.046 128.621,17.601 129.413 C 18.137 130.179,20.738 131.792,23.382 132.999 C 27.285 134.782,28.370 135.697,29.156 137.872 C 30.545 141.714,41.323 152.000,44.603 152.616 C 46.553 152.982,47.399 153.677,48.003 155.410 C 48.578 157.060,49.541 157.908,51.383 158.385 C 53.009 158.807,54.432 159.911,55.244 161.380 C 55.951 162.661,57.266 163.817,58.167 163.950 C 59.067 164.083,61.496 165.790,63.564 167.743 C 65.632 169.697,68.367 171.504,69.641 171.758 C 71.243 172.079,72.190 172.891,72.714 174.392 C 73.299 176.070,74.245 176.758,76.884 177.423 C 79.381 178.051,80.421 178.761,80.758 180.068 C 81.057 181.225,82.477 182.402,84.791 183.412 C 86.756 184.268,88.363 185.262,88.363 185.619 C 88.363 186.566,92.439 190.010,94.280 190.618 C 97.484 191.677,98.514 198.817,95.464 198.817 C 92.308 198.817,90.730 201.547,90.730 207.009 C 90.730 211.377,90.521 212.099,89.156 212.456 C 88.290 212.683,87.334 213.523,87.030 214.324 C 86.727 215.124,86.042 216.221,85.509 216.762 C 84.812 217.467,84.514 222.202,84.451 233.544 L 84.364 249.345 79.603 254.061 C 76.985 256.655,75.301 258.777,75.861 258.777 C 76.421 258.777,76.113 259.314,75.176 259.970 C 74.239 260.627,73.455 261.781,73.433 262.535 C 73.411 263.288,73.169 266.122,72.894 268.831 C 72.500 272.719,72.673 274.180,73.715 275.770 C 74.512 276.987,74.828 278.433,74.513 279.425 C 74.182 280.468,74.291 280.881,74.812 280.559 C 75.262 280.281,75.888 280.469,76.202 280.977 C 76.538 281.521,76.432 281.690,75.944 281.389 C 75.184 280.919,74.669 281.571,74.172 283.629 C 73.800 285.172,69.279 290.336,68.643 289.943 C 68.288 289.724,68.172 290.343,68.387 291.320 C 68.634 292.447,68.526 292.750,68.093 292.148 C 67.683 291.579,67.419 293.367,67.433 296.619 C 67.445 299.600,67.633 302.029,67.850 302.019 C 69.827 301.920,71.865 303.543,72.614 305.810 C 73.101 307.287,73.802 308.309,74.171 308.081 C 74.540 307.853,75.065 308.027,75.337 308.468 C 75.620 308.925,79.239 309.270,83.754 309.270 C 97.003 309.270,97.795 310.068,97.832 323.471 C 97.860 333.604,97.611 333.238,105.325 334.503 C 108.797 335.072,112.008 335.823,112.461 336.172 C 118.099 340.519,195.319 342.849,205.360 338.975 L 209.141 337.516 211.866 339.369 C 213.404 340.416,214.969 342.363,215.461 343.842 C 215.940 345.283,216.829 346.652,217.436 346.885 C 218.044 347.118,218.540 348.208,218.540 349.307 C 218.540 351.541,220.488 353.389,222.884 353.427 C 223.754 353.440,225.493 354.683,226.748 356.188 C 228.003 357.693,229.307 358.752,229.647 358.542 C 229.987 358.332,230.475 358.498,230.730 358.912 C 231.011 359.366,243.601 359.691,262.540 359.733 C 296.328 359.808,298.194 359.592,297.183 355.727 C 296.605 353.517,297.185 353.406,309.353 353.401 C 315.515 353.398,320.946 353.152,321.422 352.854 C 321.899 352.556,322.643 352.254,323.077 352.182 C 323.511 352.110,325.038 351.862,326.471 351.630 C 327.904 351.399,329.659 350.738,330.370 350.161 C 331.473 349.267,331.561 349.287,330.966 350.296 C 330.347 351.348,330.431 351.348,331.725 350.296 C 332.526 349.645,333.393 349.123,333.652 349.136 C 333.911 349.149,334.018 348.705,333.890 348.150 C 333.724 347.426,334.952 347.118,338.230 347.061 C 343.549 346.970,346.815 346.161,346.580 344.995 C 346.150 342.863,349.245 341.684,355.628 341.548 C 359.185 341.472,361.905 341.102,361.672 340.725 C 361.439 340.348,361.894 340.039,362.683 340.039 C 364.170 340.039,366.406 337.269,365.762 336.226 C 365.389 335.623,368.659 335.087,372.584 335.109 C 373.777 335.116,374.753 334.808,374.753 334.425 C 374.753 334.041,375.274 333.728,375.909 333.728 C 377.310 333.728,378.617 331.414,378.137 329.783 C 377.853 328.818,377.929 328.799,378.546 329.680 C 379.164 330.563,379.460 330.490,380.160 329.286 C 380.631 328.475,381.028 328.089,381.041 328.430 C 381.117 330.389,384.221 327.062,384.221 325.022 C 384.221 322.832,385.769 321.525,385.824 323.669 C 385.839 324.271,386.257 324.117,386.897 323.274 C 387.474 322.515,388.312 321.893,388.760 321.893 C 389.715 321.893,390.533 320.036,390.533 317.864 C 390.533 316.806,391.237 316.190,392.810 315.876 C 396.241 315.190,396.834 312.943,396.475 301.992 C 396.120 291.136,396.033 290.335,395.209 290.335 C 394.888 290.335,394.825 289.570,395.070 288.634 C 395.404 287.358,395.253 287.094,394.468 287.580 C 393.714 288.046,393.556 287.872,393.905 286.964 C 395.464 282.901,396.129 278.590,395.670 275.527 C 394.748 269.377,394.570 268.902,392.535 267.154 C 391.434 266.207,390.533 265.017,390.533 264.509 C 390.533 262.618,388.640 259.518,387.705 259.877 C 386.579 260.309,383.713 257.444,384.491 256.666 C 384.780 256.377,384.455 255.286,383.769 254.240 C 383.084 253.194,382.712 251.846,382.943 251.244 C 383.449 249.925,381.981 248.869,380.079 249.182 C 379.320 249.307,378.698 249.032,378.698 248.570 C 378.698 248.088,376.986 247.732,374.663 247.732 L 370.627 247.732 371.934 249.726 C 372.653 250.823,373.027 252.067,372.766 252.489 C 372.505 252.912,373.152 253.585,374.204 253.984 C 376.197 254.742,377.120 256.277,377.120 258.831 C 377.120 259.803,378.096 260.742,379.882 261.488 C 381.530 262.176,382.667 263.214,382.703 264.062 C 382.737 264.844,382.912 266.193,383.094 267.061 C 383.275 267.929,383.650 273.787,383.927 280.079 C 384.290 288.322,384.748 291.885,385.568 292.829 C 387.094 294.587,387.131 303.668,385.624 306.632 C 384.997 307.866,383.508 310.889,382.316 313.349 C 380.315 317.479,375.740 321.893,373.461 321.893 C 373.013 321.893,371.715 322.940,370.576 324.219 C 369.273 325.680,367.393 326.734,365.514 327.055 C 359.929 328.009,356.607 329.053,356.607 329.854 C 356.607 330.984,351.732 332.881,346.479 333.796 C 344.022 334.224,340.237 335.439,338.067 336.496 C 335.897 337.553,330.927 338.949,327.022 339.598 C 323.116 340.247,318.432 341.314,316.612 341.968 C 312.481 343.453,310.717 343.732,301.381 344.382 C 297.258 344.669,291.759 345.439,289.160 346.093 C 283.800 347.441,279.819 347.056,275.304 344.752 C 271.153 342.635,266.996 342.797,261.883 345.274 C 255.625 348.308,239.017 348.939,230.719 346.460 C 224.702 344.661,223.491 343.658,218.934 336.703 C 215.457 331.397,212.927 330.488,206.395 332.196 C 197.019 334.648,123.706 333.937,111.916 331.280 C 106.191 329.990,103.369 325.521,103.357 317.726 C 103.347 310.933,99.664 306.666,93.053 305.789 C 90.829 305.494,87.715 304.559,86.134 303.711 C 84.552 302.863,82.818 302.170,82.280 302.170 C 80.059 302.170,79.081 298.003,79.410 289.941 C 79.930 277.185,80.283 275.423,82.425 274.885 C 84.781 274.294,85.196 272.638,85.993 260.646 C 86.634 251.007,87.520 247.732,89.486 247.732 C 91.046 247.732,91.668 243.093,91.103 235.680 C 90.544 228.353,92.496 220.811,95.552 218.485 C 96.733 217.586,97.581 215.244,98.643 209.948 C 99.449 205.934,100.838 201.412,101.730 199.899 C 105.409 193.663,103.092 189.480,92.110 182.529 C 89.615 180.950,87.574 179.360,87.574 178.997 C 87.574 178.633,86.219 177.644,84.563 176.800 C 82.906 175.955,81.048 174.656,80.432 173.915 C 79.817 173.173,77.936 171.697,76.253 170.634 C 74.569 169.572,70.496 166.514,67.201 163.838 C 63.906 161.163,60.059 158.087,58.653 157.002 C 57.247 155.917,54.037 153.421,51.520 151.455 C 49.002 149.488,45.676 147.103,44.127 146.153 C 42.579 145.204,39.260 142.197,36.752 139.472 C 27.488 129.405,26.010 128.069,22.139 126.255 C 19.091 124.828,17.990 123.811,17.332 121.817 C 16.862 120.395,15.783 118.347,14.933 117.267 C 11.280 112.623,19.661 109.147,29.980 111.026 C 33.089 111.592,33.562 111.946,33.785 113.870 C 34.164 117.148,39.098 116.735,38.970 113.436 C 38.924 112.256,39.190 111.478,39.562 111.708 C 39.933 111.937,40.237 111.837,40.237 111.486 C 40.238 111.135,41.138 110.796,42.238 110.733 C 43.802 110.642,44.052 110.842,43.383 111.649 C 42.818 112.329,42.797 112.847,43.320 113.170 C 43.756 113.440,43.913 114.181,43.668 114.818 C 43.299 115.780,45.162 116.564,45.957 115.782 C 46.463 115.283,51.241 119.339,51.645 120.610 C 51.896 121.401,53.426 122.447,55.045 122.936 C 58.453 123.966,61.509 126.608,64.472 131.085 C 65.623 132.825,68.186 135.362,70.166 136.723 C 74.165 139.471,76.364 141.408,84.725 149.544 C 102.466 166.808,104.073 163.027,103.643 105.052 C 103.319 61.370,103.202 61.845,114.528 61.054 C 122.406 60.504,123.866 60.135,123.866 58.694 C 123.866 58.013,124.908 57.063,126.181 56.583 C 128.718 55.625,129.361 54.139,129.378 49.200 C 129.399 42.920,130.521 42.375,144.622 41.797 C 157.077 41.286,160.395 40.452,158.596 38.284 C 157.464 36.920,158.497 36.227,160.137 37.251 C 160.947 37.757,161.366 38.718,161.146 39.562 C 160.921 40.419,161.276 41.202,162.019 41.487 C 162.708 41.751,163.494 43.159,163.768 44.616 C 164.223 47.042,164.561 47.309,167.784 47.793 C 174.972 48.871,179.363 47.357,178.510 44.094 C 178.218 42.979,178.541 42.604,179.790 42.604 C 180.708 42.604,181.460 42.249,181.460 41.815 C 181.460 41.381,180.094 41.026,178.426 41.026 C 176.407 41.026,174.921 40.504,173.981 39.466 C 173.205 38.609,172.254 38.103,171.867 38.342 C 171.480 38.581,171.262 38.306,171.381 37.731 C 171.501 37.153,170.984 36.735,170.225 36.795 C 169.471 36.854,169.046 36.590,169.283 36.208 C 169.782 35.399,171.041 35.467,148.323 35.083 C 138.560 34.918,130.128 34.975,129.586 35.209 M188.560 41.331 C 188.560 41.498,189.625 41.792,190.927 41.983 C 192.229 42.174,193.294 42.037,193.294 41.678 C 193.294 41.319,192.229 41.026,190.927 41.026 C 189.625 41.026,188.560 41.163,188.560 41.331 M194.436 42.801 C 194.731 43.777,195.039 45.108,195.120 45.759 C 195.200 46.410,196.065 47.590,197.041 48.381 C 198.018 49.172,198.817 50.647,198.817 51.660 C 198.817 54.435,213.363 55.850,224.755 54.182 C 230.979 53.271,233.531 54.485,233.531 58.358 C 233.531 60.529,238.885 60.750,291.583 60.750 C 343.240 60.750,343.123 60.741,345.247 64.848 C 345.983 66.271,347.598 68.382,348.835 69.537 C 350.630 71.214,351.090 72.333,351.110 75.070 C 351.154 81.039,354.875 82.977,359.058 79.209 C 360.934 77.519,363.009 78.637,362.667 81.155 C 362.511 82.299,362.903 84.477,363.537 85.996 C 364.892 89.243,365.131 97.476,364.192 108.481 C 363.412 117.610,364.246 121.965,367.369 125.089 C 369.220 126.940,369.337 127.436,368.722 130.816 C 367.687 136.494,368.161 146.135,369.646 149.603 C 373.225 157.967,372.078 174.374,367.548 179.608 L 364.420 183.223 364.941 188.850 C 365.297 192.696,365.922 194.958,366.914 195.995 C 368.310 197.455,368.311 197.562,366.951 198.757 C 365.930 199.654,365.396 201.671,365.036 205.998 C 364.422 213.372,364.227 213.891,361.482 215.457 C 359.754 216.443,359.067 217.669,358.286 221.161 C 357.549 224.453,356.690 226.080,354.980 227.418 C 347.883 232.972,348.046 251.677,355.192 251.677 C 355.998 251.677,356.861 252.209,357.111 252.860 C 357.568 254.051,362.082 254.578,362.183 253.452 C 362.213 253.126,362.387 251.706,362.571 250.296 L 362.906 247.732 359.316 247.732 C 356.653 247.732,355.879 247.477,356.318 246.746 C 356.726 246.067,356.497 246.094,355.585 246.834 C 354.131 248.013,354.053 247.913,353.124 243.652 C 352.439 240.513,353.312 239.053,355.875 239.053 C 358.186 239.053,359.862 237.162,359.197 235.306 C 359.002 234.764,359.403 234.105,360.088 233.843 C 360.772 233.580,361.152 233.073,360.931 232.716 C 360.710 232.359,361.237 231.842,362.103 231.567 C 362.968 231.292,363.611 230.823,363.533 230.524 C 363.206 229.287,366.921 223.418,368.816 222.177 C 369.940 221.440,370.664 220.523,370.426 220.138 C 370.189 219.753,370.372 219.205,370.834 218.920 C 371.295 218.634,371.615 217.811,371.545 217.090 C 371.474 216.369,371.466 213.116,371.527 209.862 L 371.638 203.945 374.765 202.504 L 377.891 201.062 377.806 163.253 C 377.755 140.240,377.431 125.444,376.980 125.444 C 376.572 125.444,376.435 125.126,376.675 124.738 C 377.153 123.963,374.909 122.742,373.432 122.973 C 371.739 123.239,371.410 121.423,371.489 112.251 C 371.565 103.589,372.329 100.370,374.055 101.437 C 375.185 102.135,376.498 97.687,376.089 94.550 C 375.879 92.946,376.112 91.231,376.613 90.687 C 377.297 89.946,377.276 89.844,376.529 90.266 C 375.986 90.572,375.542 90.515,375.542 90.138 C 375.542 89.762,374.984 88.764,374.300 87.922 C 373.617 87.080,373.331 86.923,373.663 87.574 C 374.173 88.574,374.070 88.597,372.994 87.726 C 372.294 87.158,371.485 85.296,371.196 83.588 C 370.908 81.879,370.341 80.278,369.938 80.029 C 369.535 79.779,369.378 79.296,369.589 78.955 C 369.799 78.614,369.100 78.501,368.033 78.705 C 366.641 78.971,365.947 78.661,365.570 77.605 C 364.734 75.258,362.795 73.373,361.219 73.373 C 360.363 73.373,359.758 72.804,359.751 71.992 C 359.742 70.895,359.597 70.836,359.047 71.704 C 358.495 72.576,358.171 72.453,357.445 71.096 C 356.944 70.161,356.783 68.993,357.087 68.501 C 357.391 68.009,357.294 67.820,356.870 68.082 C 355.410 68.985,353.394 65.466,353.322 61.889 C 353.283 59.961,352.921 58.383,352.516 58.383 C 352.112 58.383,351.956 58.099,352.170 57.753 C 354.325 54.266,351.574 54.082,293.665 53.846 L 239.795 53.627 239.102 51.804 C 238.720 50.801,237.445 49.348,236.267 48.577 C 235.089 47.805,234.405 47.626,234.746 48.178 C 235.217 48.939,235.001 49.007,233.857 48.458 C 233.027 48.060,228.264 47.678,223.274 47.611 C 218.284 47.544,211.627 47.455,208.481 47.413 C 203.473 47.347,202.761 47.156,202.761 45.880 C 202.761 43.239,200.263 41.214,197.825 41.878 C 196.553 42.224,195.835 42.170,196.097 41.748 C 196.342 41.351,195.948 41.026,195.221 41.026 C 194.217 41.026,194.028 41.452,194.436 42.801 M163.806 224.850 C 155.371 227.670,154.635 228.220,154.635 231.707 C 154.635 236.090,159.203 242.381,164.345 245.079 C 165.563 245.718,171.243 249.712,176.968 253.955 C 182.693 258.198,190.750 263.931,194.872 266.695 C 204.062 272.857,213.541 279.799,214.183 280.839 C 214.674 281.633,221.375 284.813,222.558 284.813 C 222.922 284.813,224.485 283.701,226.032 282.343 L 228.844 279.874 228.330 273.862 C 227.216 260.843,223.396 255.500,207.395 244.576 C 202.191 241.023,186.678 229.681,182.432 226.325 C 176.883 221.938,173.351 221.658,163.806 224.850 M178.197 228.710 C 182.263 231.966,194.162 240.285,199.197 243.393 C 221.031 256.868,226.745 264.260,223.197 274.438 C 221.656 278.858,214.719 277.613,207.049 271.540 C 205.775 270.532,203.004 268.580,200.891 267.201 C 168.042 245.773,157.218 236.987,158.640 232.907 C 160.694 227.015,172.827 224.412,178.197 228.710 M321.105 238.659 C 321.105 241.633,321.350 242.209,322.618 242.209 C 326.010 242.209,326.560 241.425,324.568 239.433 C 323.531 238.396,322.682 236.998,322.682 236.328 C 322.682 235.657,322.327 235.108,321.893 235.108 C 321.460 235.108,321.105 236.706,321.105 238.659 M385.483 257.072 C 385.232 257.477,385.524 258.222,386.132 258.726 C 386.785 259.268,387.423 259.341,387.692 258.905 C 387.943 258.499,387.651 257.754,387.044 257.250 C 386.391 256.708,385.753 256.635,385.483 257.072 " stroke="none" fill="#497992" fill-rule="evenodd"></path><path id="path7" d="M92.769 133.616 C 93.334 135.091,95.464 135.387,95.464 133.991 C 95.464 133.485,95.230 133.304,94.944 133.589 C 94.659 133.875,93.941 133.706,93.348 133.215 C 92.497 132.509,92.376 132.593,92.769 133.616 M378.224 138.470 C 378.320 139.125,378.893 140.101,379.497 140.639 C 380.428 141.469,380.436 141.408,379.550 140.237 C 378.804 139.251,378.769 138.856,379.429 138.856 C 379.937 138.856,380.854 140.010,381.467 141.420 C 382.402 143.571,382.586 143.698,382.612 142.209 C 382.643 140.457,380.165 137.278,378.768 137.278 C 378.373 137.278,378.128 137.814,378.224 138.470 M43.393 165.635 C 43.393 166.745,48.762 171.300,49.212 170.572 C 49.473 170.150,49.158 169.365,48.512 168.829 C 47.866 168.293,47.337 167.406,47.337 166.859 C 47.337 166.312,46.450 165.695,45.365 165.487 C 44.280 165.280,43.393 165.346,43.393 165.635 M61.970 179.432 C 62.661 180.487,64.178 181.953,65.341 182.691 C 66.961 183.718,66.726 183.270,64.337 180.773 C 60.763 177.039,60.188 176.714,61.970 179.432 M81.899 245.168 C 79.926 247.465,79.270 248.873,80.549 248.063 C 81.158 247.677,82.012 247.356,82.446 247.349 C 82.880 247.343,83.240 246.982,83.247 246.548 C 83.253 246.114,83.541 245.316,83.885 244.773 C 84.834 243.279,83.251 243.593,81.899 245.168 M88.757 317.949 C 89.543 318.817,90.266 319.527,90.366 319.527 C 90.465 319.527,90.731 318.817,90.958 317.949 C 91.292 316.674,90.983 316.371,89.350 316.371 C 87.379 316.371,87.365 316.410,88.757 317.949 M393.933 321.428 C 393.581 322.057,392.583 322.509,391.715 322.430 C 390.711 322.340,390.134 322.769,390.128 323.613 C 390.122 324.342,389.799 325.229,389.410 325.585 C 388.994 325.965,388.980 325.743,389.374 325.049 C 389.952 324.032,389.861 324.017,388.720 324.941 C 387.492 325.938,387.542 327.418,388.804 327.415 C 390.051 327.413,396.172 321.270,395.402 320.794 C 394.947 320.513,394.286 320.798,393.933 321.428 M99.803 341.617 C 99.109 342.740,99.951 343.817,102.593 345.183 C 104.637 346.240,104.839 346.240,104.433 345.181 C 104.182 344.528,103.706 344.160,103.376 344.365 C 102.564 344.866,100.055 342.023,100.721 341.356 C 101.012 341.066,101.033 340.828,100.770 340.828 C 100.506 340.828,100.071 341.183,99.803 341.617 M198.848 347.389 C 198.788 348.624,200.442 351.054,201.859 351.813 C 202.910 352.375,203.287 352.296,203.287 351.512 C 203.287 350.926,202.840 350.618,202.293 350.828 C 201.746 351.038,200.755 350.205,200.089 348.977 C 199.424 347.750,198.866 347.035,198.848 347.389 " stroke="none" fill="#000055" fill-rule="evenodd"></path><path id="path8" d="M202.978 45.766 C 202.903 46.761,203.357 47.194,204.392 47.116 C 206.303 46.972,206.353 46.048,204.503 45.058 C 203.387 44.461,203.065 44.611,202.978 45.766 M65.704 114.345 C 65.625 115.391,66.060 115.835,67.086 115.758 C 68.474 115.653,68.490 115.542,67.306 114.233 C 65.743 112.506,65.843 112.499,65.704 114.345 " stroke="none" fill="#0000aa" fill-rule="evenodd"></path><path id="path9" d="M204.536 43.844 C 205.730 44.491,206.706 45.424,206.706 45.916 C 206.706 46.408,206.941 46.577,207.227 46.290 C 207.989 45.529,205.100 42.598,203.625 42.635 C 202.853 42.655,203.205 43.121,204.536 43.844 M51.266 107.711 C 49.928 109.324,50.610 109.827,53.723 109.523 C 56.195 109.282,56.251 109.206,54.926 107.890 C 53.222 106.197,52.551 106.164,51.266 107.711 " stroke="none" fill="#0000ff" fill-rule="evenodd"></path></g></svg>