<svg id="svg" version="1.1" width="500" height="500" xmlns="http://www.w3.org/2000/svg" xmlns:xlink="http://www.w3.org/1999/xlink" style="display: block;"><g id="svgg"><path id="path0" d="M251.200 47.533 C 251.200 48.230,251.770 48.800,252.467 48.800 C 253.879 48.800,253.633 47.078,252.150 46.583 C 251.628 46.409,251.200 46.837,251.200 47.533 " stroke="none" fill="#000000" fill-rule="evenodd"></path><path id="path1" d="M125.295 53.219 C 123.709 54.805,123.699 54.933,125.165 54.933 C 125.805 54.933,126.163 54.664,125.960 54.335 C 125.756 54.006,126.042 53.575,126.595 53.378 C 127.148 53.181,127.373 52.773,127.095 52.471 C 126.818 52.170,126.008 52.507,125.295 53.219 M118.291 62.315 C 119.211 62.899,119.211 63.067,118.291 63.394 C 117.691 63.607,117.454 64.055,117.765 64.389 C 118.633 65.322,120.800 64.205,120.800 62.825 C 120.800 62.084,120.088 61.605,119.000 61.612 C 117.679 61.621,117.490 61.808,118.291 62.315 M157.116 63.986 C 141.359 65.662,136.111 70.620,134.024 85.800 L 133.502 89.600 128.951 89.769 C 119.446 90.122,118.432 89.876,117.404 86.973 C 116.978 85.770,34.280 86.294,32.422 87.512 C 31.511 88.109,29.243 88.855,27.383 89.169 C 25.432 89.499,24.000 90.181,24.000 90.781 C 24.000 91.354,22.721 92.062,21.158 92.355 C 19.595 92.648,18.122 93.395,17.884 94.014 C 17.647 94.633,16.765 95.357,15.926 95.623 C 15.087 95.890,14.400 96.611,14.400 97.226 C 14.400 97.841,13.680 98.729,12.800 99.200 C 11.775 99.749,11.200 100.875,11.200 102.335 C 11.200 103.941,10.728 104.737,9.600 105.032 C 8.293 105.374,8.000 106.123,8.000 109.125 C 8.000 111.392,7.642 112.800,7.067 112.800 C 6.553 112.800,6.356 113.023,6.629 113.295 C 6.901 113.568,6.601 114.313,5.962 114.952 C 4.959 115.955,4.825 126.936,4.980 195.057 C 5.078 238.476,5.358 264.640,5.600 253.200 C 5.945 236.912,6.080 241.963,6.220 276.481 C 6.343 306.685,6.125 321.349,5.528 323.064 C 4.896 324.876,4.898 326.178,5.537 327.783 C 6.274 329.639,6.359 329.688,6.054 328.085 C 5.771 326.600,5.904 326.384,6.645 327.125 C 7.763 328.243,7.770 328.279,7.900 334.000 C 7.976 337.366,8.287 338.400,9.220 338.400 C 9.891 338.400,10.814 339.385,11.272 340.589 C 12.300 343.293,14.506 345.431,15.818 344.994 C 16.438 344.787,16.620 345.138,16.311 345.942 C 15.939 346.912,16.163 347.087,17.242 346.673 C 18.251 346.286,18.485 346.415,18.051 347.118 C 17.657 347.755,18.038 348.264,19.120 348.547 C 20.044 348.789,20.800 349.500,20.800 350.128 C 20.800 350.756,21.250 351.212,21.800 351.140 C 23.763 350.885,24.888 351.211,24.456 351.909 C 24.215 352.299,24.623 353.109,25.362 353.709 C 26.287 354.459,26.520 354.488,26.106 353.800 C 25.776 353.250,25.887 352.800,26.353 352.800 C 26.819 352.800,27.200 353.152,27.200 353.583 C 27.200 355.392,374.226 354.620,375.195 352.809 C 375.669 351.924,376.739 351.200,377.574 351.200 C 378.409 351.200,379.315 350.498,379.587 349.641 C 379.859 348.783,380.526 348.252,381.069 348.460 C 382.001 348.818,385.600 346.105,385.600 345.045 C 385.600 344.774,384.880 345.204,384.000 346.000 C 383.120 346.796,382.400 347.093,382.400 346.659 C 382.400 346.225,383.288 345.395,384.373 344.815 C 385.458 344.234,386.156 343.453,385.925 343.079 C 385.695 342.706,386.202 342.400,387.053 342.400 C 388.139 342.400,388.746 341.670,389.091 339.947 C 389.360 338.598,389.935 337.713,390.367 337.980 C 391.253 338.527,391.692 336.857,392.415 330.200 C 392.690 327.670,393.288 325.600,393.744 325.600 C 394.247 325.600,394.360 326.466,394.030 327.800 C 393.646 329.354,393.737 329.754,394.341 329.163 C 396.022 327.514,395.094 113.686,393.400 112.447 C 392.457 111.758,392.000 110.343,392.000 108.112 C 392.000 105.333,391.742 104.800,390.400 104.800 C 389.115 104.800,388.800 104.267,388.800 102.093 C 388.800 100.059,388.402 99.283,387.200 98.968 C 386.320 98.738,385.600 98.000,385.600 97.329 C 385.600 96.657,384.880 95.879,384.000 95.600 C 383.120 95.321,382.400 94.581,382.400 93.956 C 382.400 93.248,381.192 92.626,379.200 92.307 C 377.393 92.018,376.000 91.348,376.000 90.768 C 376.000 90.185,374.550 89.496,372.647 89.174 C 370.802 88.862,368.797 88.111,368.189 87.504 C 367.276 86.591,359.014 86.400,320.343 86.400 L 273.600 86.400 273.600 80.753 C 273.600 74.516,272.419 73.684,272.107 79.702 C 271.999 81.789,271.695 83.846,271.432 84.272 C 271.168 84.699,271.367 84.791,271.876 84.476 C 272.424 84.138,272.800 84.414,272.800 85.153 C 272.800 85.839,272.454 86.400,272.031 86.400 C 271.608 86.400,270.588 87.124,269.764 88.009 C 268.213 89.673,265.873 90.042,258.649 89.761 L 254.498 89.600 253.951 85.800 C 253.650 83.710,252.728 80.490,251.902 78.644 C 251.076 76.798,250.400 74.981,250.400 74.606 C 250.400 71.920,241.421 65.944,235.832 64.911 C 230.082 63.848,165.544 63.090,157.116 63.986 M231.200 75.200 C 232.080 76.080,233.520 76.800,234.400 76.800 C 235.280 76.800,236.000 77.298,236.000 77.907 C 236.000 78.515,236.720 79.202,237.600 79.432 C 238.742 79.731,239.200 80.523,239.200 82.203 C 239.200 83.852,239.738 84.815,241.000 85.424 C 242.317 86.059,230.082 86.306,195.385 86.346 L 147.970 86.400 148.518 84.214 C 148.820 83.012,149.067 81.592,149.067 81.059 C 149.067 80.525,149.448 80.159,149.914 80.244 C 150.381 80.330,150.881 79.626,151.026 78.681 C 151.216 77.447,152.047 76.819,153.968 76.459 C 155.441 76.183,156.849 75.426,157.098 74.778 C 157.915 72.648,229.053 73.053,231.200 75.200 M114.661 81.370 C 114.699 84.050,114.923 84.562,115.755 83.872 C 116.330 83.395,116.757 82.058,116.705 80.902 C 116.613 78.854,116.596 78.862,116.033 81.200 L 115.456 83.600 115.034 80.800 C 114.637 78.162,114.615 78.195,114.661 81.370 M354.000 98.777 C 361.762 100.405,372.800 107.503,372.800 110.866 C 372.800 111.200,373.304 112.042,373.919 112.737 C 377.561 116.847,377.746 119.940,378.517 189.600 C 379.296 259.945,379.242 258.743,381.555 256.347 C 382.908 254.946,383.134 252.381,383.951 229.200 C 385.807 176.564,385.952 176.262,386.634 223.600 C 386.983 247.800,387.227 282.413,387.176 300.518 L 387.084 333.436 385.096 333.816 C 383.594 334.103,383.217 333.911,383.554 333.031 C 383.825 332.325,383.607 331.996,383.001 332.196 C 382.450 332.377,381.894 333.237,381.765 334.106 C 381.636 334.976,379.739 337.106,377.551 338.839 C 375.362 340.572,373.938 342.113,374.386 342.262 C 375.461 342.620,375.433 345.362,374.347 346.033 C 373.877 346.323,373.053 345.958,372.515 345.223 C 371.006 343.158,366.908 344.360,368.068 346.527 C 368.528 347.386,368.790 348.431,368.650 348.850 C 368.313 349.860,31.697 349.890,31.360 348.880 C 31.226 348.478,31.894 347.604,32.845 346.939 C 34.793 345.574,34.305 344.000,31.935 344.000 C 28.264 344.000,16.651 329.855,15.469 323.943 C 15.211 322.654,14.685 321.600,14.300 321.600 C 13.035 321.600,13.512 304.584,14.825 302.847 C 15.768 301.601,16.000 298.110,16.000 285.176 C 16.000 248.606,16.846 232.800,18.804 232.800 C 23.494 232.800,23.314 234.867,23.957 173.844 L 24.545 118.000 26.591 114.052 C 28.865 109.666,35.367 102.703,37.938 101.902 C 38.852 101.617,39.807 101.064,40.059 100.673 C 40.311 100.282,42.610 99.621,45.168 99.205 C 47.726 98.789,50.009 98.257,50.242 98.024 C 51.394 96.872,348.433 97.608,354.000 98.777 M179.724 159.863 C 178.582 161.125,178.399 163.622,178.389 178.063 C 178.374 200.930,180.368 198.400,162.359 198.400 C 154.079 198.400,146.381 198.751,145.252 199.180 L 143.200 199.960 143.212 220.580 C 143.219 232.146,143.557 241.727,143.982 242.400 C 144.601 243.382,147.764 243.673,161.369 244.000 L 178.000 244.400 178.148 267.055 C 178.253 283.178,178.569 290.040,179.246 290.855 C 181.090 293.078,222.082 292.490,223.295 290.223 C 224.002 288.902,224.107 282.871,223.706 266.715 C 223.221 247.201,223.297 244.934,224.448 244.492 C 225.154 244.221,232.695 244.000,241.207 244.000 L 256.684 244.000 258.392 241.828 C 260.899 238.641,260.595 201.396,258.047 199.534 C 256.835 198.649,253.134 198.400,241.171 198.400 C 221.388 198.400,223.200 200.467,223.200 177.897 C 223.200 165.293,222.928 160.048,222.240 159.360 C 220.458 157.578,181.374 158.040,179.724 159.863 M221.440 160.160 C 222.125 160.845,222.400 165.862,222.400 177.660 C 222.400 186.757,222.621 195.305,222.891 196.656 L 223.382 199.112 240.122 199.356 C 253.944 199.557,256.993 199.809,257.618 200.800 C 258.609 202.370,258.609 239.229,257.619 240.800 C 257.001 241.780,253.866 242.073,240.496 242.400 C 231.494 242.620,223.830 243.099,223.465 243.465 C 223.099 243.831,222.620 254.631,222.400 267.465 L 222.000 290.800 202.099 291.014 C 188.089 291.165,181.873 290.958,181.099 290.316 C 180.215 289.583,180.000 285.047,180.000 267.147 C 180.000 239.659,182.051 242.400,161.479 242.400 C 142.113 242.400,144.000 244.783,144.000 220.323 L 144.000 200.760 146.052 199.980 C 147.181 199.551,154.908 199.200,163.224 199.200 C 181.758 199.200,180.000 201.370,180.000 178.492 C 180.000 162.562,180.134 160.802,181.400 160.064 C 183.501 158.840,220.208 158.928,221.440 160.160 M14.876 333.290 C 13.989 335.602,12.501 333.282,13.189 330.659 C 13.769 328.446,13.798 328.436,14.593 330.156 C 15.040 331.122,15.167 332.532,14.876 333.290 M381.030 342.490 C 379.679 343.841,378.075 342.556,379.287 341.095 C 379.957 340.288,380.508 340.188,381.086 340.766 C 381.665 341.345,381.647 341.873,381.030 342.490 M21.243 341.670 C 21.539 342.148,21.467 342.853,21.084 343.236 C 20.137 344.183,18.055 342.805,18.745 341.689 C 19.444 340.559,20.551 340.550,21.243 341.670 " stroke="none" fill="#b6b6b6" fill-rule="evenodd"></path><path id="path2" d="M136.000 46.468 C 136.000 46.922,136.450 47.042,137.000 46.735 C 137.550 46.427,137.411 46.801,136.691 47.567 C 135.916 48.392,134.205 48.960,132.494 48.960 C 130.836 48.960,129.808 49.290,130.083 49.734 C 130.346 50.159,129.805 50.705,128.880 50.947 C 127.956 51.189,127.200 51.885,127.200 52.493 C 127.200 53.102,126.819 53.600,126.353 53.600 C 125.887 53.600,125.691 53.900,125.918 54.267 C 126.144 54.633,125.821 54.933,125.200 54.933 C 124.579 54.933,124.293 54.543,124.564 54.067 C 124.836 53.590,124.096 54.076,122.920 55.147 C 121.342 56.586,121.047 57.262,121.791 57.735 C 122.528 58.203,122.439 58.379,121.460 58.388 C 120.392 58.398,120.193 58.981,120.477 61.271 C 120.771 63.643,120.552 64.215,119.216 64.564 C 118.183 64.834,117.600 65.653,117.600 66.836 C 117.600 67.853,116.970 69.317,116.200 70.089 C 115.108 71.184,114.800 72.856,114.800 77.700 C 114.800 83.633,115.458 85.066,116.223 80.800 L 116.582 78.800 116.691 80.876 C 116.941 85.644,117.629 85.564,74.745 85.806 L 35.600 86.028 76.336 86.186 C 117.685 86.347,117.650 86.345,118.618 89.094 C 118.882 89.844,121.801 90.035,128.951 89.769 L 133.502 89.600 134.024 85.800 C 135.488 75.152,140.406 67.477,146.933 65.657 C 160.983 61.738,235.483 62.786,242.313 66.998 C 245.022 68.669,250.400 73.728,250.400 74.606 C 250.400 74.981,251.076 76.798,251.902 78.644 C 252.728 80.490,253.650 83.710,253.951 85.800 L 254.498 89.600 258.649 89.761 C 265.873 90.042,268.213 89.673,269.764 88.009 C 270.588 87.124,271.608 86.400,272.031 86.400 C 272.454 86.400,272.800 85.839,272.800 85.153 C 272.800 84.414,272.424 84.138,271.876 84.476 C 271.367 84.791,271.168 84.699,271.432 84.272 C 271.695 83.846,271.999 81.789,272.107 79.702 C 272.215 77.614,272.595 75.726,272.952 75.506 C 274.062 74.820,273.716 71.840,272.600 72.470 C 271.800 72.922,271.800 72.819,272.600 71.957 C 273.749 70.719,273.951 69.289,272.884 69.948 C 272.490 70.192,271.954 69.834,271.693 69.154 C 271.375 68.325,271.545 68.101,272.209 68.476 C 272.754 68.784,272.366 68.226,271.346 67.236 C 270.326 66.246,269.686 64.930,269.923 64.311 C 270.161 63.692,269.645 62.742,268.778 62.200 C 267.910 61.658,267.200 60.762,267.200 60.208 C 267.200 59.653,266.768 59.200,266.240 59.200 C 265.493 59.200,265.493 58.987,266.240 58.240 C 267.668 56.812,267.404 56.052,265.600 56.400 C 264.014 56.705,263.683 56.102,263.958 53.400 C 264.097 52.033,262.585 51.593,259.000 51.958 C 258.214 52.038,257.600 51.563,257.600 50.875 C 257.600 50.070,258.080 49.805,259.000 50.101 C 260.182 50.481,260.213 50.416,259.200 49.688 C 258.540 49.213,256.290 48.819,254.200 48.812 C 251.491 48.804,250.400 48.480,250.400 47.686 C 250.400 47.073,249.819 46.348,249.109 46.076 C 246.775 45.180,136.000 45.564,136.000 46.468 M194.000 85.610 L 148.400 86.020 195.400 86.210 C 221.250 86.314,242.400 86.262,242.400 86.093 C 242.400 85.287,236.482 85.228,194.000 85.610 M296.200 86.200 C 308.850 86.323,329.550 86.323,342.200 86.200 C 354.850 86.076,344.500 85.974,319.200 85.974 C 293.900 85.974,283.550 86.076,296.200 86.200 M50.242 98.024 C 50.009 98.257,47.726 98.789,45.168 99.205 C 42.610 99.621,40.311 100.282,40.059 100.673 C 39.807 101.064,38.852 101.617,37.938 101.902 C 35.367 102.703,28.865 109.666,26.591 114.052 L 24.545 118.000 23.957 173.844 C 23.314 234.867,23.494 232.800,18.804 232.800 C 16.846 232.800,16.000 248.606,16.000 285.176 C 16.000 298.110,15.768 301.601,14.825 302.847 C 13.512 304.584,13.035 321.600,14.300 321.600 C 14.685 321.600,15.211 322.654,15.469 323.943 C 16.651 329.855,28.264 344.000,31.935 344.000 C 34.305 344.000,34.793 345.574,32.845 346.939 C 31.894 347.604,31.226 348.478,31.360 348.880 C 31.697 349.890,368.313 349.860,368.650 348.850 C 368.790 348.431,368.528 347.386,368.068 346.527 C 366.908 344.360,371.006 343.158,372.515 345.223 C 373.053 345.958,373.877 346.323,374.347 346.033 C 375.433 345.362,375.461 342.620,374.386 342.262 C 373.938 342.113,375.362 340.572,377.551 338.839 C 379.739 337.106,381.636 334.976,381.765 334.106 C 381.894 333.237,382.450 332.377,383.001 332.196 C 383.607 331.996,383.825 332.325,383.554 333.031 C 383.217 333.911,383.594 334.103,385.096 333.816 L 387.084 333.436 387.176 300.518 C 387.227 282.413,386.983 247.800,386.634 223.600 C 385.952 176.262,385.807 176.564,383.951 229.200 C 383.134 252.381,382.908 254.946,381.555 256.347 C 379.242 258.743,379.296 259.945,378.517 189.600 C 377.746 119.940,377.561 116.847,373.919 112.737 C 373.304 112.042,372.800 111.200,372.800 110.866 C 372.800 107.503,361.762 100.405,354.000 98.777 C 348.433 97.608,51.394 96.872,50.242 98.024 M222.240 159.360 C 222.928 160.048,223.200 165.293,223.200 177.897 C 223.200 200.467,221.388 198.400,241.171 198.400 C 253.134 198.400,256.835 198.649,258.047 199.534 C 260.595 201.396,260.899 238.641,258.392 241.828 L 256.684 244.000 241.207 244.000 C 232.695 244.000,225.154 244.221,224.448 244.492 C 223.297 244.934,223.221 247.201,223.706 266.715 C 224.107 282.871,224.002 288.902,223.295 290.223 C 222.082 292.490,181.090 293.078,179.246 290.855 C 178.569 290.040,178.253 283.178,178.148 267.055 L 178.000 244.400 161.369 244.000 C 147.764 243.673,144.601 243.382,143.982 242.400 C 143.557 241.727,143.219 232.146,143.212 220.580 L 143.200 199.960 145.252 199.180 C 146.381 198.751,154.079 198.400,162.359 198.400 C 180.368 198.400,178.374 200.930,178.389 178.063 C 178.399 163.622,178.582 161.125,179.724 159.863 C 181.374 158.040,220.458 157.578,222.240 159.360 M5.401 263.200 C 4.600 304.401,4.689 324.931,5.657 322.512 C 6.109 321.384,6.330 302.870,6.207 276.512 L 6.000 232.400 5.401 263.200 M393.915 325.412 C 392.720 326.206,391.683 332.000,392.736 332.000 C 393.180 332.000,393.952 331.237,394.452 330.303 C 395.090 329.111,395.098 328.769,394.480 329.151 C 393.399 329.818,393.384 329.471,394.380 326.852 C 395.233 324.610,395.213 324.550,393.915 325.412 M6.132 328.154 C 6.457 329.629,6.366 329.759,5.682 328.800 C 4.582 327.261,4.545 328.428,5.628 330.453 C 6.084 331.304,6.800 332.000,7.219 332.000 C 8.282 332.000,7.853 328.074,6.684 327.104 C 5.973 326.514,5.831 326.784,6.132 328.154 M13.189 330.659 C 12.832 332.020,12.945 333.265,13.472 333.792 C 14.760 335.080,15.604 332.341,14.593 330.156 C 13.798 328.436,13.769 328.446,13.189 330.659 M379.287 341.095 C 378.574 341.954,378.559 342.404,379.231 342.819 C 380.536 343.625,382.154 341.834,381.086 340.766 C 380.508 340.188,379.957 340.288,379.287 341.095 M18.745 341.689 C 18.055 342.805,20.137 344.183,21.084 343.236 C 21.853 342.467,21.112 340.800,20.000 340.800 C 19.612 340.800,19.047 341.200,18.745 341.689 M386.124 343.634 C 386.648 344.999,388.123 344.831,388.617 343.350 C 388.793 342.822,388.203 342.400,387.292 342.400 C 386.141 342.400,385.792 342.769,386.124 343.634 M383.800 345.114 C 383.030 345.698,382.400 346.451,382.400 346.786 C 382.400 347.122,382.883 346.995,383.474 346.505 C 384.064 346.015,384.724 345.791,384.940 346.007 C 385.156 346.223,385.333 345.860,385.333 345.200 C 385.333 344.540,385.303 344.011,385.267 344.025 C 385.230 344.039,384.570 344.529,383.800 345.114 M14.933 345.333 C 14.169 346.098,14.276 347.200,15.114 347.200 C 15.507 347.200,16.036 346.660,16.289 346.000 C 16.757 344.781,15.905 344.362,14.933 345.333 " stroke="none" fill="#f4f4f4" fill-rule="evenodd"></path><path id="path3" d="M182.133 161.333 C 181.840 161.627,181.600 169.838,181.600 179.580 C 181.600 202.539,183.473 200.360,163.569 200.551 C 154.902 200.634,147.312 200.893,146.705 201.126 C 145.808 201.470,145.600 205.158,145.600 220.760 L 145.600 239.970 147.400 240.376 C 148.390 240.599,155.933 240.876,164.162 240.991 C 175.130 241.144,179.401 241.477,180.162 242.239 C 180.946 243.023,181.298 248.997,181.600 266.639 L 182.000 290.000 201.600 290.000 L 221.200 290.000 221.600 266.265 C 221.820 253.211,222.299 242.231,222.665 241.865 C 223.030 241.499,230.770 241.020,239.865 240.800 L 256.400 240.400 256.615 221.255 C 256.740 210.078,256.517 201.797,256.079 201.359 C 255.666 200.946,248.189 200.561,239.464 200.504 C 230.739 200.447,223.150 200.109,222.600 199.753 C 221.849 199.267,221.600 194.650,221.600 181.218 C 221.600 171.380,221.381 162.761,221.114 162.065 C 220.609 160.747,183.418 160.049,182.133 161.333 M220.800 181.620 L 220.800 200.040 222.852 200.820 C 223.981 201.249,231.721 201.600,240.052 201.600 L 255.200 201.600 255.200 220.800 L 255.200 240.000 238.960 240.000 C 227.396 240.000,222.444 240.276,221.760 240.960 C 221.059 241.661,220.800 247.989,220.800 264.432 L 220.800 286.943 218.762 287.872 C 215.317 289.441,183.503 289.142,182.886 287.535 C 182.619 286.839,182.394 276.489,182.388 264.535 C 182.381 252.268,182.046 242.277,181.618 241.600 C 181.000 240.620,177.880 240.327,164.631 240.000 L 148.400 239.600 148.186 220.659 L 147.971 201.718 164.416 201.459 C 177.965 201.246,180.994 200.989,181.618 200.000 C 182.035 199.340,182.381 191.030,182.388 181.533 C 182.394 172.037,182.640 164.027,182.933 163.733 C 183.227 163.440,191.867 163.200,202.133 163.200 L 220.800 163.200 220.800 181.620 " stroke="none" fill="#ae303f" fill-rule="evenodd"></path><path id="path4" d="M182.933 163.733 C 182.640 164.027,182.394 172.037,182.388 181.533 C 182.381 191.030,182.035 199.340,181.618 200.000 C 180.994 200.989,177.965 201.246,164.416 201.459 L 147.971 201.718 148.186 220.659 L 148.400 239.600 164.631 240.000 C 177.880 240.327,181.000 240.620,181.618 241.600 C 182.046 242.277,182.381 252.268,182.388 264.535 C 182.394 276.489,182.619 286.839,182.886 287.535 C 183.503 289.142,215.317 289.441,218.762 287.872 L 220.800 286.943 220.800 264.432 C 220.800 247.989,221.059 241.661,221.760 240.960 C 222.444 240.276,227.396 240.000,238.960 240.000 L 255.200 240.000 255.200 220.800 L 255.200 201.600 240.052 201.600 C 231.721 201.600,223.981 201.249,222.852 200.820 L 220.800 200.040 220.800 181.620 L 220.800 163.200 202.133 163.200 C 191.867 163.200,183.227 163.440,182.933 163.733 " stroke="none" fill="#d40019" fill-rule="evenodd"></path><path id="path5" d="M181.400 160.064 C 180.134 160.802,180.000 162.562,180.000 178.492 C 180.000 201.370,181.758 199.200,163.224 199.200 C 154.908 199.200,147.181 199.551,146.052 199.980 L 144.000 200.760 144.000 220.323 C 144.000 244.783,142.113 242.400,161.479 242.400 C 182.051 242.400,180.000 239.659,180.000 267.147 C 180.000 285.047,180.215 289.583,181.099 290.316 C 181.873 290.958,188.089 291.165,202.099 291.014 L 222.000 290.800 222.400 267.465 C 222.620 254.631,223.099 243.831,223.465 243.465 C 223.830 243.099,231.494 242.620,240.496 242.400 C 253.866 242.073,257.001 241.780,257.619 240.800 C 258.609 239.229,258.609 202.370,257.618 200.800 C 256.993 199.809,253.944 199.557,240.122 199.356 L 223.382 199.112 222.891 196.656 C 222.621 195.305,222.400 186.757,222.400 177.660 C 222.400 165.862,222.125 160.845,221.440 160.160 C 220.208 158.928,183.501 158.840,181.400 160.064 M221.114 162.065 C 221.381 162.761,221.600 171.380,221.600 181.218 C 221.600 194.650,221.849 199.267,222.600 199.753 C 223.150 200.109,230.739 200.447,239.464 200.504 C 248.189 200.561,255.666 200.946,256.079 201.359 C 256.517 201.797,256.740 210.078,256.615 221.255 L 256.400 240.400 239.865 240.800 C 230.770 241.020,223.030 241.499,222.665 241.865 C 222.299 242.231,221.820 253.211,221.600 266.265 L 221.200 290.000 201.600 290.000 L 182.000 290.000 181.600 266.639 C 181.298 248.997,180.946 243.023,180.162 242.239 C 179.401 241.477,175.130 241.144,164.162 240.991 C 155.933 240.876,148.390 240.599,147.400 240.376 L 145.600 239.970 145.600 220.760 C 145.600 205.158,145.808 201.470,146.705 201.126 C 147.312 200.893,154.902 200.634,163.569 200.551 C 183.473 200.360,181.600 202.539,181.600 179.580 C 181.600 169.838,181.840 161.627,182.133 161.333 C 183.418 160.049,220.609 160.747,221.114 162.065 " stroke="none" fill="#c5767f" fill-rule="evenodd"></path></g></svg>